  0
SECTION
  2
HEADER
  9
$ACADVER
  1
AC1032
  9
$ACADMAINTVER
 90
4
  9
$DWGCODEPAGE
  3
ANSI_1252
  9
$LASTSAVEDBY
  1
ezdxf
  9
$REQUIREDVERSIONS
160
0
  9
$INSBASE
 10
0.0
 20
0.0
 30
0.0
  9
$EXTMIN
 10
1e+20
 20
1e+20
 30
1e+20
  9
$EXTMAX
 10
-1e+20
 20
-1e+20
 30
-1e+20
  9
$LIMMIN
 10
0.0
 20
0.0
  9
$LIMMAX
 10
420.0
 20
297.0
  9
$ORTHOMODE
 70
0
  9
$REGENMODE
 70
1
  9
$FILLMODE
 70
1
  9
$QTEXTMODE
 70
0
  9
$MIRRTEXT
 70
1
  9
$LTSCALE
 40
1.0
  9
$ATTMODE
 70
1
  9
$TEXTSIZE
 40
2.5
  9
$TRACEWID
 40
1.0
  9
$TEXTSTYLE
  7
Standard
  9
$CLAYER
  8
0
  9
$CELTYPE
  6
ByLayer
  9
$CECOLOR
 62
256
  9
$CELTSCALE
 40
1.0
  9
$DISPSILH
 70
0
  9
$DIMSCALE
 40
1.0
  9
$DIMASZ
 40
2.5
  9
$DIMEXO
 40
0.625
  9
$DIMDLI
 40
3.75
  9
$DIMRND
 40
0.0
  9
$DIMDLE
 40
0.0
  9
$DIMEXE
 40
1.25
  9
$DIMTP
 40
0.0
  9
$DIMTM
 40
0.0
  9
$DIMTXT
 40
2.5
  9
$DIMCEN
 40
2.5
  9
$DIMTSZ
 40
0.0
  9
$DIMTOL
 70
0
  9
$DIMLIM
 70
0
  9
$DIMTIH
 70
0
  9
$DIMTOH
 70
0
  9
$DIMSE1
 70
0
  9
$DIMSE2
 70
0
  9
$DIMTAD
 70
1
  9
$DIMZIN
 70
8
  9
$DIMBLK
  1

  9
$DIMASO
 70
1
  9
$DIMSHO
 70
1
  9
$DIMPOST
  1

  9
$DIMAPOST
  1

  9
$DIMALT
 70
0
  9
$DIMALTD
 70
3
  9
$DIMALTF
 40
0.03937007874
  9
$DIMLFAC
 40
1.0
  9
$DIMTOFL
 70
1
  9
$DIMTVP
 40
0.0
  9
$DIMTIX
 70
0
  9
$DIMSOXD
 70
0
  9
$DIMSAH
 70
0
  9
$DIMBLK1
  1

  9
$DIMBLK2
  1

  9
$DIMSTYLE
  2
ISO-25
  9
$DIMCLRD
 70
0
  9
$DIMCLRE
 70
0
  9
$DIMCLRT
 70
0
  9
$DIMTFAC
 40
1.0
  9
$DIMGAP
 40
0.625
  9
$DIMJUST
 70
0
  9
$DIMSD1
 70
0
  9
$DIMSD2
 70
0
  9
$DIMTOLJ
 70
0
  9
$DIMTZIN
 70
8
  9
$DIMALTZ
 70
0
  9
$DIMALTTZ
 70
0
  9
$DIMUPT
 70
0
  9
$DIMDEC
 70
2
  9
$DIMTDEC
 70
2
  9
$DIMALTU
 70
2
  9
$DIMALTTD
 70
3
  9
$DIMTXSTY
  7
Standard
  9
$DIMAUNIT
 70
0
  9
$DIMADEC
 70
0
  9
$DIMALTRND
 40
0.0
  9
$DIMAZIN
 70
0
  9
$DIMDSEP
 70
44
  9
$DIMATFIT
 70
3
  9
$DIMFRAC
 70
0
  9
$DIMLDRBLK
  1

  9
$DIMLUNIT
 70
2
  9
$DIMLWD
 70
-2
  9
$DIMLWE
 70
-2
  9
$DIMTMOVE
 70
0
  9
$DIMFXL
 40
1.0
  9
$DIMFXLON
 70
0
  9
$DIMJOGANG
 40
0.785398163397
  9
$DIMTFILL
 70
0
  9
$DIMTFILLCLR
 70
0
  9
$DIMARCSYM
 70
0
  9
$DIMLTYPE
  6

  9
$DIMLTEX1
  6

  9
$DIMLTEX2
  6

  9
$DIMTXTDIRECTION
 70
0
  9
$LUNITS
 70
2
  9
$LUPREC
 70
4
  9
$SKETCHINC
 40
1.0
  9
$FILLETRAD
 40
10.0
  9
$AUNITS
 70
0
  9
$AUPREC
 70
2
  9
$MENU
  1
.
  9
$ELEVATION
 40
0.0
  9
$PELEVATION
 40
0.0
  9
$THICKNESS
 40
0.0
  9
$LIMCHECK
 70
0
  9
$CHAMFERA
 40
0.0
  9
$CHAMFERB
 40
0.0
  9
$CHAMFERC
 40
0.0
  9
$CHAMFERD
 40
0.0
  9
$SKPOLY
 70
0
  9
$TDCREATE
 40
2461286.9280324075
  9
$TDUCREATE
 40
2458532.153996898
  9
$TDUPDATE
 40
2461286.9280324075
  9
$TDUUPDATE
 40
2458532.1544311
  9
$TDINDWG
 40
0.0
  9
$TDUSRTIMER
 40
0.0
  9
$USRTIMER
 70
1
  9
$ANGBASE
 50
0.0
  9
$ANGDIR
 70
0
  9
$PDMODE
 70
0
  9
$PDSIZE
 40
0.0
  9
$PLINEWID
 40
0.0
  9
$SPLFRAME
 70
0
  9
$SPLINETYPE
 70
6
  9
$SPLINESEGS
 70
8
  9
$HANDSEED
  5
457
  9
$SURFTAB1
 70
6
  9
$SURFTAB2
 70
6
  9
$SURFTYPE
 70
6
  9
$SURFU
 70
6
  9
$SURFV
 70
6
  9
$UCSBASE
  2

  9
$UCSNAME
  2

  9
$UCSORG
 10
0.0
 20
0.0
 30
0.0
  9
$UCSXDIR
 10
1.0
 20
0.0
 30
0.0
  9
$UCSYDIR
 10
0.0
 20
1.0
 30
0.0
  9
$UCSORTHOREF
  2

  9
$UCSORTHOVIEW
 70
0
  9
$UCSORGTOP
 10
0.0
 20
0.0
 30
0.0
  9
$UCSORGBOTTOM
 10
0.0
 20
0.0
 30
0.0
  9
$UCSORGLEFT
 10
0.0
 20
0.0
 30
0.0
  9
$UCSORGRIGHT
 10
0.0
 20
0.0
 30
0.0
  9
$UCSORGFRONT
 10
0.0
 20
0.0
 30
0.0
  9
$UCSORGBACK
 10
0.0
 20
0.0
 30
0.0
  9
$PUCSBASE
  2

  9
$PUCSNAME
  2

  9
$PUCSORG
 10
0.0
 20
0.0
 30
0.0
  9
$PUCSXDIR
 10
1.0
 20
0.0
 30
0.0
  9
$PUCSYDIR
 10
0.0
 20
1.0
 30
0.0
  9
$PUCSORTHOREF
  2

  9
$PUCSORTHOVIEW
 70
0
  9
$PUCSORGTOP
 10
0.0
 20
0.0
 30
0.0
  9
$PUCSORGBOTTOM
 10
0.0
 20
0.0
 30
0.0
  9
$PUCSORGLEFT
 10
0.0
 20
0.0
 30
0.0
  9
$PUCSORGRIGHT
 10
0.0
 20
0.0
 30
0.0
  9
$PUCSORGFRONT
 10
0.0
 20
0.0
 30
0.0
  9
$PUCSORGBACK
 10
0.0
 20
0.0
 30
0.0
  9
$USERI1
 70
0
  9
$USERI2
 70
0
  9
$USERI3
 70
0
  9
$USERI4
 70
0
  9
$USERI5
 70
0
  9
$USERR1
 40
0.0
  9
$USERR2
 40
0.0
  9
$USERR3
 40
0.0
  9
$USERR4
 40
0.0
  9
$USERR5
 40
0.0
  9
$WORLDVIEW
 70
1
  9
$SHADEDGE
 70
3
  9
$SHADEDIF
 70
70
  9
$TILEMODE
 70
1
  9
$MAXACTVP
 70
64
  9
$PINSBASE
 10
0.0
 20
0.0
 30
0.0
  9
$PLIMCHECK
 70
0
  9
$PEXTMIN
 10
1e+20
 20
1e+20
 30
1e+20
  9
$PEXTMAX
 10
-1e+20
 20
-1e+20
 30
-1e+20
  9
$PLIMMIN
 10
0.0
 20
0.0
  9
$PLIMMAX
 10
420.0
 20
297.0
  9
$UNITMODE
 70
0
  9
$VISRETAIN
 70
1
  9
$PLINEGEN
 70
0
  9
$PSLTSCALE
 70
1
  9
$TREEDEPTH
 70
3020
  9
$CMLSTYLE
  2
Standard
  9
$CMLJUST
 70
0
  9
$CMLSCALE
 40
20.0
  9
$PROXYGRAPHICS
 70
1
  9
$MEASUREMENT
 70
1
  9
$CELWEIGHT
370
-1
  9
$ENDCAPS
280
0
  9
$JOINSTYLE
280
0
  9
$LWDISPLAY
290
0
  9
$INSUNITS
 70
6
  9
$HYPERLINKBASE
  1

  9
$STYLESHEET
  1

  9
$XEDIT
290
1
  9
$CEPSNTYPE
380
0
  9
$PSTYLEMODE
290
1
  9
$FINGERPRINTGUID
  2
{641E7094-9006-4641-99F4-4DD2CDB9513C}
  9
$VERSIONGUID
  2
{4147563E-1F34-4097-9CD7-73D90F31127E}
  9
$EXTNAMES
290
1
  9
$PSVPSCALE
 40
0.0
  9
$OLESTARTUP
290
0
  9
$SORTENTS
280
127
  9
$INDEXCTL
280
0
  9
$HIDETEXT
280
1
  9
$XCLIPFRAME
280
1
  9
$HALOGAP
280
0
  9
$OBSCOLOR
 70
257
  9
$OBSLTYPE
280
0
  9
$INTERSECTIONDISPLAY
280
0
  9
$INTERSECTIONCOLOR
 70
257
  9
$DIMASSOC
280
2
  9
$PROJECTNAME
  1

  9
$CAMERADISPLAY
290
0
  9
$LENSLENGTH
 40
50.0
  9
$CAMERAHEIGHT
 40
0.0
  9
$STEPSPERSEC
 40
24.0
  9
$STEPSIZE
 40
100.0
  9
$3DDWFPREC
 40
2.0
  9
$PSOLWIDTH
 40
0.005
  9
$PSOLHEIGHT
 40
0.08
  9
$LOFTANG1
 40
1.570796326795
  9
$LOFTANG2
 40
1.570796326795
  9
$LOFTMAG1
 40
0.0
  9
$LOFTMAG2
 40
0.0
  9
$LOFTPARAM
 70
7
  9
$LOFTNORMALS
280
1
  9
$LATITUDE
 40
37.795
  9
$LONGITUDE
 40
-122.394
  9
$NORTHDIRECTION
 40
0.0
  9
$TIMEZONE
 70
-8000
  9
$LIGHTGLYPHDISPLAY
280
1
  9
$TILEMODELIGHTSYNCH
280
1
  9
$CMATERIAL
347
20
  9
$SOLIDHIST
280
0
  9
$SHOWHIST
280
1
  9
$DWFFRAME
280
2
  9
$DGNFRAME
280
2
  9
$REALWORLDSCALE
290
1
  9
$INTERFERECOLOR
 62
256
  9
$CSHADOW
280
0
  9
$SHADOWPLANELOCATION
 40
0.0
  0
ENDSEC
  0
SECTION
  2
CLASSES
  0
CLASS
  1
ACDBDICTIONARYWDFLT
  2
AcDbDictionaryWithDefault
  3
ObjectDBX Classes
 90
0
 91
0
280
0
281
0
  0
CLASS
  1
SUN
  2
AcDbSun
  3
SCENEOE
 90
1153
 91
0
280
0
281
0
  0
CLASS
  1
VISUALSTYLE
  2
AcDbVisualStyle
  3
ObjectDBX Classes
 90
4095
 91
0
280
0
281
0
  0
CLASS
  1
MATERIAL
  2
AcDbMaterial
  3
ObjectDBX Classes
 90
1153
 91
0
280
0
281
0
  0
CLASS
  1
SCALE
  2
AcDbScale
  3
ObjectDBX Classes
 90
1153
 91
0
280
0
281
0
  0
CLASS
  1
TABLESTYLE
  2
AcDbTableStyle
  3
ObjectDBX Classes
 90
4095
 91
0
280
0
281
0
  0
CLASS
  1
MLEADERSTYLE
  2
AcDbMLeaderStyle
  3
ACDB_MLEADERSTYLE_CLASS
 90
4095
 91
0
280
0
281
0
  0
CLASS
  1
DICTIONARYVAR
  2
AcDbDictionaryVar
  3
ObjectDBX Classes
 90
0
 91
0
280
0
281
0
  0
CLASS
  1
CELLSTYLEMAP
  2
AcDbCellStyleMap
  3
ObjectDBX Classes
 90
1152
 91
0
280
0
281
0
  0
CLASS
  1
MENTALRAYRENDERSETTINGS
  2
AcDbMentalRayRenderSettings
  3
SCENEOE
 90
1024
 91
0
280
0
281
0
  0
CLASS
  1
ACDBDETAILVIEWSTYLE
  2
AcDbDetailViewStyle
  3
ObjectDBX Classes
 90
1025
 91
0
280
0
281
0
  0
CLASS
  1
ACDBSECTIONVIEWSTYLE
  2
AcDbSectionViewStyle
  3
ObjectDBX Classes
 90
1025
 91
0
280
0
281
0
  0
CLASS
  1
RASTERVARIABLES
  2
AcDbRasterVariables
  3
ISM
 90
0
 91
0
280
0
281
0
  0
CLASS
  1
LAYOUT
  2
AcDbLayout
  3
ObjectDBX Classes
 90
0
 91
0
280
0
281
0
  0
CLASS
  1
ACDBPLACEHOLDER
  2
AcDbPlaceHolder
  3
ObjectDBX Classes
 90
0
 91
0
280
0
281
0
  0
ENDSEC
  0
SECTION
  2
TABLES
  0
TABLE
  2
VPORT
  5
8
330
0
100
AcDbSymbolTable
 70
1
  0
VPORT
  5
23
330
8
100
AcDbSymbolTableRecord
100
AcDbViewportTableRecord
  2
*Active
 70
0
 10
0.0
 20
0.0
 11
1.0
 21
1.0
 12
0.0
 22
0.0
 13
0.0
 23
0.0
 14
0.5
 24
0.5
 15
0.5
 25
0.5
 16
0.0
 26
0.0
 36
1.0
 17
0.0
 27
0.0
 37
0.0
 40
1000.0
 41
1.34
 42
50.0
 43
0.0
 44
0.0
 50
0.0
 51
0.0
 71
0
 72
1000
 73
1
 74
3
 75
0
 76
0
 77
0
 78
0
281
0
 65
0
146
0.0
  0
ENDTAB
  0
TABLE
  2
LTYPE
  5
2
330
0
100
AcDbSymbolTable
 70
3
  0
LTYPE
  5
24
330
2
100
AcDbSymbolTableRecord
100
AcDbLinetypeTableRecord
  2
ByBlock
 70
0
  3

 72
65
 73
0
 40
0.0
  0
LTYPE
  5
25
330
2
100
AcDbSymbolTableRecord
100
AcDbLinetypeTableRecord
  2
ByLayer
 70
0
  3

 72
65
 73
0
 40
0.0
  0
LTYPE
  5
26
330
2
100
AcDbSymbolTableRecord
100
AcDbLinetypeTableRecord
  2
Continuous
 70
0
  3

 72
65
 73
0
 40
0.0
  0
ENDTAB
  0
TABLE
  2
LAYER
  5
1
330
0
100
AcDbSymbolTable
 70
5
  0
LAYER
  5
27
330
1
100
AcDbSymbolTableRecord
100
AcDbLayerTableRecord
  2
0
 70
0
 62
7
  6
Continuous
370
-3
390
13
347
21
  0
LAYER
  5
28
330
1
100
AcDbSymbolTableRecord
100
AcDbLayerTableRecord
  2
Defpoints
 70
0
 62
7
  6
Continuous
290
0
370
-3
390
13
347
21
  0
LAYER
  5
2F
330
1
100
AcDbSymbolTableRecord
100
AcDbLayerTableRecord
  2
CUTTING
 70
0
 62
3
  6
CONTINUOUS
370
-3
390
13
347
21
  0
LAYER
  5
30
330
1
100
AcDbSymbolTableRecord
100
AcDbLayerTableRecord
  2
MARKING
 70
0
 62
211
  6
CONTINUOUS
370
-3
390
13
347
21
  0
LAYER
  5
31
330
1
100
AcDbSymbolTableRecord
100
AcDbLayerTableRecord
  2
CHECK
 70
0
 62
2
  6
CONTINUOUS
370
-3
390
13
347
21
  0
ENDTAB
  0
TABLE
  2
STYLE
  5
5
330
0
100
AcDbSymbolTable
 70
3
  0
STYLE
  5
29
330
5
100
AcDbSymbolTableRecord
100
AcDbTextStyleTableRecord
  2
Standard
 70
0
 40
0.0
 41
1.0
 50
0.0
 71
0
 42
2.5
  3
msjh.ttc
  4

  0
STYLE
  5
7F
330
5
100
AcDbSymbolTableRecord
100
AcDbTextStyleTableRecord
  2
CHINESE
 70
0
 40
0.0
 41
1.0
 50
0.0
 71
0
 42
2.5
  3
msjh.ttc
  4

  0
STYLE
  5
80
330
5
100
AcDbSymbolTableRecord
100
AcDbTextStyleTableRecord
  2
CHECK_STYLE
 70
0
 40
0.0
 41
1.0
 50
0.0
 71
0
 42
2.5
  3
msjh.ttc
  4

  0
ENDTAB
  0
TABLE
  2
VIEW
  5
7
330
0
100
AcDbSymbolTable
 70
0
  0
ENDTAB
  0
TABLE
  2
UCS
  5
6
330
0
100
AcDbSymbolTable
 70
0
  0
ENDTAB
  0
TABLE
  2
APPID
  5
3
330
0
100
AcDbSymbolTable
 70
3
  0
APPID
  5
2A
330
3
100
AcDbSymbolTableRecord
100
AcDbRegAppTableRecord
  2
ACAD
 70
0
  0
APPID
  5
78
330
3
100
AcDbSymbolTableRecord
100
AcDbRegAppTableRecord
  2
HATCHBACKGROUNDCOLOR
 70
0
  0
APPID
  5
79
330
3
100
AcDbSymbolTableRecord
100
AcDbRegAppTableRecord
  2
EZDXF
 70
0
  0
ENDTAB
  0
TABLE
  2
DIMSTYLE
  5
4
330
0
100
AcDbSymbolTable
 70
2
100
AcDbDimStyleTable
  0
DIMSTYLE
105
2B
330
4
100
AcDbSymbolTableRecord
100
AcDbDimStyleTableRecord
  2
Standard
 70
0
 40
1.0
 41
2.5
 42
0.625
 43
3.75
 44
1.25
 45
0.0
 46
0.0
 47
0.0
 48
0.0
 49
2.5
140
2.5
141
2.5
142
0.0
143
0.03937007874
144
1.0
145
0.0
146
1.0
147
0.625
148
0.0
 69
0
 70
0
 71
0
 72
0
 73
0
 74
0
 75
0
 76
0
 77
1
 78
8
 79
3
170
0
171
3
172
1
173
0
174
0
175
0
176
0
177
0
178
0
179
2
271
2
272
2
273
2
274
3
275
0
276
0
277
2
278
44
279
0
280
0
281
0
282
0
283
0
284
8
285
0
286
0
288
0
289
3
290
0
371
-2
372
-2
  0
DIMSTYLE
105
53
330
4
100
AcDbSymbolTableRecord
100
AcDbDimStyleTableRecord
  2
CHECK_STYLE
 70
0
 40
1.0
 41
12.0
 42
4.0
 43
3.75
 44
4.0
 45
0.001
 46
0.0
 47
0.0
 48
0.0
 49
2.5
140
20.0
141
2.5
142
0.0
143
0.03937007874
144
1.0
145
0.0
146
1.0
147
0.625
148
0.0
 69
0
 70
0
 71
0
 72
0
 73
0
 74
0
 75
0
 76
0
 77
1
 78
0
 79
3
170
0
171
3
172
1
173
0
174
0
175
0
176
2
177
2
178
2
179
2
271
2
272
2
273
2
274
3
275
0
276
0
277
2
278
46
279
0
280
0
281
0
282
0
283
0
284
8
285
0
286
0
288
0
289
3
290
0
340
7F
371
-2
372
-2
  0
ENDTAB
  0
TABLE
  2
BLOCK_RECORD
  5
9
330
0
100
AcDbSymbolTable
 70
13
  0
BLOCK_RECORD
  5
17
330
9
100
AcDbSymbolTableRecord
100
AcDbBlockTableRecord
  2
*Model_Space
340
1A
 70
0
280
1
281
0
  0
BLOCK_RECORD
  5
1B
330
9
100
AcDbSymbolTableRecord
100
AcDbBlockTableRecord
  2
*Paper_Space
340
1E
 70
0
280
1
281
0
  0
BLOCK_RECORD
  5
5A
330
9
100
AcDbSymbolTableRecord
100
AcDbBlockTableRecord
  2
_CLOSEDFILLED
340
0
 70
0
280
1
281
0
  0
BLOCK_RECORD
  5
3B0
330
9
100
AcDbSymbolTableRecord
100
AcDbBlockTableRecord
  2
*D1
340
0
 70
0
280
1
281
0
  0
BLOCK_RECORD
  5
3BF
330
9
100
AcDbSymbolTableRecord
100
AcDbBlockTableRecord
  2
*D2
340
0
 70
0
280
1
281
0
  0
BLOCK_RECORD
  5
3CE
330
9
100
AcDbSymbolTableRecord
100
AcDbBlockTableRecord
  2
*D3
340
0
 70
0
280
1
281
0
  0
BLOCK_RECORD
  5
3DF
330
9
100
AcDbSymbolTableRecord
100
AcDbBlockTableRecord
  2
*D4
340
0
 70
0
280
1
281
0
  0
BLOCK_RECORD
  5
3F0
330
9
100
AcDbSymbolTableRecord
100
AcDbBlockTableRecord
  2
*D5
340
0
 70
0
280
1
281
0
  0
BLOCK_RECORD
  5
401
330
9
100
AcDbSymbolTableRecord
100
AcDbBlockTableRecord
  2
*D6
340
0
 70
0
280
1
281
0
  0
BLOCK_RECORD
  5
412
330
9
100
AcDbSymbolTableRecord
100
AcDbBlockTableRecord
  2
*D7
340
0
 70
0
280
1
281
0
  0
BLOCK_RECORD
  5
423
330
9
100
AcDbSymbolTableRecord
100
AcDbBlockTableRecord
  2
*D8
340
0
 70
0
280
1
281
0
  0
BLOCK_RECORD
  5
435
330
9
100
AcDbSymbolTableRecord
100
AcDbBlockTableRecord
  2
*D9
340
0
 70
0
280
1
281
0
  0
BLOCK_RECORD
  5
446
330
9
100
AcDbSymbolTableRecord
100
AcDbBlockTableRecord
  2
*D10
340
0
 70
0
280
1
281
0
  0
ENDTAB
  0
ENDSEC
  0
SECTION
  2
BLOCKS
  0
BLOCK
  5
18
330
17
100
AcDbEntity
  8
0
100
AcDbBlockBegin
  2
*Model_Space
 70
0
 10
0.0
 20
0.0
 30
0.0
  3
*Model_Space
  1

  0
ENDBLK
  5
19
330
17
100
AcDbEntity
  8
0
100
AcDbBlockEnd
  0
BLOCK
  5
1C
330
1B
100
AcDbEntity
  8
0
100
AcDbBlockBegin
  2
*Paper_Space
 70
0
 10
0.0
 20
0.0
 30
0.0
  3
*Paper_Space
  1

  0
ENDBLK
  5
1D
330
1B
100
AcDbEntity
  8
0
100
AcDbBlockEnd
  0
BLOCK
  5
5B
330
5A
100
AcDbEntity
  8
0
100
AcDbBlockBegin
  2
_CLOSEDFILLED
 70
0
 10
0.0
 20
0.0
 30
0.0
  3
_CLOSEDFILLED
  1

  0
SOLID
  5
5D
330
5A
100
AcDbEntity
  8
0
  6
BYBLOCK
 62
0
100
AcDbTrace
 10
-1.0
 20
0.16439898372402537
 30
0.0
 11
0.0
 21
0.0
 31
0.0
 12
-1.0
 22
-0.16439898372402537
 32
0.0
 13
-1.0
 23
-0.16439898372402537
 33
0.0
  0
ENDBLK
  5
5C
330
5A
100
AcDbEntity
  8
0
100
AcDbBlockEnd
  0
BLOCK
  5
3B1
330
3B0
100
AcDbEntity
  8
0
100
AcDbBlockBegin
  2
*D1
 70
1
 10
0.0
 20
0.0
 30
0.0
  3
*D1
  1

  0
LINE
  5
3B3
330
3B0
100
AcDbEntity
  8
0
 62
2
100
AcDbLine
 10
2151.92
 20
-450.0
 30
0.0
 11
2016.0
 21
-450.0
 31
0.0
  0
LINE
  5
3B4
330
3B0
100
AcDbEntity
  8
0
 62
2
100
AcDbLine
 10
2151.92
 20
-1549.0
 30
0.0
 11
2016.0
 21
-1549.0
 31
0.0
  0
INSERT
  5
3B5
330
3B0
100
AcDbEntity
  8
CHECK
 62
2
100
AcDbBlockReference
  2
_CLOSEDFILLED
 10
2020.0
 20
-450.0
 30
0.0
 41
12.0
 42
12.0
 50
270.0
  0
INSERT
  5
3B7
330
3B0
100
AcDbEntity
  8
CHECK
 62
2
100
AcDbBlockReference
  2
_CLOSEDFILLED
 10
2020.0
 20
-1549.0
 30
0.0
 41
12.0
 42
12.0
 50
90.0
  0
LINE
  5
3B9
330
3B0
100
AcDbEntity
  8
0
 62
2
100
AcDbLine
 10
2020.0
 20
-438.0
 30
0.0
 11
2020.0
 21
-1561.0
 31
0.0
  0
MTEXT
  5
3BA
330
3B0
100
AcDbEntity
  8
CHECK
 62
2
100
AcDbMText
 10
2030.625
 20
-999.5
 30
0.0
 40
20.0
 71
5
  1
1099.00
  7
CHINESE
 50
90.0
  0
POINT
  5
3BB
330
3B0
100
AcDbEntity
  8
Defpoints
100
AcDbPoint
 10
2020.0
 20
-450.0
 30
0.0
  0
POINT
  5
3BC
330
3B0
100
AcDbEntity
  8
Defpoints
100
AcDbPoint
 10
2155.92
 20
-450.0
 30
0.0
  0
POINT
  5
3BD
330
3B0
100
AcDbEntity
  8
Defpoints
100
AcDbPoint
 10
2155.92
 20
-1549.0
 30
0.0
  0
ENDBLK
  5
3B2
330
3B0
100
AcDbEntity
  8
0
100
AcDbBlockEnd
  0
BLOCK
  5
3C0
330
3BF
100
AcDbEntity
  8
0
100
AcDbBlockBegin
  2
*D2
 70
1
 10
0.0
 20
0.0
 30
0.0
  3
*D2
  1

  0
LINE
  5
3C2
330
3BF
100
AcDbEntity
  8
0
 62
2
100
AcDbLine
 10
2138.92
 20
-1534.0
 30
0.0
 11
2138.92
 21
-1674.0
 31
0.0
  0
LINE
  5
3C3
330
3BF
100
AcDbEntity
  8
0
 62
2
100
AcDbLine
 10
2887.92
 20
-1534.0
 30
0.0
 11
2887.92
 21
-1674.0
 31
0.0
  0
INSERT
  5
3C4
330
3BF
100
AcDbEntity
  8
CHECK
 62
2
100
AcDbBlockReference
  2
_CLOSEDFILLED
 10
2138.92
 20
-1670.0
 30
0.0
 41
12.0
 42
12.0
 50
180.0
  0
INSERT
  5
3C6
330
3BF
100
AcDbEntity
  8
CHECK
 62
2
100
AcDbBlockReference
  2
_CLOSEDFILLED
 10
2887.92
 20
-1670.0
 30
0.0
 41
12.0
 42
12.0
  0
LINE
  5
3C8
330
3BF
100
AcDbEntity
  8
0
 62
2
100
AcDbLine
 10
2150.92
 20
-1670.0
 30
0.0
 11
2875.92
 21
-1670.0
 31
0.0
  0
MTEXT
  5
3C9
330
3BF
100
AcDbEntity
  8
CHECK
 62
2
100
AcDbMText
 10
2513.42
 20
-1659.375
 30
0.0
 40
20.0
 71
5
  1
749.00
  7
CHINESE
  0
POINT
  5
3CA
330
3BF
100
AcDbEntity
  8
Defpoints
100
AcDbPoint
 10
2138.92
 20
-1670.0
 30
0.0
  0
POINT
  5
3CB
330
3BF
100
AcDbEntity
  8
Defpoints
100
AcDbPoint
 10
2138.92
 20
-1530.0
 30
0.0
  0
POINT
  5
3CC
330
3BF
100
AcDbEntity
  8
Defpoints
100
AcDbPoint
 10
2887.92
 20
-1530.0
 30
0.0
  0
ENDBLK
  5
3C1
330
3BF
100
AcDbEntity
  8
0
100
AcDbBlockEnd
  0
BLOCK
  5
3CF
330
3CE
100
AcDbEntity
  8
0
100
AcDbBlockBegin
  2
*D3
 70
1
 10
0.0
 20
0.0
 30
0.0
  3
*D3
  1

  0
LINE
  5
3D1
330
3CE
100
AcDbEntity
  8
0
 62
2
100
AcDbLine
 10
2138.92
 20
-465.0
 30
0.0
 11
2138.92
 21
-416.0
 31
0.0
  0
LINE
  5
3D2
330
3CE
100
AcDbEntity
  8
0
 62
2
100
AcDbLine
 10
2155.92
 20
-465.0
 30
0.0
 11
2155.92
 21
-416.0
 31
0.0
  0
INSERT
  5
3D3
330
3CE
100
AcDbEntity
  8
CHECK
 62
2
100
AcDbBlockReference
  2
_CLOSEDFILLED
 10
2138.92
 20
-420.0
 30
0.0
 41
12.0
 42
12.0
  0
INSERT
  5
3D5
330
3CE
100
AcDbEntity
  8
CHECK
 62
2
100
AcDbBlockReference
  2
_CLOSEDFILLED
 10
2155.92
 20
-420.0
 30
0.0
 41
12.0
 42
12.0
 50
180.0
  0
LINE
  5
3D7
330
3CE
100
AcDbEntity
  8
0
 62
2
100
AcDbLine
 10
2126.92
 20
-420.0
 30
0.0
 11
2114.92
 21
-420.0
 31
0.0
  0
LINE
  5
3D8
330
3CE
100
AcDbEntity
  8
0
 62
2
100
AcDbLine
 10
2167.92
 20
-420.0
 30
0.0
 11
2179.92
 21
-420.0
 31
0.0
  0
LINE
  5
3D9
330
3CE
100
AcDbEntity
  8
0
 62
2
100
AcDbLine
 10
2138.92
 20
-420.0
 30
0.0
 11
2155.92
 21
-420.0
 31
0.0
  0
MTEXT
  5
3DA
330
3CE
100
AcDbEntity
  8
CHECK
 62
2
100
AcDbMText
 10
2147.42
 20
-405.375
 30
0.0
 40
20.0
 71
5
  1
17.00
  7
CHINESE
  0
POINT
  5
3DB
330
3CE
100
AcDbEntity
  8
Defpoints
100
AcDbPoint
 10
2138.92
 20
-420.0
 30
0.0
  0
POINT
  5
3DC
330
3CE
100
AcDbEntity
  8
Defpoints
100
AcDbPoint
 10
2138.92
 20
-469.0
 30
0.0
  0
POINT
  5
3DD
330
3CE
100
AcDbEntity
  8
Defpoints
100
AcDbPoint
 10
2155.92
 20
-469.0
 30
0.0
  0
ENDBLK
  5
3D0
330
3CE
100
AcDbEntity
  8
0
100
AcDbBlockEnd
  0
BLOCK
  5
3E0
330
3DF
100
AcDbEntity
  8
0
100
AcDbBlockBegin
  2
*D4
 70
1
 10
0.0
 20
0.0
 30
0.0
  3
*D4
  1

  0
LINE
  5
3E2
330
3DF
100
AcDbEntity
  8
0
 62
2
100
AcDbLine
 10
2151.92
 20
-450.0
 30
0.0
 11
2086.0
 21
-450.0
 31
0.0
  0
LINE
  5
3E3
330
3DF
100
AcDbEntity
  8
0
 62
2
100
AcDbLine
 10
2151.92
 20
-469.0
 30
0.0
 11
2086.0
 21
-469.0
 31
0.0
  0
INSERT
  5
3E4
330
3DF
100
AcDbEntity
  8
CHECK
 62
2
100
AcDbBlockReference
  2
_CLOSEDFILLED
 10
2090.0
 20
-450.0
 30
0.0
 41
12.0
 42
12.0
 50
90.0
  0
INSERT
  5
3E6
330
3DF
100
AcDbEntity
  8
CHECK
 62
2
100
AcDbBlockReference
  2
_CLOSEDFILLED
 10
2090.0
 20
-469.0
 30
0.0
 41
12.0
 42
12.0
 50
270.0
  0
LINE
  5
3E8
330
3DF
100
AcDbEntity
  8
0
 62
2
100
AcDbLine
 10
2090.0
 20
-438.0
 30
0.0
 11
2090.0
 21
-426.0
 31
0.0
  0
LINE
  5
3E9
330
3DF
100
AcDbEntity
  8
0
 62
2
100
AcDbLine
 10
2090.0
 20
-481.0
 30
0.0
 11
2090.0
 21
-493.0
 31
0.0
  0
LINE
  5
3EA
330
3DF
100
AcDbEntity
  8
0
 62
2
100
AcDbLine
 10
2090.0
 20
-450.0
 30
0.0
 11
2090.0
 21
-469.0
 31
0.0
  0
MTEXT
  5
3EB
330
3DF
100
AcDbEntity
  8
CHECK
 62
2
100
AcDbMText
 10
2104.625
 20
-459.5
 30
0.0
 40
20.0
 71
5
  1
19.00
  7
CHINESE
 50
90.0
  0
POINT
  5
3EC
330
3DF
100
AcDbEntity
  8
Defpoints
100
AcDbPoint
 10
2090.0
 20
-450.0
 30
0.0
  0
POINT
  5
3ED
330
3DF
100
AcDbEntity
  8
Defpoints
100
AcDbPoint
 10
2155.92
 20
-450.0
 30
0.0
  0
POINT
  5
3EE
330
3DF
100
AcDbEntity
  8
Defpoints
100
AcDbPoint
 10
2155.92
 20
-469.0
 30
0.0
  0
ENDBLK
  5
3E1
330
3DF
100
AcDbEntity
  8
0
100
AcDbBlockEnd
  0
BLOCK
  5
3F1
330
3F0
100
AcDbEntity
  8
0
100
AcDbBlockBegin
  2
*D5
 70
1
 10
0.0
 20
0.0
 30
0.0
  3
*D5
  1

  0
LINE
  5
3F3
330
3F0
100
AcDbEntity
  8
0
 62
2
100
AcDbLine
 10
2138.92
 20
-1534.0
 30
0.0
 11
2138.92
 21
-1584.0
 31
0.0
  0
LINE
  5
3F4
330
3F0
100
AcDbEntity
  8
0
 62
2
100
AcDbLine
 10
2155.92
 20
-1534.0
 30
0.0
 11
2155.92
 21
-1584.0
 31
0.0
  0
INSERT
  5
3F5
330
3F0
100
AcDbEntity
  8
CHECK
 62
2
100
AcDbBlockReference
  2
_CLOSEDFILLED
 10
2138.92
 20
-1580.0
 30
0.0
 41
12.0
 42
12.0
  0
INSERT
  5
3F7
330
3F0
100
AcDbEntity
  8
CHECK
 62
2
100
AcDbBlockReference
  2
_CLOSEDFILLED
 10
2155.92
 20
-1580.0
 30
0.0
 41
12.0
 42
12.0
 50
180.0
  0
LINE
  5
3F9
330
3F0
100
AcDbEntity
  8
0
 62
2
100
AcDbLine
 10
2126.92
 20
-1580.0
 30
0.0
 11
2114.92
 21
-1580.0
 31
0.0
  0
LINE
  5
3FA
330
3F0
100
AcDbEntity
  8
0
 62
2
100
AcDbLine
 10
2167.92
 20
-1580.0
 30
0.0
 11
2179.92
 21
-1580.0
 31
0.0
  0
LINE
  5
3FB
330
3F0
100
AcDbEntity
  8
0
 62
2
100
AcDbLine
 10
2138.92
 20
-1580.0
 30
0.0
 11
2155.92
 21
-1580.0
 31
0.0
  0
MTEXT
  5
3FC
330
3F0
100
AcDbEntity
  8
CHECK
 62
2
100
AcDbMText
 10
2147.42
 20
-1565.375
 30
0.0
 40
20.0
 71
5
  1
17.00
  7
CHINESE
  0
POINT
  5
3FD
330
3F0
100
AcDbEntity
  8
Defpoints
100
AcDbPoint
 10
2138.92
 20
-1580.0
 30
0.0
  0
POINT
  5
3FE
330
3F0
100
AcDbEntity
  8
Defpoints
100
AcDbPoint
 10
2138.92
 20
-1530.0
 30
0.0
  0
POINT
  5
3FF
330
3F0
100
AcDbEntity
  8
Defpoints
100
AcDbPoint
 10
2155.92
 20
-1530.0
 30
0.0
  0
ENDBLK
  5
3F2
330
3F0
100
AcDbEntity
  8
0
100
AcDbBlockEnd
  0
BLOCK
  5
402
330
401
100
AcDbEntity
  8
0
100
AcDbBlockBegin
  2
*D6
 70
1
 10
0.0
 20
0.0
 30
0.0
  3
*D6
  1

  0
LINE
  5
404
330
401
100
AcDbEntity
  8
0
 62
2
100
AcDbLine
 10
2151.92
 20
-1530.0
 30
0.0
 11
2086.0
 21
-1530.0
 31
0.0
  0
LINE
  5
405
330
401
100
AcDbEntity
  8
0
 62
2
100
AcDbLine
 10
2151.92
 20
-1549.0
 30
0.0
 11
2086.0
 21
-1549.0
 31
0.0
  0
INSERT
  5
406
330
401
100
AcDbEntity
  8
CHECK
 62
2
100
AcDbBlockReference
  2
_CLOSEDFILLED
 10
2090.0
 20
-1530.0
 30
0.0
 41
12.0
 42
12.0
 50
90.0
  0
INSERT
  5
408
330
401
100
AcDbEntity
  8
CHECK
 62
2
100
AcDbBlockReference
  2
_CLOSEDFILLED
 10
2090.0
 20
-1549.0
 30
0.0
 41
12.0
 42
12.0
 50
270.0
  0
LINE
  5
40A
330
401
100
AcDbEntity
  8
0
 62
2
100
AcDbLine
 10
2090.0
 20
-1518.0
 30
0.0
 11
2090.0
 21
-1506.0
 31
0.0
  0
LINE
  5
40B
330
401
100
AcDbEntity
  8
0
 62
2
100
AcDbLine
 10
2090.0
 20
-1561.0
 30
0.0
 11
2090.0
 21
-1573.0
 31
0.0
  0
LINE
  5
40C
330
401
100
AcDbEntity
  8
0
 62
2
100
AcDbLine
 10
2090.0
 20
-1530.0
 30
0.0
 11
2090.0
 21
-1549.0
 31
0.0
  0
MTEXT
  5
40D
330
401
100
AcDbEntity
  8
CHECK
 62
2
100
AcDbMText
 10
2104.625
 20
-1539.5
 30
0.0
 40
20.0
 71
5
  1
19.00
  7
CHINESE
 50
90.0
  0
POINT
  5
40E
330
401
100
AcDbEntity
  8
Defpoints
100
AcDbPoint
 10
2090.0
 20
-1530.0
 30
0.0
  0
POINT
  5
40F
330
401
100
AcDbEntity
  8
Defpoints
100
AcDbPoint
 10
2155.92
 20
-1530.0
 30
0.0
  0
POINT
  5
410
330
401
100
AcDbEntity
  8
Defpoints
100
AcDbPoint
 10
2155.92
 20
-1549.0
 30
0.0
  0
ENDBLK
  5
403
330
401
100
AcDbEntity
  8
0
100
AcDbBlockEnd
  0
BLOCK
  5
413
330
412
100
AcDbEntity
  8
0
100
AcDbBlockBegin
  2
*D7
 70
1
 10
0.0
 20
0.0
 30
0.0
  3
*D7
  1

  0
LINE
  5
415
330
412
100
AcDbEntity
  8
0
 62
2
100
AcDbLine
 10
2863.42
 20
-459.0
 30
0.0
 11
2863.42
 21
-416.0
 31
0.0
  0
LINE
  5
416
330
412
100
AcDbEntity
  8
0
 62
2
100
AcDbLine
 10
2870.92
 20
-459.0
 30
0.0
 11
2870.92
 21
-416.0
 31
0.0
  0
INSERT
  5
417
330
412
100
AcDbEntity
  8
CHECK
 62
2
100
AcDbBlockReference
  2
_CLOSEDFILLED
 10
2863.42
 20
-420.0
 30
0.0
 41
12.0
 42
12.0
  0
INSERT
  5
419
330
412
100
AcDbEntity
  8
CHECK
 62
2
100
AcDbBlockReference
  2
_CLOSEDFILLED
 10
2870.92
 20
-420.0
 30
0.0
 41
12.0
 42
12.0
 50
180.0
  0
LINE
  5
41B
330
412
100
AcDbEntity
  8
0
 62
2
100
AcDbLine
 10
2851.42
 20
-420.0
 30
0.0
 11
2839.42
 21
-420.0
 31
0.0
  0
LINE
  5
41C
330
412
100
AcDbEntity
  8
0
 62
2
100
AcDbLine
 10
2882.92
 20
-420.0
 30
0.0
 11
2894.92
 21
-420.0
 31
0.0
  0
LINE
  5
41D
330
412
100
AcDbEntity
  8
0
 62
2
100
AcDbLine
 10
2863.42
 20
-420.0
 30
0.0
 11
2870.92
 21
-420.0
 31
0.0
  0
MTEXT
  5
41E
330
412
100
AcDbEntity
  8
CHECK
 62
2
100
AcDbMText
 10
2867.17
 20
-405.375
 30
0.0
 40
20.0
 71
5
  1
7.50
  7
CHINESE
  0
POINT
  5
41F
330
412
100
AcDbEntity
  8
Defpoints
100
AcDbPoint
 10
2863.42
 20
-420.0
 30
0.0
  0
POINT
  5
420
330
412
100
AcDbEntity
  8
Defpoints
100
AcDbPoint
 10
2863.42
 20
-463.0
 30
0.0
  0
POINT
  5
421
330
412
100
AcDbEntity
  8
Defpoints
100
AcDbPoint
 10
2870.92
 20
-463.0
 30
0.0
  0
ENDBLK
  5
414
330
412
100
AcDbEntity
  8
0
100
AcDbBlockEnd
  0
BLOCK
  5
424
330
423
100
AcDbEntity
  8
0
100
AcDbBlockBegin
  2
*D8
 70
1
 10
0.0
 20
0.0
 30
0.0
  3
*D8
  1

  0
LINE
  5
426
330
423
100
AcDbEntity
  8
0
 62
2
100
AcDbLine
 10
2867.42
 20
-450.0
 30
0.0
 11
2939.0
 21
-450.0
 31
0.0
  0
LINE
  5
427
330
423
100
AcDbEntity
  8
0
 62
2
100
AcDbLine
 10
2867.42
 20
-463.0
 30
0.0
 11
2939.0
 21
-463.0
 31
0.0
  0
INSERT
  5
428
330
423
100
AcDbEntity
  8
CHECK
 62
2
100
AcDbBlockReference
  2
_CLOSEDFILLED
 10
2935.0
 20
-450.0
 30
0.0
 41
12.0
 42
12.0
 50
90.0
  0
INSERT
  5
42A
330
423
100
AcDbEntity
  8
CHECK
 62
2
100
AcDbBlockReference
  2
_CLOSEDFILLED
 10
2935.0
 20
-463.0
 30
0.0
 41
12.0
 42
12.0
 50
270.0
  0
LINE
  5
42C
330
423
100
AcDbEntity
  8
0
 62
2
100
AcDbLine
 10
2935.0
 20
-438.0
 30
0.0
 11
2935.0
 21
-426.0
 31
0.0
  0
LINE
  5
42D
330
423
100
AcDbEntity
  8
0
 62
2
100
AcDbLine
 10
2935.0
 20
-475.0
 30
0.0
 11
2935.0
 21
-487.0
 31
0.0
  0
LINE
  5
42E
330
423
100
AcDbEntity
  8
0
 62
2
100
AcDbLine
 10
2935.0
 20
-450.0
 30
0.0
 11
2935.0
 21
-463.0
 31
0.0
  0
MTEXT
  5
42F
330
423
100
AcDbEntity
  8
CHECK
 62
2
100
AcDbMText
 10
2949.625
 20
-456.5
 30
0.0
 40
20.0
 71
5
  1
13.00
  7
CHINESE
 50
90.0
  0
POINT
  5
430
330
423
100
AcDbEntity
  8
Defpoints
100
AcDbPoint
 10
2935.0
 20
-450.0
 30
0.0
  0
POINT
  5
431
330
423
100
AcDbEntity
  8
Defpoints
100
AcDbPoint
 10
2863.42
 20
-450.0
 30
0.0
  0
POINT
  5
432
330
423
100
AcDbEntity
  8
Defpoints
100
AcDbPoint
 10
2863.42
 20
-463.0
 30
0.0
  0
ENDBLK
  5
425
330
423
100
AcDbEntity
  8
0
100
AcDbBlockEnd
  0
BLOCK
  5
436
330
435
100
AcDbEntity
  8
0
100
AcDbBlockBegin
  2
*D9
 70
1
 10
0.0
 20
0.0
 30
0.0
  3
*D9
  1

  0
LINE
  5
438
330
435
100
AcDbEntity
  8
0
 62
2
100
AcDbLine
 10
2863.42
 20
-1540.0
 30
0.0
 11
2863.42
 21
-1584.0
 31
0.0
  0
LINE
  5
439
330
435
100
AcDbEntity
  8
0
 62
2
100
AcDbLine
 10
2870.92
 20
-1540.0
 30
0.0
 11
2870.92
 21
-1584.0
 31
0.0
  0
INSERT
  5
43A
330
435
100
AcDbEntity
  8
CHECK
 62
2
100
AcDbBlockReference
  2
_CLOSEDFILLED
 10
2863.42
 20
-1580.0
 30
0.0
 41
12.0
 42
12.0
  0
INSERT
  5
43C
330
435
100
AcDbEntity
  8
CHECK
 62
2
100
AcDbBlockReference
  2
_CLOSEDFILLED
 10
2870.92
 20
-1580.0
 30
0.0
 41
12.0
 42
12.0
 50
180.0
  0
LINE
  5
43E
330
435
100
AcDbEntity
  8
0
 62
2
100
AcDbLine
 10
2851.42
 20
-1580.0
 30
0.0
 11
2839.42
 21
-1580.0
 31
0.0
  0
LINE
  5
43F
330
435
100
AcDbEntity
  8
0
 62
2
100
AcDbLine
 10
2882.92
 20
-1580.0
 30
0.0
 11
2894.92
 21
-1580.0
 31
0.0
  0
LINE
  5
440
330
435
100
AcDbEntity
  8
0
 62
2
100
AcDbLine
 10
2863.42
 20
-1580.0
 30
0.0
 11
2870.92
 21
-1580.0
 31
0.0
  0
MTEXT
  5
441
330
435
100
AcDbEntity
  8
CHECK
 62
2
100
AcDbMText
 10
2867.17
 20
-1565.375
 30
0.0
 40
20.0
 71
5
  1
7.50
  7
CHINESE
  0
POINT
  5
442
330
435
100
AcDbEntity
  8
Defpoints
100
AcDbPoint
 10
2863.42
 20
-1580.0
 30
0.0
  0
POINT
  5
443
330
435
100
AcDbEntity
  8
Defpoints
100
AcDbPoint
 10
2863.42
 20
-1536.0
 30
0.0
  0
POINT
  5
444
330
435
100
AcDbEntity
  8
Defpoints
100
AcDbPoint
 10
2870.92
 20
-1536.0
 30
0.0
  0
ENDBLK
  5
437
330
435
100
AcDbEntity
  8
0
100
AcDbBlockEnd
  0
BLOCK
  5
447
330
446
100
AcDbEntity
  8
0
100
AcDbBlockBegin
  2
*D10
 70
1
 10
0.0
 20
0.0
 30
0.0
  3
*D10
  1

  0
LINE
  5
449
330
446
100
AcDbEntity
  8
0
 62
2
100
AcDbLine
 10
2867.42
 20
-1549.0
 30
0.0
 11
2939.0
 21
-1549.0
 31
0.0
  0
LINE
  5
44A
330
446
100
AcDbEntity
  8
0
 62
2
100
AcDbLine
 10
2867.42
 20
-1536.0
 30
0.0
 11
2939.0
 21
-1536.0
 31
0.0
  0
INSERT
  5
44B
330
446
100
AcDbEntity
  8
CHECK
 62
2
100
AcDbBlockReference
  2
_CLOSEDFILLED
 10
2935.0
 20
-1549.0
 30
0.0
 41
12.0
 42
12.0
 50
90.0
  0
INSERT
  5
44D
330
446
100
AcDbEntity
  8
CHECK
 62
2
100
AcDbBlockReference
  2
_CLOSEDFILLED
 10
2935.0
 20
-1536.0
 30
0.0
 41
12.0
 42
12.0
 50
270.0
  0
LINE
  5
44F
330
446
100
AcDbEntity
  8
0
 62
2
100
AcDbLine
 10
2935.0
 20
-1561.0
 30
0.0
 11
2935.0
 21
-1573.0
 31
0.0
  0
LINE
  5
450
330
446
100
AcDbEntity
  8
0
 62
2
100
AcDbLine
 10
2935.0
 20
-1524.0
 30
0.0
 11
2935.0
 21
-1512.0
 31
0.0
  0
LINE
  5
451
330
446
100
AcDbEntity
  8
0
 62
2
100
AcDbLine
 10
2935.0
 20
-1549.0
 30
0.0
 11
2935.0
 21
-1536.0
 31
0.0
  0
MTEXT
  5
452
330
446
100
AcDbEntity
  8
CHECK
 62
2
100
AcDbMText
 10
2920.375
 20
-1542.5
 30
0.0
 40
20.0
 71
5
  1
13.00
  7
CHINESE
 50
90.0
  0
POINT
  5
453
330
446
100
AcDbEntity
  8
Defpoints
100
AcDbPoint
 10
2935.0
 20
-1549.0
 30
0.0
  0
POINT
  5
454
330
446
100
AcDbEntity
  8
Defpoints
100
AcDbPoint
 10
2863.42
 20
-1549.0
 30
0.0
  0
POINT
  5
455
330
446
100
AcDbEntity
  8
Defpoints
100
AcDbPoint
 10
2863.42
 20
-1536.0
 30
0.0
  0
ENDBLK
  5
448
330
446
100
AcDbEntity
  8
0
100
AcDbBlockEnd
  0
ENDSEC
  0
SECTION
  2
ENTITIES
  0
LWPOLYLINE
  5
32
330
17
100
AcDbEntity
  8
CUTTING
 62
3
100
AcDbPolyline
 90
12
 70
1
 10
2870.92
 20
-450.0
 10
2155.92
 20
-450.0
 10
2155.92
 20
-469.0
 10
2138.92
 20
-469.0
 10
2138.92
 20
-1530.0
 10
2155.92
 20
-1530.0
 10
2155.92
 20
-1549.0
 10
2870.92
 20
-1549.0
 10
2870.92
 20
-1530.0
 10
2887.92
 20
-1530.0
 10
2887.92
 20
-469.0
 10
2870.92
 20
-469.0
  0
CIRCLE
  5
33
330
17
100
AcDbEntity
  8
MARKING
 62
211
100
AcDbCircle
 10
2810.92
 20
-1475.0
 30
0.0
 40
6.549999999999999
  0
CIRCLE
  5
34
330
17
100
AcDbEntity
  8
CUTTING
 62
3
100
AcDbCircle
 10
2877.92
 20
-499.0
 30
0.0
 40
3.1
  0
CIRCLE
  5
35
330
17
100
AcDbEntity
  8
CUTTING
 62
3
100
AcDbCircle
 10
2877.92
 20
-1500.0
 30
0.0
 40
3.1
  0
CIRCLE
  5
36
330
17
100
AcDbEntity
  8
CUTTING
 62
3
100
AcDbCircle
 10
2863.42
 20
-463.0
 30
0.0
 40
4.15
  0
CIRCLE
  5
37
330
17
100
AcDbEntity
  8
CUTTING
 62
3
100
AcDbCircle
 10
2583.42
 20
-510.0
 30
0.0
 40
1.6
  0
CIRCLE
  5
38
330
17
100
AcDbEntity
  8
CUTTING
 62
3
100
AcDbCircle
 10
2443.42
 20
-510.0
 30
0.0
 40
1.6
  0
CIRCLE
  5
39
330
17
100
AcDbEntity
  8
CUTTING
 62
3
100
AcDbCircle
 10
2863.42
 20
-1536.0
 30
0.0
 40
3.1
  0
CIRCLE
  5
3A
330
17
100
AcDbEntity
  8
CUTTING
 62
3
100
AcDbCircle
 10
2169.92
 20
-999.5
 30
0.0
 40
8.0
  0
LINE
  5
3B
330
17
100
AcDbEntity
  8
CUTTING
 62
3
100
AcDbLine
 10
2213.92
 20
-949.0
 30
0.0
 11
2213.92
 21
-954.0
 31
0.0
  0
LINE
  5
3C
330
17
100
AcDbEntity
  8
CUTTING
 62
3
100
AcDbLine
 10
2206.92
 20
-954.0
 30
0.0
 11
2206.92
 21
-949.0
 31
0.0
  0
LINE
  5
3D
330
17
100
AcDbEntity
  8
CUTTING
 62
3
100
AcDbLine
 10
2213.92
 20
-1051.0
 30
0.0
 11
2213.92
 21
-1046.0
 31
0.0
  0
LINE
  5
3E
330
17
100
AcDbEntity
  8
CUTTING
 62
3
100
AcDbLine
 10
2206.92
 20
-1046.0
 30
0.0
 11
2206.92
 21
-1051.0
 31
0.0
  0
LINE
  5
3F
330
17
100
AcDbEntity
  8
CUTTING
 62
3
100
AcDbLine
 10
2221.92
 20
-1046.0
 30
0.0
 11
2213.92
 21
-1046.0
 31
0.0
  0
LINE
  5
40
330
17
100
AcDbEntity
  8
CUTTING
 62
3
100
AcDbLine
 10
2213.92
 20
-954.0
 30
0.0
 11
2221.92
 21
-954.0
 31
0.0
  0
LINE
  5
41
330
17
100
AcDbEntity
  8
CUTTING
 62
3
100
AcDbLine
 10
2198.919999999999
 20
-954.0
 30
0.0
 11
2206.92
 21
-954.0
 31
0.0
  0
LINE
  5
42
330
17
100
AcDbEntity
  8
CUTTING
 62
3
100
AcDbLine
 10
2206.92
 20
-1046.0
 30
0.0
 11
2198.919999999999
 21
-1046.0
 31
0.0
  0
LINE
  5
43
330
17
100
AcDbEntity
  8
CUTTING
 62
3
100
AcDbLine
 10
2221.92
 20
-1000.0
 30
0.0
 11
2221.92
 21
-1046.0
 31
0.0
  0
LINE
  5
44
330
17
100
AcDbEntity
  8
CUTTING
 62
3
100
AcDbLine
 10
2221.92
 20
-954.0
 30
0.0
 11
2221.92
 21
-999.2499999999999
 31
0.0
  0
LINE
  5
45
330
17
100
AcDbEntity
  8
CUTTING
 62
3
100
AcDbLine
 10
2198.919999999999
 20
-999.2499999999999
 30
0.0
 11
2198.919999999999
 21
-954.0
 31
0.0
  0
LINE
  5
46
330
17
100
AcDbEntity
  8
CUTTING
 62
3
100
AcDbLine
 10
2198.919999999999
 20
-1046.0
 30
0.0
 11
2198.919999999999
 21
-1000.0
 31
0.0
  0
LINE
  5
47
330
17
100
AcDbEntity
  8
CUTTING
 62
3
100
AcDbLine
 10
2169.92
 20
-500.5
 30
0.0
 11
2165.92
 21
-500.5
 31
0.0
  0
LINE
  5
48
330
17
100
AcDbEntity
  8
CUTTING
 62
3
100
AcDbLine
 10
2165.92
 20
-509.5
 30
0.0
 11
2169.92
 21
-509.5
 31
0.0
  0
LINE
  5
49
330
17
100
AcDbEntity
  8
CUTTING
 62
3
100
AcDbLine
 10
2169.92
 20
-1489.5
 30
0.0
 11
2165.92
 21
-1489.5
 31
0.0
  0
LINE
  5
4A
330
17
100
AcDbEntity
  8
CUTTING
 62
3
100
AcDbLine
 10
2165.92
 20
-1498.5
 30
0.0
 11
2169.92
 21
-1498.5
 31
0.0
  0
ARC
  5
4B
330
17
100
AcDbEntity
  8
CUTTING
 62
3
100
AcDbCircle
 10
2210.42
 20
-1051.0
 30
0.0
 40
3.5
100
AcDbArc
 50
180.0
 51
0.0
  0
ARC
  5
4C
330
17
100
AcDbEntity
  8
CUTTING
 62
3
100
AcDbCircle
 10
2210.42
 20
-949.0
 30
0.0
 40
3.5
100
AcDbArc
 50
0.0
 51
180.0
  0
ARC
  5
4D
330
17
100
AcDbEntity
  8
CUTTING
 62
3
100
AcDbCircle
 10
2169.92
 20
-505.0
 30
0.0
 40
4.5
100
AcDbArc
 50
270.0
 51
90.0
  0
ARC
  5
4E
330
17
100
AcDbEntity
  8
CUTTING
 62
3
100
AcDbCircle
 10
2165.92
 20
-505.0
 30
0.0
 40
4.5
100
AcDbArc
 50
90.0
 51
270.0
  0
ARC
  5
4F
330
17
100
AcDbEntity
  8
CUTTING
 62
3
100
AcDbCircle
 10
2169.92
 20
-1494.0
 30
0.0
 40
4.5
100
AcDbArc
 50
270.0
 51
90.0
  0
ARC
  5
50
330
17
100
AcDbEntity
  8
CUTTING
 62
3
100
AcDbCircle
 10
2165.92
 20
-1494.0
 30
0.0
 40
4.5
100
AcDbArc
 50
90.0
 51
270.0
  0
DIMENSION
  5
3AF
330
17
100
AcDbEntity
  8
CHECK
 62
2
100
AcDbDimension
280
0
  2
*D1
  3
CHECK_STYLE
 10
2020.0
 20
-450.0
 30
0.0
 11
2030.625
 21
-999.5
 31
0.0
 70
32
 71
5
  1
<>
100
AcDbAlignedDimension
 13
2155.92
 23
-450.0
 33
0.0
 14
2155.92
 24
-1549.0
 34
0.0
 50
90.0
100
AcDbRotatedDimension
  0
DIMENSION
  5
3BE
330
17
100
AcDbEntity
  8
CHECK
 62
2
100
AcDbDimension
280
0
  2
*D2
  3
CHECK_STYLE
 10
2138.92
 20
-1670.0
 30
0.0
 11
2513.42
 21
-1659.375
 31
0.0
 70
32
 71
5
  1
<>
100
AcDbAlignedDimension
 13
2138.92
 23
-1530.0
 33
0.0
 14
2887.92
 24
-1530.0
 34
0.0
 50
0.0
100
AcDbRotatedDimension
  0
DIMENSION
  5
3CD
330
17
100
AcDbEntity
  8
CHECK
 62
2
100
AcDbDimension
280
0
  2
*D3
  3
CHECK_STYLE
 10
2138.92
 20
-420.0
 30
0.0
 11
2147.42
 21
-405.375
 31
0.0
 70
32
 71
5
  1
<>
100
AcDbAlignedDimension
 13
2138.92
 23
-469.0
 33
0.0
 14
2155.92
 24
-469.0
 34
0.0
 50
0.0
100
AcDbRotatedDimension
  0
DIMENSION
  5
3DE
330
17
100
AcDbEntity
  8
CHECK
 62
2
100
AcDbDimension
280
0
  2
*D4
  3
CHECK_STYLE
 10
2090.0
 20
-450.0
 30
0.0
 11
2104.625
 21
-459.5
 31
0.0
 70
32
 71
5
  1
<>
100
AcDbAlignedDimension
 13
2155.92
 23
-450.0
 33
0.0
 14
2155.92
 24
-469.0
 34
0.0
 50
90.0
100
AcDbRotatedDimension
  0
DIMENSION
  5
3EF
330
17
100
AcDbEntity
  8
CHECK
 62
2
100
AcDbDimension
280
0
  2
*D5
  3
CHECK_STYLE
 10
2138.92
 20
-1580.0
 30
0.0
 11
2147.42
 21
-1565.375
 31
0.0
 70
32
 71
5
  1
<>
100
AcDbAlignedDimension
 13
2138.92
 23
-1530.0
 33
0.0
 14
2155.92
 24
-1530.0
 34
0.0
 50
0.0
100
AcDbRotatedDimension
  0
DIMENSION
  5
400
330
17
100
AcDbEntity
  8
CHECK
 62
2
100
AcDbDimension
280
0
  2
*D6
  3
CHECK_STYLE
 10
2090.0
 20
-1530.0
 30
0.0
 11
2104.625
 21
-1539.5
 31
0.0
 70
32
 71
5
  1
<>
100
AcDbAlignedDimension
 13
2155.92
 23
-1530.0
 33
0.0
 14
2155.92
 24
-1549.0
 34
0.0
 50
90.0
100
AcDbRotatedDimension
  0
DIMENSION
  5
411
330
17
100
AcDbEntity
  8
CHECK
 62
2
100
AcDbDimension
280
0
  2
*D7
  3
CHECK_STYLE
 10
2863.42
 20
-420.0
 30
0.0
 11
2867.17
 21
-405.375
 31
0.0
 70
32
 71
5
  1
<>
100
AcDbAlignedDimension
 13
2863.42
 23
-463.0
 33
0.0
 14
2870.92
 24
-463.0
 34
0.0
 50
0.0
100
AcDbRotatedDimension
  0
DIMENSION
  5
422
330
17
100
AcDbEntity
  8
CHECK
 62
2
100
AcDbDimension
280
0
  2
*D8
  3
CHECK_STYLE
 10
2935.0
 20
-450.0
 30
0.0
 11
2949.625
 21
-456.5
 31
0.0
 70
32
 71
5
  1
<>
100
AcDbAlignedDimension
 13
2863.42
 23
-450.0
 33
0.0
 14
2863.42
 24
-463.0
 34
0.0
 50
90.0
100
AcDbRotatedDimension
  0
TEXT
  5
433
330
17
100
AcDbEntity
  8
CHECK
 62
2
100
AcDbText
 10
2800.0
 20
-468.0
 30
0.0
 40
18.0
  1
%%C8.3
 11
2800.0
 21
-468.0
 31
0.0
100
AcDbText
  0
DIMENSION
  5
434
330
17
100
AcDbEntity
  8
CHECK
 62
2
100
AcDbDimension
280
0
  2
*D9
  3
CHECK_STYLE
 10
2863.42
 20
-1580.0
 30
0.0
 11
2867.17
 21
-1565.375
 31
0.0
 70
32
 71
5
  1
<>
100
AcDbAlignedDimension
 13
2863.42
 23
-1536.0
 33
0.0
 14
2870.92
 24
-1536.0
 34
0.0
 50
0.0
100
AcDbRotatedDimension
  0
DIMENSION
  5
445
330
17
100
AcDbEntity
  8
CHECK
 62
2
100
AcDbDimension
280
0
  2
*D10
  3
CHECK_STYLE
 10
2935.0
 20
-1549.0
 30
0.0
 11
2920.375
 21
-1542.5
 31
0.0
 70
32
 71
5
  1
<>
100
AcDbAlignedDimension
 13
2863.42
 23
-1549.0
 33
0.0
 14
2863.42
 24
-1536.0
 34
0.0
 50
90.0
100
AcDbRotatedDimension
  0
TEXT
  5
456
330
17
100
AcDbEntity
  8
CHECK
 62
2
100
AcDbText
 10
2800.0
 20
-1541.0
 30
0.0
 40
18.0
  1
%%C6.2
 11
2800.0
 21
-1541.0
 31
0.0
100
AcDbText
  0
ENDSEC
  0
SECTION
  2
OBJECTS
  0
DICTIONARY
  5
A
330
0
100
AcDbDictionary
281
1
  3
ACAD_COLOR
350
B
  3
ACAD_GROUP
350
C
  3
ACAD_LAYOUT
350
D
  3
ACAD_MATERIAL
350
E
  3
ACAD_MLEADERSTYLE
350
F
  3
ACAD_MLINESTYLE
350
10
  3
ACAD_PLOTSETTINGS
350
11
  3
ACAD_PLOTSTYLENAME
350
12
  3
ACAD_SCALELIST
350
14
  3
ACAD_TABLESTYLE
350
15
  3
ACAD_VISUALSTYLE
350
16
  3
EZDXF_META
350
2D
  0
DICTIONARY
  5
B
330
A
100
AcDbDictionary
281
1
  0
DICTIONARY
  5
C
330
A
100
AcDbDictionary
281
1
  0
DICTIONARY
  5
D
330
A
100
AcDbDictionary
281
1
  3
Model
350
1A
  3
Layout1
350
1E
  0
DICTIONARY
  5
E
330
A
100
AcDbDictionary
281
1
  3
ByBlock
350
1F
  3
ByLayer
350
20
  3
Global
350
21
  0
DICTIONARY
  5
F
330
A
100
AcDbDictionary
281
1
  3
Standard
350
2C
  0
DICTIONARY
  5
10
330
A
100
AcDbDictionary
281
1
  3
Standard
350
22
  0
DICTIONARY
  5
11
330
A
100
AcDbDictionary
281
1
  0
ACDBDICTIONARYWDFLT
  5
12
330
A
100
AcDbDictionary
281
1
  3
Normal
350
13
100
AcDbDictionaryWithDefault
340
13
  0
ACDBPLACEHOLDER
  5
13
330
12
  0
DICTIONARY
  5
14
330
A
100
AcDbDictionary
281
1
  0
DICTIONARY
  5
15
330
A
100
AcDbDictionary
281
1
  0
DICTIONARY
  5
16
330
A
100
AcDbDictionary
281
1
  0
LAYOUT
  5
1A
330
D
100
AcDbPlotSettings
  1

  4
A3
  6

 40
7.5
 41
20.0
 42
7.5
 43
20.0
 44
420.0
 45
297.0
 46
0.0
 47
0.0
 48
0.0
 49
0.0
140
0.0
141
0.0
142
1.0
143
1.0
 70
1024
 72
1
 73
0
 74
5
  7

 75
16
 76
0
 77
2
 78
300
147
1.0
148
0.0
149
0.0
100
AcDbLayout
  1
Model
 70
1
 71
0
 10
0.0
 20
0.0
 11
420.0
 21
297.0
 12
0.0
 22
0.0
 32
0.0
 14
1e+20
 24
1e+20
 34
1e+20
 15
-1e+20
 25
-1e+20
 35
-1e+20
146
0.0
 13
0.0
 23
0.0
 33
0.0
 16
1.0
 26
0.0
 36
0.0
 17
0.0
 27
1.0
 37
0.0
 76
1
330
17
  0
LAYOUT
  5
1E
330
D
100
AcDbPlotSettings
  1

  4
A3
  6

 40
7.5
 41
20.0
 42
7.5
 43
20.0
 44
420.0
 45
297.0
 46
0.0
 47
0.0
 48
0.0
 49
0.0
140
0.0
141
0.0
142
1.0
143
1.0
 70
0
 72
1
 73
0
 74
5
  7

 75
16
 76
0
 77
2
 78
300
147
1.0
148
0.0
149
0.0
100
AcDbLayout
  1
Layout1
 70
1
 71
1
 10
0.0
 20
0.0
 11
420.0
 21
297.0
 12
0.0
 22
0.0
 32
0.0
 14
1e+20
 24
1e+20
 34
1e+20
 15
-1e+20
 25
-1e+20
 35
-1e+20
146
0.0
 13
0.0
 23
0.0
 33
0.0
 16
1.0
 26
0.0
 36
0.0
 17
0.0
 27
1.0
 37
0.0
 76
1
330
1B
  0
MATERIAL
  5
1F
102
{ACAD_REACTORS
330
E
102
}
330
E
100
AcDbMaterial
  1
ByBlock
  2

 70
0
 40
1.0
 71
1
 41
1.0
 91
-1023410177
 42
1.0
 72
1
  3

 73
1
 74
1
 75
1
 44
0.5
 73
0
 45
1.0
 46
1.0
 77
1
  4

 78
1
 79
1
170
1
 48
1.0
171
1
  6

172
1
173
1
174
1
140
1.0
141
1.0
175
1
  7

176
1
177
1
178
1
143
1.0
179
1
  8

270
1
271
1
272
1
145
1.0
146
1.0
273
1
  9

274
1
275
1
276
1
 42
1.0
 72
1
  3

 73
1
 74
1
 75
1
 94
63
  0
MATERIAL
  5
20
102
{ACAD_REACTORS
330
E
102
}
330
E
100
AcDbMaterial
  1
ByLayer
  2

 70
0
 40
1.0
 71
1
 41
1.0
 91
-1023410177
 42
1.0
 72
1
  3

 73
1
 74
1
 75
1
 44
0.5
 73
0
 45
1.0
 46
1.0
 77
1
  4

 78
1
 79
1
170
1
 48
1.0
171
1
  6

172
1
173
1
174
1
140
1.0
141
1.0
175
1
  7

176
1
177
1
178
1
143
1.0
179
1
  8

270
1
271
1
272
1
145
1.0
146
1.0
273
1
  9

274
1
275
1
276
1
 42
1.0
 72
1
  3

 73
1
 74
1
 75
1
 94
63
  0
MATERIAL
  5
21
102
{ACAD_REACTORS
330
E
102
}
330
E
100
AcDbMaterial
  1
Global
  2

 70
0
 40
1.0
 71
1
 41
1.0
 91
-1023410177
 42
1.0
 72
1
  3

 73
1
 74
1
 75
1
 44
0.5
 73
0
 45
1.0
 46
1.0
 77
1
  4

 78
1
 79
1
170
1
 48
1.0
171
1
  6

172
1
173
1
174
1
140
1.0
141
1.0
175
1
  7

176
1
177
1
178
1
143
1.0
179
1
  8

270
1
271
1
272
1
145
1.0
146
1.0
273
1
  9

274
1
275
1
276
1
 42
1.0
 72
1
  3

 73
1
 74
1
 75
1
 94
63
  0
MLINESTYLE
  5
22
102
{ACAD_REACTORS
330
10
102
}
330
10
100
AcDbMlineStyle
  2
Standard
 70
0
  3

 62
256
 51
90.0
 52
90.0
 71
2
 49
0.5
 62
256
  6
BYLAYER
 49
-0.5
 62
256
  6
BYLAYER
  0
MLEADERSTYLE
  5
2C
102
{ACAD_REACTORS
330
F
102
}
330
F
100
AcDbMLeaderStyle
179
2
170
2
171
1
172
0
 90
2
 40
0.0
 41
0.0
173
1
 91
-1056964608
 92
-2
290
1
 42
2.0
291
1
 43
8.0
  3
Standard
 44
4.0
300

342
29
174
1
175
1
176
0
178
1
 93
-1056964608
 45
4.0
292
0
297
0
 46
4.0
 94
-1056964608
 47
1.0
 49
1.0
140
1.0
294
1
141
0.0
177
0
142
1.0
295
0
296
0
143
3.75
271
0
272
9
273
9
  0
DICTIONARY
  5
2D
330
A
100
AcDbDictionary
280
1
281
1
  3
CREATED_BY_EZDXF
350
2E
  3
WRITTEN_BY_EZDXF
350
7A
  0
DICTIONARYVAR
  5
2E
330
2D
100
DictionaryVariables
280
0
  1
1.4.4 @ 2026-09-02T13:55:36.802486+00:00
  0
DICTIONARYVAR
  5
7A
330
2D
100
DictionaryVariables
280
0
  1
1.4.4 @ 2026-09-02T14:16:22.864786+00:00
  0
ENDSEC
  0
EOF
