0
SECTION
2
ENTITIES
0
LINE
8
0
10
4969.91
20
1478.86
30
0.0
11
4427.91
21
1478.86
31
0.0
0
LINE
8
0
10
4400.91
20
1636.86
30
0.0
11
4996.91
21
1636.86
31
0.0
0
LINE
8
0
10
4996.91
20
1636.86
30
0.0
11
4996.91
21
1538.86
31
0.0
0
LINE
8
0
10
4400.91
20
1544.86
30
0.0
11
4451.91
21
1544.86
31
0.0
0
LINE
8
0
10
4400.91
20
1544.86
30
0.0
11
4400.91
21
1636.86
31
0.0
0
LINE
8
0
10
4451.91
20
1537.86
30
0.0
11
4427.91
21
1537.86
31
0.0
0
LINE
8
0
10
4996.91
20
1538.86
30
0.0
11
4969.91
21
1538.86
31
0.0
0
LINE
8
0
10
4969.91
20
1538.86
30
0.0
11
4969.91
21
1478.86
31
0.0
0
LINE
8
0
10
4427.91
20
1478.86
30
0.0
11
4427.91
21
1537.86
31
0.0
0
LINE
8
0
10
4403.91
20
1629.86
30
0.0
11
4407.91
21
1629.86
31
0.0
0
LINE
8
0
10
4407.91
20
1629.86
30
0.0
11
4407.91
21
1633.86
31
0.0
0
LINE
8
0
10
4407.91
20
1633.86
30
0.0
11
4403.91
21
1633.86
31
0.0
0
LINE
8
0
10
4403.91
20
1633.86
30
0.0
11
4403.91
21
1629.86
31
0.0
0
CIRCLE
8
0
10
4848.91
20
1630.86
30
0.0
40
2.65
0
CIRCLE
8
0
10
4698.91
20
1630.86
30
0.0
40
2.65
0
CIRCLE
8
0
10
4548.91
20
1630.86
30
0.0
40
2.65
0
CIRCLE
8
0
10
4959.91
20
1487.86
30
0.0
40
3.2
0
CIRCLE
8
0
10
4959.91
20
1525.36
30
0.0
40
3.2
0
CIRCLE
8
0
10
4936.41
20
1607.36
30
0.0
40
3.2
0
ARC
8
0
10
4451.91
20
1541.36
30
0.0
40
3.5
50
270.0
51
90.0
0
ENDSEC
0
EOF
