  0
SECTION
  2
HEADER
  9
$ACADVER
  1
AC1032
  9
$ACADMAINTVER
 90
4
  9
$DWGCODEPAGE
  3
ANSI_950
  9
$LASTSAVEDBY
  1
looae
  9
$REQUIREDVERSIONS
160
0
  9
$INSBASE
 10
0.0
 20
0.0
 30
0.0
  9
$EXTMIN
 10
-25.71666666658775
 20
-1981.500000000817
 30
0.0
  9
$EXTMAX
 10
568.2533333333337
 20
-1468.059999995094
 30
2.0
  9
$LIMMIN
 10
0.0
 20
0.0
  9
$LIMMAX
 10
12.0
 20
9.0
  9
$ORTHOMODE
 70
0
  9
$REGENMODE
 70
1
  9
$FILLMODE
 70
1
  9
$QTEXTMODE
 70
0
  9
$MIRRTEXT
 70
1
  9
$LTSCALE
 40
1.0
  9
$ATTMODE
 70
1
  9
$TEXTSIZE
 40
0.2
  9
$TRACEWID
 40
0.05
  9
$TEXTSTYLE
  7
STANDARD
  9
$CLAYER
  8
0
  9
$CELTYPE
  6
ByLayer
  9
$CECOLOR
 62
256
  9
$CELTSCALE
 40
1.0
  9
$DISPSILH
 70
0
  9
$DIMSCALE
 40
10.0
  9
$DIMASZ
 40
0.18
  9
$DIMEXO
 40
0.0625
  9
$DIMDLI
 40
0.38
  9
$DIMRND
 40
0.0
  9
$DIMDLE
 40
0.0
  9
$DIMEXE
 40
0.18
  9
$DIMTP
 40
0.0
  9
$DIMTM
 40
0.0
  9
$DIMTXT
 40
0.18
  9
$DIMCEN
 40
0.09
  9
$DIMTSZ
 40
0.0
  9
$DIMTOL
 70
0
  9
$DIMLIM
 70
0
  9
$DIMTIH
 70
1
  9
$DIMTOH
 70
1
  9
$DIMSE1
 70
0
  9
$DIMSE2
 70
0
  9
$DIMTAD
 70
0
  9
$DIMZIN
 70
0
  9
$DIMBLK
  1

  9
$DIMASO
 70
1
  9
$DIMSHO
 70
1
  9
$DIMPOST
  1

  9
$DIMAPOST
  1

  9
$DIMALT
 70
0
  9
$DIMALTD
 70
2
  9
$DIMALTF
 40
25.4
  9
$DIMLFAC
 40
1.0
  9
$DIMTOFL
 70
0
  9
$DIMTVP
 40
0.0
  9
$DIMTIX
 70
0
  9
$DIMSOXD
 70
0
  9
$DIMSAH
 70
0
  9
$DIMBLK1
  1

  9
$DIMBLK2
  1

  9
$DIMSTYLE
  2
STANDARD
  9
$DIMCLRD
 70
0
  9
$DIMCLRE
 70
0
  9
$DIMCLRT
 70
0
  9
$DIMTFAC
 40
1.0
  9
$DIMGAP
 40
0.09
  9
$DIMJUST
 70
0
  9
$DIMSD1
 70
0
  9
$DIMSD2
 70
0
  9
$DIMTOLJ
 70
1
  9
$DIMTZIN
 70
0
  9
$DIMALTZ
 70
0
  9
$DIMALTTZ
 70
0
  9
$DIMUPT
 70
0
  9
$DIMDEC
 70
4
  9
$DIMTDEC
 70
4
  9
$DIMALTU
 70
2
  9
$DIMALTTD
 70
2
  9
$DIMTXSTY
  7
STANDARD
  9
$DIMAUNIT
 70
0
  9
$DIMADEC
 70
0
  9
$DIMALTRND
 40
0.0
  9
$DIMAZIN
 70
0
  9
$DIMDSEP
 70
46
  9
$DIMATFIT
 70
3
  9
$DIMFRAC
 70
0
  9
$DIMLDRBLK
  1

  9
$DIMLUNIT
 70
2
  9
$DIMLWD
 70
-2
  9
$DIMLWE
 70
-2
  9
$DIMTMOVE
 70
0
  9
$DIMFXL
 40
1.0
  9
$DIMFXLON
 70
0
  9
$DIMJOGANG
 40
0.7853981633974483
  9
$DIMTFILL
 70
0
  9
$DIMTFILLCLR
 70
0
  9
$DIMARCSYM
 70
0
  9
$DIMLTYPE
  6

  9
$DIMLTEX1
  6

  9
$DIMLTEX2
  6

  9
$DIMTXTDIRECTION
 70
0
  9
$LUNITS
 70
2
  9
$LUPREC
 70
4
  9
$SKETCHINC
 40
0.1
  9
$FILLETRAD
 40
0.5
  9
$AUNITS
 70
0
  9
$AUPREC
 70
0
  9
$MENU
  1
.
  9
$ELEVATION
 40
0.0
  9
$PELEVATION
 40
0.0
  9
$THICKNESS
 40
2.0
  9
$LIMCHECK
 70
0
  9
$CHAMFERA
 40
0.0
  9
$CHAMFERB
 40
0.0
  9
$CHAMFERC
 40
0.0
  9
$CHAMFERD
 40
0.0
  9
$SKPOLY
 70
0
  9
$TDCREATE
 40
2461275.7979282406
  9
$TDUCREATE
 40
2461207.682395833
  9
$TDUPDATE
 40
2461275.7979282406
  9
$TDUUPDATE
 40
2461221.59849537
  9
$TDINDWG
 40
0.0364930671
  9
$TDUSRTIMER
 40
0.0364930671
  9
$USRTIMER
 70
1
  9
$ANGBASE
 50
0.0
  9
$ANGDIR
 70
0
  9
$PDMODE
 70
35
  9
$PDSIZE
 40
0.0
  9
$PLINEWID
 40
0.0
  9
$SPLFRAME
 70
0
  9
$SPLINETYPE
 70
6
  9
$SPLINESEGS
 70
8
  9
$HANDSEED
  5
FBB
  9
$SURFTAB1
 70
6
  9
$SURFTAB2
 70
6
  9
$SURFTYPE
 70
6
  9
$SURFU
 70
6
  9
$SURFV
 70
6
  9
$UCSBASE
  2

  9
$UCSNAME
  2

  9
$UCSORG
 10
0.0
 20
0.0
 30
0.0
  9
$UCSXDIR
 10
1.0
 20
0.0
 30
0.0
  9
$UCSYDIR
 10
0.0
 20
1.0
 30
0.0
  9
$UCSORTHOREF
  2

  9
$UCSORTHOVIEW
 70
0
  9
$UCSORGTOP
 10
0.0
 20
0.0
 30
0.0
  9
$UCSORGBOTTOM
 10
0.0
 20
0.0
 30
0.0
  9
$UCSORGLEFT
 10
0.0
 20
0.0
 30
0.0
  9
$UCSORGRIGHT
 10
0.0
 20
0.0
 30
0.0
  9
$UCSORGFRONT
 10
0.0
 20
0.0
 30
0.0
  9
$UCSORGBACK
 10
0.0
 20
0.0
 30
0.0
  9
$PUCSBASE
  2

  9
$PUCSNAME
  2

  9
$PUCSORG
 10
0.0
 20
0.0
 30
0.0
  9
$PUCSXDIR
 10
1.0
 20
0.0
 30
0.0
  9
$PUCSYDIR
 10
0.0
 20
1.0
 30
0.0
  9
$PUCSORTHOREF
  2

  9
$PUCSORTHOVIEW
 70
0
  9
$PUCSORGTOP
 10
0.0
 20
0.0
 30
0.0
  9
$PUCSORGBOTTOM
 10
0.0
 20
0.0
 30
0.0
  9
$PUCSORGLEFT
 10
0.0
 20
0.0
 30
0.0
  9
$PUCSORGRIGHT
 10
0.0
 20
0.0
 30
0.0
  9
$PUCSORGFRONT
 10
0.0
 20
0.0
 30
0.0
  9
$PUCSORGBACK
 10
0.0
 20
0.0
 30
0.0
  9
$USERI1
 70
0
  9
$USERI2
 70
0
  9
$USERI3
 70
0
  9
$USERI4
 70
0
  9
$USERI5
 70
0
  9
$USERR1
 40
0.0
  9
$USERR2
 40
0.0
  9
$USERR3
 40
0.0
  9
$USERR4
 40
0.0
  9
$USERR5
 40
0.0
  9
$WORLDVIEW
 70
1
  9
$SHADEDGE
 70
3
  9
$SHADEDIF
 70
70
  9
$TILEMODE
 70
1
  9
$MAXACTVP
 70
64
  9
$PINSBASE
 10
0.0
 20
0.0
 30
0.0
  9
$PLIMCHECK
 70
0
  9
$PEXTMIN
 10
1e+20
 20
1e+20
 30
1e+20
  9
$PEXTMAX
 10
-1e+20
 20
-1e+20
 30
-1e+20
  9
$PLIMMIN
 10
0.0
 20
0.0
  9
$PLIMMAX
 10
12.0
 20
9.0
  9
$UNITMODE
 70
0
  9
$VISRETAIN
 70
1
  9
$PLINEGEN
 70
0
  9
$PSLTSCALE
 70
1
  9
$TREEDEPTH
 70
3020
  9
$CMLSTYLE
  2
Standard
  9
$CMLJUST
 70
0
  9
$CMLSCALE
 40
1.0
  9
$PROXYGRAPHICS
 70
1
  9
$MEASUREMENT
 70
0
  9
$CELWEIGHT
370
-1
  9
$ENDCAPS
280
0
  9
$JOINSTYLE
280
0
  9
$LWDISPLAY
290
0
  9
$INSUNITS
 70
0
  9
$HYPERLINKBASE
  1

  9
$STYLESHEET
  1

  9
$XEDIT
290
1
  9
$CEPSNTYPE
380
0
  9
$PSTYLEMODE
290
1
  9
$FINGERPRINTGUID
  2
{13BFF582-A3C8-B84C-B54C-07D5912DC628}
  9
$VERSIONGUID
  2
{CB9BAB66-E4B1-42BE-85FD-478E97D60BE2}
  9
$EXTNAMES
290
1
  9
$PSVPSCALE
 40
0.0
  9
$OLESTARTUP
290
0
  9
$SORTENTS
280
127
  9
$INDEXCTL
280
0
  9
$HIDETEXT
280
1
  9
$XCLIPFRAME
280
2
  9
$HALOGAP
280
0
  9
$OBSCOLOR
 70
257
  9
$OBSLTYPE
280
0
  9
$INTERSECTIONDISPLAY
280
0
  9
$INTERSECTIONCOLOR
 70
257
  9
$DIMASSOC
280
1
  9
$PROJECTNAME
  1

  9
$CAMERADISPLAY
290
0
  9
$LENSLENGTH
 40
50.0
  9
$CAMERAHEIGHT
 40
0.0
  9
$STEPSPERSEC
 40
2.0
  9
$STEPSIZE
 40
6.0
  9
$3DDWFPREC
 40
2.0
  9
$PSOLWIDTH
 40
0.25
  9
$PSOLHEIGHT
 40
4.0
  9
$LOFTANG1
 40
1.570796326794896
  9
$LOFTANG2
 40
1.570796326794896
  9
$LOFTMAG1
 40
0.0
  9
$LOFTMAG2
 40
0.0
  9
$LOFTPARAM
 70
7
  9
$LOFTNORMALS
280
1
  9
$LATITUDE
 40
37.795
  9
$LONGITUDE
 40
-122.394
  9
$NORTHDIRECTION
 40
0.0
  9
$TIMEZONE
 70
-8000
  9
$LIGHTGLYPHDISPLAY
280
1
  9
$TILEMODELIGHTSYNCH
280
1
  9
$CMATERIAL
347
33
  9
$SOLIDHIST
280
0
  9
$SHOWHIST
280
1
  9
$DWFFRAME
280
2
  9
$DGNFRAME
280
0
  9
$REALWORLDSCALE
290
1
  9
$INTERFERECOLOR
 62
1
  9
$INTERFEREOBJVS
345
54
  9
$INTERFEREVPVS
346
55
  9
$CSHADOW
280
0
  9
$SHADOWPLANELOCATION
 40
0.0
  0
ENDSEC
  0
SECTION
  2
CLASSES
  0
CLASS
  1
ACDBDICTIONARYWDFLT
  2
AcDbDictionaryWithDefault
  3
ObjectDBX Classes
 90
0
 91
1
280
0
281
0
  0
CLASS
  1
MATERIAL
  2
AcDbMaterial
  3
ObjectDBX Classes
 90
1153
 91
3
280
0
281
0
  0
CLASS
  1
VISUALSTYLE
  2
AcDbVisualStyle
  3
ObjectDBX Classes
 90
4095
 91
24
280
0
281
0
  0
CLASS
  1
SCALE
  2
AcDbScale
  3
ObjectDBX Classes
 90
1153
 91
17
280
0
281
0
  0
CLASS
  1
TABLESTYLE
  2
AcDbTableStyle
  3
ObjectDBX Classes
 90
4095
 91
1
280
0
281
0
  0
CLASS
  1
MLEADERSTYLE
  2
AcDbMLeaderStyle
  3
ACDB_MLEADERSTYLE_CLASS
 90
4095
 91
1
280
0
281
0
  0
CLASS
  1
ACDBSECTIONVIEWSTYLE
  2
AcDbSectionViewStyle
  3
ObjectDBX Classes
 90
1025
 91
1
280
0
281
0
  0
CLASS
  1
ACDBDETAILVIEWSTYLE
  2
AcDbDetailViewStyle
  3
ObjectDBX Classes
 90
1025
 91
1
280
0
281
0
  0
CLASS
  1
DICTIONARYVAR
  2
AcDbDictionaryVar
  3
ObjectDBX Classes
 90
0
 91
10
280
0
281
0
  0
CLASS
  1
CELLSTYLEMAP
  2
AcDbCellStyleMap
  3
ObjectDBX Classes
 90
1152
 91
2
280
0
281
0
  0
CLASS
  1
SORTENTSTABLE
  2
AcDbSortentsTable
  3
ObjectDBX Classes
 90
0
 91
1
280
0
281
0
  0
CLASS
  1
SUN
  2
AcDbSun
  3
SCENEOE
 90
1153
 91
0
280
0
281
0
  0
CLASS
  1
MENTALRAYRENDERSETTINGS
  2
AcDbMentalRayRenderSettings
  3
SCENEOE
 90
1024
 91
0
280
0
281
0
  0
CLASS
  1
RASTERVARIABLES
  2
AcDbRasterVariables
  3
ISM
 90
0
 91
0
280
0
281
0
  0
CLASS
  1
ACDBPLACEHOLDER
  2
AcDbPlaceHolder
  3
ObjectDBX Classes
 90
0
 91
0
280
0
281
0
  0
CLASS
  1
LAYOUT
  2
AcDbLayout
  3
ObjectDBX Classes
 90
0
 91
0
280
0
281
0
  0
ENDSEC
  0
SECTION
  2
TABLES
  0
TABLE
  2
VPORT
  5
26
330
0
100
AcDbSymbolTable
 70
1
  0
VPORT
  5
27
330
26
100
AcDbSymbolTableRecord
100
AcDbViewportTableRecord
  2
*ACTIVE
 70
0
 10
0.0
 20
0.0
 11
1.0
 21
1.0
 12
235.0343409878469
 22
-1682.532681593228
 13
0.0
 23
0.0
 14
0.5
 24
0.5
 15
0.5
 25
0.5
 16
0.0
 26
0.0
 36
1.0
 17
0.0
 27
0.0
 37
0.0
 40
748.2685425614841
 41
2.641483516483516
 42
50.0
 43
0.0
 44
0.0
 50
0.0
 51
0.0
 71
0
 72
100
 73
1
 74
3
 75
0
 76
0
 77
0
 78
0
281
0
 65
1
110
0.0
120
0.0
130
0.0
111
1.0
121
0.0
131
0.0
112
0.0
122
1.0
132
0.0
 79
0
146
0.0
 60
3
 61
5
348
28
292
1
282
0
141
0.0
142
0.0
 63
250
421
3355443
1001
ACAD_NAV_VCDISPLAY
1070
3
  0
ENDTAB
  0
TABLE
  2
LTYPE
  5
21
330
0
100
AcDbSymbolTable
 70
3
  0
LTYPE
  5
22
330
21
100
AcDbSymbolTableRecord
100
AcDbLinetypeTableRecord
  2
ByBlock
 70
0
  3

 72
65
 73
0
 40
0.0
  0
LTYPE
  5
23
330
21
100
AcDbSymbolTableRecord
100
AcDbLinetypeTableRecord
  2
ByLayer
 70
0
  3

 72
65
 73
0
 40
0.0
  0
LTYPE
  5
13
330
21
100
AcDbSymbolTableRecord
100
AcDbLinetypeTableRecord
  2
CONTINUOUS
 70
0
  3
Solid line
 72
65
 73
0
 40
0.0
  0
ENDTAB
  0
TABLE
  2
LAYER
  5
1B
102
{ACAD_XDICTIONARY
360
1C
102
}
330
0
100
AcDbSymbolTable
 70
5
  0
LAYER
  5
4
102
{ACAD_XDICTIONARY
360
5
102
}
330
1B
100
AcDbSymbolTableRecord
100
AcDbLayerTableRecord
  2
0
 70
0
 62
7
  6
CONTINUOUS
370
-3
390
7
347
A
348
0
  0
LAYER
  5
74
330
1B
100
AcDbSymbolTableRecord
100
AcDbLayerTableRecord
  2
DEFPOINTS
 70
0
 62
7
  6
CONTINUOUS
290
0
370
-3
390
7
347
A
348
0
  0
LAYER
  5
FB0
330
1B
100
AcDbSymbolTableRecord
100
AcDbLayerTableRecord
  2
CUTTING
 70
0
 62
3
  6
Continuous
370
-3
390
7
347
A
  0
LAYER
  5
FB1
330
1B
100
AcDbSymbolTableRecord
100
AcDbLayerTableRecord
  2
BEND
 70
0
 62
5
  6
Continuous
370
-3
390
7
347
A
  0
LAYER
  5
FB2
330
1B
100
AcDbSymbolTableRecord
100
AcDbLayerTableRecord
  2
MARKING
 70
0
 62
211
  6
Continuous
370
-3
390
7
347
A
  0
ENDTAB
  0
TABLE
  2
STYLE
  5
1E
330
0
100
AcDbSymbolTable
 70
1
  0
STYLE
  5
1F
330
1E
100
AcDbSymbolTableRecord
100
AcDbTextStyleTableRecord
  2
STANDARD
 70
0
 40
0.0
 41
1.0
 50
0.0
 71
0
 42
0.2
  3
txt
  4

  0
ENDTAB
  0
TABLE
  2
VIEW
  5
24
330
0
100
AcDbSymbolTable
 70
0
  0
ENDTAB
  0
TABLE
  2
UCS
  5
25
330
0
100
AcDbSymbolTable
 70
0
  0
ENDTAB
  0
TABLE
  2
APPID
  5
2B
330
0
100
AcDbSymbolTable
 70
5
  0
APPID
  5
2C
330
2B
100
AcDbSymbolTableRecord
100
AcDbRegAppTableRecord
  2
ACAD
 70
0
  0
APPID
  5
2A
330
2B
100
AcDbSymbolTableRecord
100
AcDbRegAppTableRecord
  2
ACAD_NAV_VCDISPLAY
 70
0
  0
APPID
  5
15B
330
2B
100
AcDbSymbolTableRecord
100
AcDbRegAppTableRecord
  2
ACAD_EXEMPT_FROM_CAD_STANDARDS
 70
0
  0
APPID
  5
FB7
330
2B
100
AcDbSymbolTableRecord
100
AcDbRegAppTableRecord
  2
HATCHBACKGROUNDCOLOR
 70
0
  0
APPID
  5
FB8
330
2B
100
AcDbSymbolTableRecord
100
AcDbRegAppTableRecord
  2
EZDXF
 70
0
  0
ENDTAB
  0
TABLE
  2
DIMSTYLE
  5
2D
330
0
100
AcDbSymbolTable
 70
1
100
AcDbDimStyleTable
  0
DIMSTYLE
105
2E
330
2D
100
AcDbSymbolTableRecord
100
AcDbDimStyleTableRecord
  2
STANDARD
 70
0
 40
1.0
 41
2.5
 42
0.625
 43
3.75
 44
1.25
 45
0.0
 46
0.0
 47
0.0
 48
0.0
 49
2.5
140
2.5
141
2.5
142
0.0
143
0.03937007874
144
1.0
145
0.0
146
1.0
147
0.625
148
0.0
 69
0
 70
0
 71
0
 72
0
 73
0
 74
0
 75
0
 76
0
 77
1
 78
8
 79
3
170
0
171
3
172
1
173
0
174
0
175
0
176
0
177
0
178
0
179
2
271
2
272
2
273
2
274
3
275
0
276
0
277
2
278
44
279
2
280
0
281
0
282
0
283
0
284
8
285
0
286
0
288
0
289
3
290
0
340
1F
371
-2
372
-2
  0
ENDTAB
  0
TABLE
  2
BLOCK_RECORD
  5
1
330
0
100
AcDbSymbolTable
 70
11
  0
BLOCK_RECORD
  5
2
102
{ACAD_XDICTIONARY
360
F1F
102
}
330
1
100
AcDbSymbolTableRecord
100
AcDbBlockTableRecord
  2
*Model_Space
340
15
 70
0
280
1
281
0
  0
BLOCK_RECORD
  5
17
330
1
100
AcDbSymbolTableRecord
100
AcDbBlockTableRecord
  2
*Paper_Space
340
1A
 70
0
280
1
281
0
  0
BLOCK_RECORD
  5
B2
330
1
100
AcDbSymbolTableRecord
100
AcDbBlockTableRecord
  2
*D0
340
0
 70
0
280
1
281
0
  0
BLOCK_RECORD
  5
A4
330
1
100
AcDbSymbolTableRecord
100
AcDbBlockTableRecord
  2
*D1
340
0
 70
0
280
1
281
0
  0
BLOCK_RECORD
  5
96
330
1
100
AcDbSymbolTableRecord
100
AcDbBlockTableRecord
  2
*D2
340
0
 70
0
280
1
281
0
  0
BLOCK_RECORD
  5
88
330
1
100
AcDbSymbolTableRecord
100
AcDbBlockTableRecord
  2
*D3
340
0
 70
0
280
1
281
0
  0
BLOCK_RECORD
  5
79
330
1
100
AcDbSymbolTableRecord
100
AcDbBlockTableRecord
  2
*D4
340
0
 70
0
280
1
281
0
  0
BLOCK_RECORD
  5
68
330
1
100
AcDbSymbolTableRecord
100
AcDbBlockTableRecord
  2
*D5
340
0
 70
0
280
1
281
0
  0
BLOCK_RECORD
  5
F49
330
1
100
AcDbSymbolTableRecord
100
AcDbBlockTableRecord
  2
*D7
340
0
 70
0
280
1
281
0
  0
BLOCK_RECORD
  5
F56
330
1
100
AcDbSymbolTableRecord
100
AcDbBlockTableRecord
  2
*D8
340
0
 70
0
280
1
281
0
  0
BLOCK_RECORD
  5
F62
330
1
100
AcDbSymbolTableRecord
100
AcDbBlockTableRecord
  2
*D9
340
0
 70
0
280
1
281
0
  0
ENDTAB
  0
ENDSEC
  0
SECTION
  2
BLOCKS
  0
BLOCK
  5
3
330
2
100
AcDbEntity
  8
0
100
AcDbBlockBegin
  2
*Model_Space
 70
0
 10
0.0
 20
0.0
 30
0.0
  3
*Model_Space
  1

  0
ENDBLK
  5
14
330
2
100
AcDbEntity
  8
0
100
AcDbBlockEnd
  0
BLOCK
  5
18
330
17
100
AcDbEntity
 67
1
  8
0
100
AcDbBlockBegin
  2
*Paper_Space
 70
0
 10
0.0
 20
0.0
 30
0.0
  3
*Paper_Space
  1

  0
ENDBLK
  5
19
330
17
100
AcDbEntity
 67
1
  8
0
100
AcDbBlockEnd
  0
BLOCK
  5
B3
330
B2
100
AcDbEntity
  8
0
100
AcDbBlockBegin
  2
*D0
 70
1
 10
0.0
 20
0.0
 30
0.0
  3
*D0
  1

  0
LINE
  5
B4
330
B2
100
AcDbEntity
  8
0
 62
0
440
16777216
100
AcDbLine
 10
-0.05
 20
-1485.9975
 30
0.0
 11
-0.0500000000000114
 21
-1329.7642
 31
0.0
  0
LINE
  5
B5
330
B2
100
AcDbEntity
  8
0
 62
0
440
16777216
100
AcDbLine
 10
464.9499999999998
 20
-1485.9975
 30
0.0
 11
464.9499999999998
 21
-1329.7642
 31
0.0
  0
LINE
  5
B6
330
B2
100
AcDbEntity
  8
0
 62
0
440
16777216
100
AcDbLine
 10
2.949999999999988
 20
-1329.9442
 30
0.0
 11
168.67
 21
-1329.9442
 31
0.0
  0
LINE
  5
B7
330
B2
100
AcDbEntity
  8
0
 62
0
440
16777216
100
AcDbLine
 10
461.95
 20
-1329.9442
 30
0.0
 11
296.2299999999999
 21
-1329.9442
 31
0.0
  0
SOLID
  5
B8
330
B2
100
AcDbEntity
  8
0
 62
0
440
16777216
100
AcDbTrace
 10
2.949999999999988
 20
-1329.4442
 30
0.0
 11
2.949999999999988
 21
-1330.4442
 31
0.0
 12
-0.0500000000000114
 22
-1329.9442
 32
0.0
 13
-0.0500000000000114
 23
-1329.9442
 33
0.0
  0
SOLID
  5
B9
330
B2
100
AcDbEntity
  8
0
 62
0
440
16777216
100
AcDbTrace
 10
461.95
 20
-1330.4442
 30
0.0
 11
461.95
 21
-1329.4442
 31
0.0
 12
464.9499999999998
 22
-1329.9442
 32
0.0
 13
464.9499999999998
 23
-1329.9442
 33
0.0
  0
TEXT
  5
BA
330
B2
100
AcDbEntity
  8
0
  6
Continuous
 62
0
440
16777216
100
AcDbText
 10
165.88
 20
-1339.8442
 30
0.0
 40
20.0
  1
465.0000
100
AcDbText
  0
POINT
  5
BB
330
B2
100
AcDbEntity
  8
DEFPOINTS
 62
0
440
16777216
100
AcDbPoint
 10
-0.05
 20
-1486.06
 30
0.0
  0
POINT
  5
BC
330
B2
100
AcDbEntity
  8
DEFPOINTS
 62
0
440
16777216
100
AcDbPoint
 10
464.9499999999998
 20
-1486.06
 30
0.0
  0
POINT
  5
BD
330
B2
100
AcDbEntity
  8
DEFPOINTS
 62
0
440
16777216
100
AcDbPoint
 10
464.9499999999998
 20
-1329.9442
 30
0.0
  0
ENDBLK
  5
BE
330
B2
100
AcDbEntity
  8
0
100
AcDbBlockEnd
  0
BLOCK
  5
A5
330
A4
100
AcDbEntity
  8
0
100
AcDbBlockBegin
  2
*D1
 70
1
 10
0.0
 20
0.0
 30
0.0
  3
*D1
  1

  0
LINE
  5
A6
330
A4
100
AcDbEntity
  8
0
 62
0
440
16777216
100
AcDbLine
 10
15.8875
 20
-1468.059999999997
 30
0.0
 11
-76.99560000000002
 21
-1468.059999995827
 31
0.0
  0
LINE
  5
A7
330
A4
100
AcDbEntity
  8
0
 62
0
440
16777216
100
AcDbLine
 10
15.8875
 20
-1979.059999999997
 30
0.0
 11
-76.99560002294217
 21
-1979.059999995827
 31
0.0
  0
LINE
  5
A8
330
A4
100
AcDbEntity
  8
0
 62
0
440
16777216
100
AcDbLine
 10
-76.81560000013471
 20
-1471.059999995835
 30
0.0
 11
-76.81560001100866
 21
-1713.259999995835
 31
0.0
  0
LINE
  5
A9
330
A4
100
AcDbEntity
  8
0
 62
0
440
16777216
100
AcDbLine
 10
-76.81560002280746
 20
-1976.059999995834
 30
0.0
 11
-76.81560001193351
 21
-1733.859999995835
 31
0.0
  0
SOLID
  5
AA
330
A4
100
AcDbEntity
  8
0
 62
0
440
16777216
100
AcDbTrace
 10
-76.31560000013471
 20
-1471.059999995858
 30
0.0
 11
-77.3156000001347
 21
-1471.059999995813
 31
0.0
 12
-76.8156
 22
-1468.059999995835
 32
0.0
 13
-76.8156
 23
-1468.059999995835
 33
0.0
  0
SOLID
  5
AB
330
A4
100
AcDbEntity
  8
0
 62
0
440
16777216
100
AcDbTrace
 10
-77.31560002280746
 20
-1976.059999995813
 30
0.0
 11
-76.31560002280746
 21
-1976.059999995858
 31
0.0
 12
-76.81560002294215
 22
-1979.059999995835
 32
0.0
 13
-76.81560002294215
 23
-1979.059999995835
 33
0.0
  0
TEXT
  5
AC
330
A4
100
AcDbEntity
  8
0
  6
Continuous
 62
0
440
16777216
100
AcDbText
 10
-136.8456000114711
 20
-1733.459999995835
 30
0.0
 40
20.0
  1
511.0000
100
AcDbText
  0
POINT
  5
AD
330
A4
100
AcDbEntity
  8
DEFPOINTS
 62
0
440
16777216
100
AcDbPoint
 10
15.95
 20
-1468.06
 30
0.0
  0
POINT
  5
AE
330
A4
100
AcDbEntity
  8
DEFPOINTS
 62
0
440
16777216
100
AcDbPoint
 10
15.95
 20
-1979.06
 30
0.0
  0
POINT
  5
AF
330
A4
100
AcDbEntity
  8
DEFPOINTS
 62
0
440
16777216
100
AcDbPoint
 10
-76.81560002294215
 20
-1979.059999995835
 30
0.0
  0
ENDBLK
  5
B0
330
A4
100
AcDbEntity
  8
0
100
AcDbBlockEnd
  0
BLOCK
  5
97
330
96
100
AcDbEntity
  8
0
100
AcDbBlockBegin
  2
*D2
 70
1
 10
0.0
 20
0.0
 30
0.0
  3
*D2
  1

  0
LINE
  5
98
330
96
100
AcDbEntity
  8
0
 62
0
440
16777216
100
AcDbLine
 10
404.95
 20
-1677.4975
 30
0.0
 11
404.95
 21
-1659.46285
 31
0.0
  0
LINE
  5
99
330
96
100
AcDbEntity
  8
0
 62
0
440
16777216
100
AcDbLine
 10
464.9499999999998
 20
-1486.1225
 30
0.0
 11
464.9499999999998
 21
-1659.82285
 31
0.0
  0
LINE
  5
9A
330
96
100
AcDbEntity
  8
0
 62
0
440
16777216
100
AcDbLine
 10
464.9499999999998
 20
-1659.64285
 30
0.0
 11
467.9499999999999
 21
-1659.64285
 31
0.0
  0
LINE
  5
9B
330
96
100
AcDbEntity
  8
0
 62
0
440
16777216
100
AcDbLine
 10
407.95
 20
-1659.64285
 30
0.0
 11
461.95
 21
-1659.64285
 31
0.0
  0
SOLID
  5
9C
330
96
100
AcDbEntity
  8
0
 62
0
440
16777216
100
AcDbTrace
 10
407.95
 20
-1659.14285
 30
0.0
 11
407.95
 21
-1660.14285
 31
0.0
 12
404.95
 22
-1659.64285
 32
0.0
 13
404.95
 23
-1659.64285
 33
0.0
  0
SOLID
  5
9D
330
96
100
AcDbEntity
  8
0
 62
0
440
16777216
100
AcDbTrace
 10
461.95
 20
-1660.14285
 30
0.0
 11
461.95
 21
-1659.14285
 31
0.0
 12
464.9499999999998
 22
-1659.64285
 32
0.0
 13
464.9499999999998
 23
-1659.64285
 33
0.0
  0
TEXT
  5
9E
330
96
100
AcDbEntity
  8
0
  6
Continuous
 62
0
440
16777216
100
AcDbText
 10
464.9200000000001
 20
-1669.54285
 30
0.0
 40
20.0
  1
60.0000
100
AcDbText
  0
POINT
  5
9F
330
96
100
AcDbEntity
  8
DEFPOINTS
 62
0
440
16777216
100
AcDbPoint
 10
404.95
 20
-1677.56
 30
0.0
  0
POINT
  5
A0
330
96
100
AcDbEntity
  8
DEFPOINTS
 62
0
440
16777216
100
AcDbPoint
 10
464.9499999999998
 20
-1486.06
 30
0.0
  0
POINT
  5
A1
330
96
100
AcDbEntity
  8
DEFPOINTS
 62
0
440
16777216
100
AcDbPoint
 10
464.9499999999998
 20
-1659.64285
 30
0.0
  0
ENDBLK
  5
A2
330
96
100
AcDbEntity
  8
0
100
AcDbBlockEnd
  0
BLOCK
  5
89
330
88
100
AcDbEntity
  8
0
100
AcDbBlockBegin
  2
*D3
 70
1
 10
0.0
 20
0.0
 30
0.0
  3
*D3
  1

  0
LINE
  5
8A
330
88
100
AcDbEntity
  8
0
 62
0
440
16777216
100
AcDbLine
 10
185.4499999999999
 20
-1528.1225
 30
0.0
 11
185.4499999999999
 21
-1565.93123
 31
0.0
  0
LINE
  5
8B
330
88
100
AcDbEntity
  8
0
 62
0
440
16777216
100
AcDbLine
 10
275.45
 20
-1528.1225
 30
0.0
 11
275.45
 21
-1565.93123
 31
0.0
  0
LINE
  5
8C
330
88
100
AcDbEntity
  8
0
 62
0
440
16777216
100
AcDbLine
 10
275.45
 20
-1565.75123
 30
0.0
 11
278.45
 21
-1565.75123
 31
0.0
  0
LINE
  5
8D
330
88
100
AcDbEntity
  8
0
 62
0
440
16777216
100
AcDbLine
 10
188.45
 20
-1565.75123
 30
0.0
 11
272.45
 21
-1565.75123
 31
0.0
  0
SOLID
  5
8E
330
88
100
AcDbEntity
  8
0
 62
0
440
16777216
100
AcDbTrace
 10
188.45
 20
-1565.25123
 30
0.0
 11
188.45
 21
-1566.25123
 31
0.0
 12
185.4499999999999
 22
-1565.75123
 32
0.0
 13
185.4499999999999
 23
-1565.75123
 33
0.0
  0
SOLID
  5
8F
330
88
100
AcDbEntity
  8
0
 62
0
440
16777216
100
AcDbTrace
 10
272.45
 20
-1566.25123
 30
0.0
 11
272.45
 21
-1565.25123
 31
0.0
 12
275.45
 22
-1565.75123
 32
0.0
 13
275.45
 23
-1565.75123
 33
0.0
  0
TEXT
  5
90
330
88
100
AcDbEntity
  8
0
  6
Continuous
 62
0
440
16777216
100
AcDbText
 10
275.42
 20
-1575.65123
 30
0.0
 40
20.0
  1
90.0000
100
AcDbText
  0
POINT
  5
91
330
88
100
AcDbEntity
  8
DEFPOINTS
 62
0
440
16777216
100
AcDbPoint
 10
185.4499999999999
 20
-1528.06
 30
0.0
  0
POINT
  5
92
330
88
100
AcDbEntity
  8
DEFPOINTS
 62
0
440
16777216
100
AcDbPoint
 10
275.45
 20
-1528.06
 30
0.0
  0
POINT
  5
93
330
88
100
AcDbEntity
  8
DEFPOINTS
 62
0
440
16777216
100
AcDbPoint
 10
275.45
 20
-1565.75123
 30
0.0
  0
ENDBLK
  5
94
330
88
100
AcDbEntity
  8
0
100
AcDbBlockEnd
  0
BLOCK
  5
7A
330
79
100
AcDbEntity
  8
0
100
AcDbBlockBegin
  2
*D4
 70
1
 10
0.0
 20
0.0
 30
0.0
  3
*D4
  1

  0
LINE
  5
7B
330
79
100
AcDbEntity
  8
0
 62
0
440
16777216
100
AcDbLine
 10
16.0125
 20
-1964.060000000003
 30
0.0
 11
38.33657
 21
-1964.060000001005
 31
0.0
  0
LINE
  5
7C
330
79
100
AcDbEntity
  8
0
 62
0
440
16777216
100
AcDbLine
 10
20.0125
 20
-1969.560000000003
 30
0.0
 11
38.33656999975307
 21
-1969.560000000826
 31
0.0
  0
LINE
  5
7D
330
79
100
AcDbEntity
  8
0
 62
0
440
16777216
100
AcDbLine
 10
38.15656999948369
 20
-1975.560000000817
 30
0.0
 11
35.15656999948369
 21
-1975.560000000817
 31
0.0
  0
LINE
  5
7E
330
79
100
AcDbEntity
  8
0
 62
0
440
16777216
100
AcDbLine
 10
38.15657000013469
 20
-1961.060000000997
 30
0.0
 11
38.15657000026938
 21
-1958.060000000997
 31
0.0
  0
LINE
  5
7F
330
79
100
AcDbEntity
  8
0
 62
0
440
16777216
100
AcDbLine
 10
38.15656999961838
 20
-1972.560000000816
 30
0.0
 11
38.15656999948369
 21
-1975.560000000817
 31
0.0
  0
SOLID
  5
80
330
79
100
AcDbEntity
  8
0
 62
0
440
16777216
100
AcDbTrace
 10
37.65657000013469
 20
-1961.060000000974
 30
0.0
 11
38.65657000013469
 21
-1961.060000001019
 31
0.0
 12
38.15657
 22
-1964.060000000997
 32
0.0
 13
38.15657
 23
-1964.060000000997
 33
0.0
  0
SOLID
  5
81
330
79
100
AcDbEntity
  8
0
 62
0
440
16777216
100
AcDbTrace
 10
38.65656999961839
 20
-1972.56000000084
 30
0.0
 11
37.65656999961839
 21
-1972.560000000795
 31
0.0
 12
38.15656999975307
 22
-1969.560000000817
 32
0.0
 13
38.15656999975307
 23
-1969.560000000817
 33
0.0
  0
TEXT
  5
82
330
79
100
AcDbEntity
  8
0
  6
Continuous
 62
0
440
16777216
100
AcDbText
 10
-21.08143000051631
 20
-1981.500000000817
 30
0.0
 40
12.0
  1
5.5000
100
AcDbText
  0
POINT
  5
83
330
79
100
AcDbEntity
  8
DEFPOINTS
 62
0
440
16777216
100
AcDbPoint
 10
15.95
 20
-1964.06
 30
0.0
  0
POINT
  5
84
330
79
100
AcDbEntity
  8
DEFPOINTS
 62
0
440
16777216
100
AcDbPoint
 10
19.95
 20
-1969.56
 30
0.0
  0
POINT
  5
85
330
79
100
AcDbEntity
  8
DEFPOINTS
 62
0
440
16777216
100
AcDbPoint
 10
38.15656999975307
 20
-1969.560000000817
 30
0.0
  0
ENDBLK
  5
86
330
79
100
AcDbEntity
  8
0
100
AcDbBlockEnd
  0
BLOCK
  5
69
330
68
100
AcDbEntity
  8
0
100
AcDbBlockBegin
  2
*D5
 70
1
 10
0.0
 20
0.0
 30
0.0
  3
*D5
  1

  0
LINE
  5
6A
330
68
100
AcDbEntity
  8
0
 62
0
440
16777216
100
AcDbLine
 10
381.8875
 20
-1722.959999999997
 30
0.0
 11
376.3019
 21
-1722.959999999746
 31
0.0
  0
LINE
  5
6B
330
68
100
AcDbEntity
  8
0
 62
0
440
16777216
100
AcDbLine
 10
381.8875
 20
-1723.559999999997
 30
0.0
 11
376.301899999973
 21
-1723.559999999746
 31
0.0
  0
LINE
  5
6C
330
68
100
AcDbEntity
  8
0
 62
0
440
16777216
100
AcDbLine
 10
376.4818999997036
 20
-1729.559999999754
 30
0.0
 11
373.4818999997036
 21
-1729.559999999754
 31
0.0
  0
LINE
  5
6D
330
68
100
AcDbEntity
  8
0
 62
0
440
16777216
100
AcDbLine
 10
376.4819000001347
 20
-1719.959999999754
 30
0.0
 11
376.4819000002694
 21
-1716.959999999754
 31
0.0
  0
LINE
  5
6E
330
68
100
AcDbEntity
  8
0
 62
0
440
16777216
100
AcDbLine
 10
376.4818999998383
 20
-1726.559999999754
 30
0.0
 11
376.4818999997036
 21
-1729.559999999754
 31
0.0
  0
SOLID
  5
6F
330
68
100
AcDbEntity
  8
0
 62
0
440
16777216
100
AcDbTrace
 10
375.9819000001347
 20
-1719.959999999732
 30
0.0
 11
376.9819000001346
 21
-1719.959999999777
 31
0.0
 12
376.4819
 22
-1722.959999999754
 32
0.0
 13
376.4819
 23
-1722.959999999754
 33
0.0
  0
SOLID
  5
71
330
68
100
AcDbEntity
  8
0
 62
0
440
16777216
100
AcDbTrace
 10
376.9818999998383
 20
-1726.559999999777
 30
0.0
 11
375.9818999998383
 21
-1726.559999999732
 31
0.0
 12
376.4818999999732
 22
-1723.559999999754
 32
0.0
 13
376.4818999999732
 23
-1723.559999999754
 33
0.0
  0
TEXT
  5
72
330
68
100
AcDbEntity
  8
0
  6
Continuous
 62
0
440
16777216
100
AcDbText
 10
319.2358999997036
 20
-1735.499999999754
 30
0.0
 40
12.0
  1
0.6000
100
AcDbText
  0
POINT
  5
73
330
68
100
AcDbEntity
  8
DEFPOINTS
 62
0
440
16777216
100
AcDbPoint
 10
381.95
 20
-1722.96
 30
0.0
  0
POINT
  5
75
330
68
100
AcDbEntity
  8
DEFPOINTS
 62
0
440
16777216
100
AcDbPoint
 10
381.95
 20
-1723.56
 30
0.0
  0
POINT
  5
76
330
68
100
AcDbEntity
  8
DEFPOINTS
 62
0
440
16777216
100
AcDbPoint
 10
376.4818999999732
 20
-1723.559999999754
 30
0.0
  0
ENDBLK
  5
77
330
68
100
AcDbEntity
  8
0
100
AcDbBlockEnd
  0
BLOCK
  5
F4A
330
F49
100
AcDbEntity
  8
0
100
AcDbBlockBegin
  2
*D7
 70
1
 10
0.0
 20
0.0
 30
0.0
  3
*D7
  1

  0
LINE
  5
F4C
330
F49
100
AcDbEntity
  8
0
 62
0
370
-2
440
16777216
100
AcDbLine
 10
79.01250000006743
 20
-1722.959999999961
 30
0.0
 11
84.59810000009404
 21
-1722.959999999961
 31
0.0
  0
LINE
  5
F4D
330
F49
100
AcDbEntity
  8
0
 62
0
370
-2
440
16777216
100
AcDbLine
 10
79.01250000006726
 20
-1723.559999999961
 30
0.0
 11
84.59810000009404
 21
-1723.559999999961
 31
0.0
  0
LINE
  5
F4E
330
F49
100
AcDbEntity
  8
0
 62
0
370
-2
440
16777216
100
AcDbLine
 10
84.41810000009401
 20
-1719.959999999961
 30
0.0
 11
84.41810000009401
 21
-1716.959999999961
 31
0.0
  0
LINE
  5
F4F
330
F49
100
AcDbEntity
  8
0
 62
0
370
-2
440
16777216
100
AcDbLine
 10
84.41810000009401
 20
-1726.559999999961
 30
0.0
 11
84.41810000009401
 21
-1729.559999999961
 31
0.0
  0
MTEXT
  5
F50
330
F49
100
AcDbEntity
  8
0
 62
0
440
16777216
100
AcDbMText
 10
108.6431000000935
 20
-1723.25999999996
 30
0.0
 40
12.0
 41
0.0
 46
0.0
 71
5
  1
\A1;0.6000
  0
SOLID
  5
F51
330
F49
100
AcDbEntity
  8
0
 62
0
440
16777216
100
AcDbTrace
 10
83.91810000009403
 20
-1719.959999999961
 30
0.0
 11
84.91810000009403
 21
-1719.959999999961
 31
0.0
 12
84.41810000009401
 22
-1722.959999999961
 32
0.0
 13
84.41810000009401
 23
-1722.959999999961
 33
0.0
  0
SOLID
  5
F52
330
F49
100
AcDbEntity
  8
0
 62
0
440
16777216
100
AcDbTrace
 10
83.91810000009403
 20
-1726.559999999961
 30
0.0
 11
84.91810000009403
 21
-1726.559999999961
 31
0.0
 12
84.41810000009401
 22
-1723.559999999961
 32
0.0
 13
84.41810000009401
 23
-1723.559999999961
 33
0.0
  0
POINT
  5
F53
330
F49
100
AcDbEntity
  8
DEFPOINTS
 62
0
440
16777216
100
AcDbPoint
 10
78.95000000006743
 20
-1722.959999999961
 30
0.0
  0
POINT
  5
F54
330
F49
100
AcDbEntity
  8
DEFPOINTS
 62
0
440
16777216
100
AcDbPoint
 10
78.95000000006726
 20
-1723.559999999961
 30
0.0
  0
POINT
  5
F55
330
F49
100
AcDbEntity
  8
DEFPOINTS
 62
0
440
16777216
100
AcDbPoint
 10
84.41810000009401
 20
-1723.559999999961
 30
0.0
  0
ENDBLK
  5
F4B
330
F49
100
AcDbEntity
  8
0
100
AcDbBlockEnd
  0
BLOCK
  5
F57
330
F56
100
AcDbEntity
  8
0
100
AcDbBlockBegin
  2
*D8
 70
1
 10
0.0
 20
0.0
 30
0.0
  3
*D8
  1

  0
LINE
  5
F59
330
F56
100
AcDbEntity
  8
0
 62
0
370
-2
440
16777216
100
AcDbLine
 10
275.4500000001188
 20
-1528.122500000011
 30
0.0
 11
275.4500000001089
 21
-1565.931230000012
 31
0.0
  0
LINE
  5
F5A
330
F56
100
AcDbEntity
  8
0
 62
0
370
-2
440
16777216
100
AcDbLine
 10
185.4500000001188
 20
-1528.122499999988
 30
0.0
 11
185.4500000001088
 21
-1565.931229999988
 31
0.0
  0
LINE
  5
F5B
330
F56
100
AcDbEntity
  8
0
 62
0
370
-2
440
16777216
100
AcDbLine
 10
272.4500000001089
 20
-1565.751230000011
 30
0.0
 11
188.4500000001089
 21
-1565.751229999989
 31
0.0
  0
MTEXT
  5
F5C
330
F56
100
AcDbEntity
  8
0
 62
0
440
16777216
100
AcDbMText
 10
230.4500000000984
 20
-1605.97623
 30
0.0
 40
20.0
 41
0.0
 46
0.0
 71
5
  1
\A1;90.0000
  0
SOLID
  5
F5D
330
F56
100
AcDbEntity
  8
0
 62
0
440
16777216
100
AcDbTrace
 10
272.4500000001091
 20
-1565.251230000011
 30
0.0
 11
272.4500000001088
 21
-1566.251230000011
 31
0.0
 12
275.4500000001089
 22
-1565.751230000012
 32
0.0
 13
275.4500000001089
 23
-1565.751230000012
 33
0.0
  0
SOLID
  5
F5E
330
F56
100
AcDbEntity
  8
0
 62
0
440
16777216
100
AcDbTrace
 10
188.450000000109
 20
-1565.251229999989
 30
0.0
 11
188.4500000001087
 21
-1566.251229999989
 31
0.0
 12
185.4500000001089
 22
-1565.751229999988
 32
0.0
 13
185.4500000001089
 23
-1565.751229999988
 33
0.0
  0
POINT
  5
F5F
330
F56
100
AcDbEntity
  8
DEFPOINTS
 62
0
440
16777216
100
AcDbPoint
 10
275.4500000001188
 20
-1528.060000000012
 30
0.0
  0
POINT
  5
F60
330
F56
100
AcDbEntity
  8
DEFPOINTS
 62
0
440
16777216
100
AcDbPoint
 10
185.4500000001188
 20
-1528.059999999988
 30
0.0
  0
POINT
  5
F61
330
F56
100
AcDbEntity
  8
DEFPOINTS
 62
0
440
16777216
100
AcDbPoint
 10
185.4500000001089
 20
-1565.751229999988
 30
0.0
  0
ENDBLK
  5
F58
330
F56
100
AcDbEntity
  8
0
100
AcDbBlockEnd
  0
BLOCK
  5
F63
330
F62
100
AcDbEntity
  8
0
100
AcDbBlockBegin
  2
*D9
 70
1
 10
0.0
 20
0.0
 30
0.0
  3
*D9
  1

  0
LINE
  5
F65
330
F62
100
AcDbEntity
  8
0
 62
0
370
-2
440
16777216
100
AcDbLine
 10
55.95000000007942
 20
-1677.497499999954
 30
0.0
 11
55.95000000008416
 21
-1659.462849999954
 31
0.0
  0
LINE
  5
F66
330
F62
100
AcDbEntity
  8
0
 62
0
370
-2
440
16777216
100
AcDbLine
 10
-4.049999999870026
 20
-1486.122499999938
 30
0.0
 11
-4.049999999915703
 21
-1659.822849999938
 31
0.0
  0
LINE
  5
F67
330
F62
100
AcDbEntity
  8
0
 62
0
370
-2
440
16777216
100
AcDbLine
 10
52.9500000000841
 20
-1659.642849999953
 30
0.0
 11
-1.049999999915655
 21
-1659.642849999939
 31
0.0
  0
MTEXT
  5
F68
330
F62
100
AcDbEntity
  8
0
 62
0
440
16777216
100
AcDbMText
 10
25.95000000007891
 20
-1679.867849999946
 30
0.0
 40
20.0
 41
0.0
 46
0.0
 71
5
  1
\A1;60.0000
  0
SOLID
  5
F69
330
F62
100
AcDbEntity
  8
0
 62
0
440
16777216
100
AcDbTrace
 10
52.95000000008425
 20
-1659.142849999953
 30
0.0
 11
52.95000000008398
 21
-1660.142849999953
 31
0.0
 12
55.95000000008411
 22
-1659.642849999954
 32
0.0
 13
55.95000000008411
 23
-1659.642849999954
 33
0.0
  0
SOLID
  5
F6A
330
F62
100
AcDbEntity
  8
0
 62
0
440
16777216
100
AcDbTrace
 10
-1.049999999915524
 20
-1659.142849999939
 30
0.0
 11
-1.049999999915787
 21
-1660.142849999939
 31
0.0
 12
-4.049999999915655
 22
-1659.642849999938
 32
0.0
 13
-4.049999999915655
 23
-1659.642849999938
 33
0.0
  0
POINT
  5
F6B
330
F62
100
AcDbEntity
  8
DEFPOINTS
 62
0
440
16777216
100
AcDbPoint
 10
55.9500000000794
 20
-1677.559999999954
 30
0.0
  0
POINT
  5
F6C
330
F62
100
AcDbEntity
  8
DEFPOINTS
 62
0
440
16777216
100
AcDbPoint
 10
-4.04999999987001
 20
-1486.059999999938
 30
0.0
  0
POINT
  5
F6D
330
F62
100
AcDbEntity
  8
DEFPOINTS
 62
0
440
16777216
100
AcDbPoint
 10
-4.049999999915655
 20
-1659.642849999938
 30
0.0
  0
ENDBLK
  5
F64
330
F62
100
AcDbEntity
  8
0
100
AcDbBlockEnd
  0
ENDSEC
  0
SECTION
  2
ENTITIES
  0
LINE
  5
BF
330
2
100
AcDbEntity
  8
CUTTING
100
AcDbLine
 10
63.95000000008071
 20
-1672.559999999956
 30
0.0
 11
63.95000000007939
 21
-1677.559999999956
 31
0.0
 39
2.0
  0
LINE
  5
C0
330
2
100
AcDbEntity
  8
CUTTING
100
AcDbLine
 10
63.95000000005381
 20
-1774.559999999956
 30
0.0
 11
63.95000000005513
 21
-1769.559999999956
 31
0.0
 39
2.0
  0
LINE
  5
C1
330
2
100
AcDbEntity
  8
CUTTING
100
AcDbLine
 10
70.9500000000794
 20
-1677.559999999958
 30
0.0
 11
70.9500000000807
 21
-1672.559999999958
 31
0.0
 39
2.0
  0
LINE
  5
C2
330
2
100
AcDbEntity
  8
CUTTING
100
AcDbLine
 10
70.95000000005513
 20
-1769.559999999958
 30
0.0
 11
70.95000000005382
 21
-1774.559999999958
 31
0.0
 39
2.0
  0
LINE
  5
C3
330
2
100
AcDbEntity
  8
CUTTING
100
AcDbLine
 10
70.9500000000794
 20
-1677.559999999958
 30
0.0
 11
78.95000000007938
 21
-1677.55999999996
 31
0.0
 39
2.0
  0
LINE
  5
C4
330
2
100
AcDbEntity
  8
CUTTING
100
AcDbLine
 10
55.9500000000794
 20
-1677.559999999954
 30
0.0
 11
63.95000000007939
 21
-1677.559999999956
 31
0.0
 39
2.0
  0
LINE
  5
C5
330
2
100
AcDbEntity
  8
CUTTING
100
AcDbLine
 10
63.95000000005513
 20
-1769.559999999956
 30
0.0
 11
55.95000000005512
 21
-1769.559999999954
 31
0.0
 39
2.0
  0
LINE
  5
C6
330
2
100
AcDbEntity
  8
CUTTING
100
AcDbLine
 10
78.95000000005513
 20
-1769.55999999996
 30
0.0
 11
70.95000000005513
 21
-1769.559999999958
 31
0.0
 39
2.0
  0
LINE
  5
C7
330
2
100
AcDbEntity
  8
CUTTING
100
AcDbLine
 10
460.9717192657572
 20
-1483.06000000006
 30
0.0
 11
460.9717192656304
 21
-1964.060000000061
 31
0.0
 39
2.0
  0
LINE
  5
C8
330
2
100
AcDbEntity
  8
CUTTING
100
AcDbLine
 10
447.9500000000038
 20
-1964.060000000057
 30
0.0
 11
460.9717192872251
 21
-1964.060000000061
 31
0.0
 39
2.0
  0
LINE
  5
C9
330
2
100
AcDbEntity
  8
CUTTING
100
AcDbLine
 10
447.9499999999998
 20
-1979.059999999922
 30
0.0
 11
447.9500000000038
 21
-1964.060000000057
 31
0.0
 39
2.0
  0
LINE
  5
CA
330
2
100
AcDbEntity
  8
CUTTING
100
AcDbLine
 10
12.94999999999999
 20
-1979.059999999942
 30
0.0
 11
447.9499999999998
 21
-1979.059999999922
 31
0.0
 39
2.0
  0
LINE
  5
CB
330
2
100
AcDbEntity
  8
CUTTING
100
AcDbLine
 10
12.95000000000397
 20
-1964.059999999943
 30
0.0
 11
12.94999999999999
 21
-1979.059999999942
 31
0.0
 39
2.0
  0
LINE
  5
CC
330
2
100
AcDbEntity
  8
CUTTING
100
AcDbLine
 10
-4.04999999945727
 20
-1964.059999999957
 30
0.0
 11
12.95000000000397
 21
-1964.059999999943
 31
0.0
 39
2.0
  0
LINE
  5
CD
330
2
100
AcDbEntity
  8
CUTTING
100
AcDbLine
 10
-4.049999999330452
 20
-1483.059999999938
 30
0.0
 11
-4.04999999945727
 21
-1964.059999999938
 31
0.0
 39
2.0
  0
LINE
  5
CE
330
2
100
AcDbEntity
  8
CUTTING
100
AcDbLine
 10
12.95000000013078
 20
-1483.059999999943
 30
0.0
 11
-4.049999999330452
 21
-1483.059999999938
 31
0.0
 39
2.0
  0
LINE
  5
CF
330
2
100
AcDbEntity
  8
CUTTING
100
AcDbLine
 10
12.95000000013471
 20
-1468.059999995094
 30
0.0
 11
12.95000000013078
 21
-1483.059999999943
 31
0.0
 39
2.0
  0
LINE
  5
D1
330
2
100
AcDbEntity
  8
CUTTING
100
AcDbLine
 10
447.9500000001306
 20
-1483.060000000057
 30
0.0
 11
447.9499999999999
 21
-1468.059999999922
 31
0.0
 39
2.0
  0
LINE
  5
D2
330
2
100
AcDbEntity
  8
CUTTING
100
AcDbLine
 10
460.9717192657572
 20
-1483.06000000006
 30
0.0
 11
447.9500000001306
 21
-1483.06000000003
 31
0.0
 39
2.0
  0
LINE
  5
D4
330
2
100
AcDbEntity
  8
CUTTING
100
AcDbLine
 10
78.95000000007938
 20
-1677.55999999996
 30
0.0
 11
78.95000000005513
 21
-1769.55999999996
 31
0.0
 39
2.0
  0
LINE
  5
D5
330
2
100
AcDbEntity
  8
CUTTING
100
AcDbLine
 10
55.95000000005512
 20
-1769.559999999954
 30
0.0
 11
55.9500000000794
 21
-1677.559999999954
 31
0.0
 39
2.0
  0
CIRCLE
  5
D7
330
2
100
AcDbEntity
  8
CUTTING
100
AcDbCircle
 10
185.4500000001188
 20
-1528.059999999988
 30
0.0
 40
1.6
 39
2.0
  0
CIRCLE
  5
D8
330
2
100
AcDbEntity
  8
CUTTING
100
AcDbCircle
 10
275.4500000001188
 20
-1528.060000000012
 30
0.0
 40
1.6
 39
2.0
  0
CIRCLE
  5
D9
330
2
100
AcDbEntity
  8
CUTTING
100
AcDbCircle
 10
454.9500000000117
 20
-1934.060000000059
 30
0.0
 40
3.2
 39
2.0
  0
CIRCLE
  5
DA
330
2
100
AcDbEntity
  8
CUTTING
100
AcDbCircle
 10
454.9500000001227
 20
-1513.060000000059
 30
0.0
 40
3.2
 39
2.0
  0
CIRCLE
  5
DB
330
2
100
AcDbEntity
  8
CUTTING
100
AcDbCircle
 10
440.9500000000023
 20
-1969.560000000055
 30
0.0
 40
3.2
 39
2.0
  0
CIRCLE
  5
DC
330
2
100
AcDbEntity
  8
CUTTING
100
AcDbCircle
 10
440.4500000001324
 20
-1476.060000000055
 30
0.0
 40
4.25
 39
2.0
  0
CIRCLE
  5
DD
330
2
100
AcDbEntity
  8
MARKING
100
AcDbCircle
 10
387.9500000000144
 20
-1924.060000000041
 30
0.0
 40
6.549999999999998
 39
2.0
  0
ARC
  5
E2
330
2
100
AcDbEntity
  8
CUTTING
100
AcDbCircle
 10
67.4500000000807
 20
-1672.559999999957
 30
0.0
 40
3.5
 39
2.0
100
AcDbArc
 50
359.9999999999849
 51
89.99999999998371
  0
ARC
  5
E3
330
2
100
AcDbEntity
  8
CUTTING
100
AcDbCircle
 10
67.4500000000807
 20
-1672.559999999957
 30
0.0
 40
3.5
 39
2.0
100
AcDbArc
 50
89.99999999998371
 51
179.9999999999849
  0
ARC
  5
E4
330
2
100
AcDbEntity
  8
CUTTING
100
AcDbCircle
 10
67.45000000005382
 20
-1774.559999999957
 30
0.0
 40
3.5
 39
2.0
100
AcDbArc
 50
179.9999999999849
 51
270.0000000102755
  0
ARC
  5
E5
330
2
100
AcDbEntity
  8
CUTTING
100
AcDbCircle
 10
67.45000000005382
 20
-1774.559999999957
 30
0.0
 40
3.5
 39
2.0
100
AcDbArc
 50
270.0000000102755
 51
359.9999999999849
  0
LWPOLYLINE
  5
F1E
330
2
100
AcDbEntity
  8
CUTTING
100
AcDbPolyline
 90
2
 70
1
 39
2.0
 10
447.9499999999999
 20
-1468.059999995208
 10
12.95000000013471
 20
-1468.059999995094
  0
LINE
  5
FB3
330
2
100
AcDbEntity
  8
BEND
100
AcDbLine
 10
14.95000000054273
 20
-1979.059999999942
 30
0.0
 11
14.95000000054273
 21
-1468.059999995094
 31
0.0
  0
LINE
  5
FB4
330
2
100
AcDbEntity
  8
BEND
100
AcDbLine
 10
445.9717192872251
 20
-1979.059999999942
 30
0.0
 11
445.9717192872251
 21
-1468.059999995094
 31
0.0
  0
LINE
  5
FB5
330
2
100
AcDbEntity
  8
BEND
100
AcDbLine
 10
12.95000000054273
 20
-1964.059999999942
 30
0.0
 11
447.9717192872251
 21
-1964.059999999942
 31
0.0
  0
LINE
  5
FB6
330
2
100
AcDbEntity
  8
BEND
100
AcDbLine
 10
12.95000000054273
 20
-1483.059999995094
 30
0.0
 11
447.9717192872251
 21
-1483.059999995094
 31
0.0
  0
ENDSEC
  0
SECTION
  2
OBJECTS
  0
DICTIONARY
  5
9
330
0
100
AcDbDictionary
281
1
  3
ACAD_CIP_PREVIOUS_PRODUCT_INFO
350
10E
  3
ACAD_COLOR
350
43
  3
ACAD_DETAILVIEWSTYLE
350
10B
  3
ACAD_GROUP
350
30
  3
ACAD_LAYOUT
350
16
  3
ACAD_MATERIAL
350
B
  3
ACAD_MLEADERSTYLE
350
46
  3
ACAD_MLINESTYLE
350
31
  3
ACAD_PLOTSETTINGS
350
32
  3
ACAD_PLOTSTYLENAME
350
8
  3
ACAD_SCALELIST
350
44
  3
ACAD_SECTIONVIEWSTYLE
350
109
  3
ACAD_TABLESTYLE
350
45
  3
ACAD_VISUALSTYLE
350
29
  3
ACDB_RECOMPOSE_DATA
350
FAF
  3
AcDbVariableDictionary
350
47
  3
EZDXF_META
350
FB9
  0
DICTIONARY
  5
1C
330
1B
100
AcDbDictionary
280
1
281
1
  3
ACAD_LAYERSTATES
360
1D
  0
DICTIONARY
  5
5
330
4
100
AcDbDictionary
280
1
281
1
  3
ADSK_XREC_LAYER_RECONCILED
360
6
  0
DICTIONARY
  5
F1F
330
2
100
AcDbDictionary
280
1
281
1
  3
ACAD_SORTENTS
360
F20
  0
XRECORD
  5
10E
102
{ACAD_REACTORS
330
9
102
}
330
9
100
AcDbXrecord
280
1
300
ACD
300
2023
300

  0
DICTIONARY
  5
43
102
{ACAD_REACTORS
330
9
102
}
330
9
100
AcDbDictionary
281
1
  0
DICTIONARY
  5
10B
102
{ACAD_REACTORS
330
9
102
}
330
9
100
AcDbDictionary
281
1
  3
Imperial24
350
10C
  0
DICTIONARY
  5
30
102
{ACAD_REACTORS
330
9
102
}
330
9
100
AcDbDictionary
281
1
  0
DICTIONARY
  5
16
102
{ACAD_REACTORS
330
9
102
}
330
9
100
AcDbDictionary
281
1
  3
Model
350
15
  3
配置1
350
1A
  0
DICTIONARY
  5
B
102
{ACAD_REACTORS
330
9
102
}
330
9
100
AcDbDictionary
281
1
  3
ByBlock
350
3B
  3
ByLayer
350
33
  3
Global
350
A
  0
DICTIONARY
  5
46
102
{ACAD_REACTORS
330
9
102
}
330
9
100
AcDbDictionary
281
1
  3
Standard
350
108
  0
DICTIONARY
  5
31
102
{ACAD_REACTORS
330
9
102
}
330
9
100
AcDbDictionary
281
1
  3
Standard
350
52
  0
DICTIONARY
  5
32
102
{ACAD_REACTORS
330
9
102
}
330
9
100
AcDbDictionary
281
1
  0
ACDBDICTIONARYWDFLT
  5
8
102
{ACAD_REACTORS
330
9
102
}
330
9
100
AcDbDictionary
281
1
  3
Normal
350
7
100
AcDbDictionaryWithDefault
340
7
  0
DICTIONARY
  5
44
102
{ACAD_REACTORS
330
9
102
}
330
9
100
AcDbDictionary
281
1
  3
A0
350
56
  3
A1
350
57
  3
A2
350
58
  3
A3
350
59
  3
A4
350
5A
  3
A5
350
5B
  3
A6
350
5C
  3
A7
350
5D
  3
A8
350
5E
  3
A9
350
5F
  3
B0
350
60
  3
B1
350
61
  3
B2
350
62
  3
B3
350
63
  3
B4
350
64
  3
B5
350
65
  3
B6
350
66
  0
DICTIONARY
  5
109
102
{ACAD_REACTORS
330
9
102
}
330
9
100
AcDbDictionary
281
1
  3
Imperial24
350
10A
  0
DICTIONARY
  5
45
102
{ACAD_REACTORS
330
9
102
}
330
9
100
AcDbDictionary
281
1
  3
Standard
350
53
  0
DICTIONARY
  5
29
102
{ACAD_REACTORS
330
9
102
}
330
9
100
AcDbDictionary
281
1
  3
2dWireframe
350
28
  3
Basic
350
F8
  3
Brighten
350
FC
  3
ColorChange
350
100
  3
Conceptual
350
FA
  3
Dim
350
FB
  3
EdgeColorOff
350
70
  3
Facepattern
350
FF
  3
Flat
350
F4
  3
FlatWithEdges
350
F5
  3
Gouraud
350
F6
  3
GouraudWithEdges
350
F7
  3
Hidden
350
F9
  3
JitterOff
350
106
  3
Linepattern
350
FE
  3
OverhangOff
350
107
  3
Realistic
350
54
  3
Shaded
350
105
  3
Shaded with edges
350
104
  3
Shades of Gray
350
101
  3
Sketchy
350
102
  3
Thicken
350
FD
  3
Wireframe
350
55
  3
X-Ray
350
103
  0
XRECORD
  5
FAF
102
{ACAD_REACTORS
330
9
102
}
330
9
100
AcDbXrecord
280
1
 90
1
330
53
  0
DICTIONARY
  5
47
102
{ACAD_REACTORS
330
9
102
}
330
9
100
AcDbDictionary
281
1
  3
CANNOSCALE
350
48
  3
CMLEADERSTYLE
350
49
  3
CTABLESTYLE
350
4A
  3
CVIEWDETAILSTYLE
350
4B
  3
CVIEWSECTIONSTYLE
350
4C
  3
LAYEREVAL
350
4D
  3
LAYERNOTIFY
350
4E
  3
LIGHTINGUNITS
350
4F
  3
MARKUPASSISTMODE
350
50
  3
MSLTSCALE
350
51
  0
DICTIONARY
  5
1D
102
{ACAD_REACTORS
330
1C
102
}
330
1C
100
AcDbDictionary
281
1
  0
XRECORD
  5
6
102
{ACAD_REACTORS
330
5
102
}
330
5
100
AcDbXrecord
280
1
290
1
  0
SORTENTSTABLE
  5
F20
102
{ACAD_REACTORS
330
F1F
102
}
330
F1F
100
AcDbSortentsTable
330
2
331
F1E
  5
D0
  0
ACDBDETAILVIEWSTYLE
  5
10C
102
{ACAD_REACTORS
330
10B
102
}
330
10B
100
AcDbModelDocViewStyle
 70
0
  3
Imperial24
290
0
300
Imperial24
 90
0
100
AcDbDetailViewStyle
 70
0
 71
0
 90
3
 71
1
340
1F
 62
256
 40
0.24
340
0
 62
256
 40
0.24
300

 40
0.36
280
3
 71
2
340
13
 90
25
 62
256
 71
3
340
1F
 62
256
 40
0.24
 90
1
 40
0.75
 90
1
300
%<\AcVar ViewType \f "%tc1">% %<\AcVar ViewDetailId>%\PSCALE %<\AcVar ViewScale \f "%sn">%
 71
4
340
13
 90
25
 62
256
340
13
 90
25
 62
256
280
0
  0
LAYOUT
  5
15
102
{ACAD_REACTORS
330
16
102
}
330
16
100
AcDbPlotSettings
  1

  2
Wondershare PDFelement
  4

  6

 40
0.0
 41
0.0
 42
0.0
 43
0.0
 44
0.0
 45
0.0
 46
0.0
 47
0.0
 48
0.0
 49
0.0
140
0.0
141
0.0
142
1.0
143
1.0
 70
1712
 72
0
 73
0
 74
0
  7

 75
0
 76
0
 77
2
 78
300
147
1.0
148
0.0
149
0.0
100
AcDbLayout
  1
Model
 70
1
 71
0
 10
0.0
 20
0.0
 11
12.0
 21
9.0
 12
0.0
 22
0.0
 32
0.0
 14
0.0
 24
0.0
 34
0.0
 15
0.0
 25
0.0
 35
0.0
146
0.0
 13
0.0
 23
0.0
 33
0.0
 16
1.0
 26
0.0
 36
0.0
 17
0.0
 27
1.0
 37
0.0
 76
0
330
2
331
27
  0
LAYOUT
  5
1A
102
{ACAD_REACTORS
330
16
102
}
330
16
100
AcDbPlotSettings
  1

  2
Wondershare PDFelement
  4

  6

 40
0.0
 41
0.0
 42
0.0
 43
0.0
 44
0.0
 45
0.0
 46
0.0
 47
0.0
 48
0.0
 49
0.0
140
0.0
141
0.0
142
1.0
143
1.0
 70
688
 72
0
 73
0
 74
5
  7

 75
16
 76
0
 77
2
 78
300
147
1.0
148
0.0
149
0.0
100
AcDbLayout
  1
配置1
 70
1
 71
1
 10
0.0
 20
0.0
 11
12.0
 21
9.0
 12
0.0
 22
0.0
 32
0.0
 14
1e+20
 24
1e+20
 34
1e+20
 15
-1e+20
 25
-1e+20
 35
-1e+20
146
0.0
 13
0.0
 23
0.0
 33
0.0
 16
1.0
 26
0.0
 36
0.0
 17
0.0
 27
1.0
 37
0.0
 76
0
330
17
  0
MATERIAL
  5
3B
102
{ACAD_XDICTIONARY
360
3C
102
}
102
{ACAD_REACTORS
330
B
102
}
330
B
100
AcDbMaterial
  1
ByBlock
  2

 70
0
 40
1.0
 71
0
 41
1.0
 91
-1023410177
 42
1.0
 72
0
  3

 73
1
 74
1
 75
1
 43
0.0208333333333333
 43
0.0
 43
0.0
 43
0.0
 43
0.0
 43
0.0208333333333333
 43
0.0
 43
0.0
 43
0.0
 43
0.0
 43
1.0
 43
0.0
 43
0.0
 43
0.0
 43
0.0
 43
1.0
 44
0.5
 73
0
 45
1.0
 46
1.0
 77
0
  4

 78
1
 79
1
170
1
 47
0.0208333333333333
 47
0.0
 47
0.0
 47
0.0
 47
0.0
 47
0.0208333333333333
 47
0.0
 47
0.0
 47
0.0
 47
0.0
 47
1.0
 47
0.0
 47
0.0
 47
0.0
 47
0.0
 47
1.0
 48
1.0
171
0
  6

172
1
173
1
174
1
 49
0.0208333333333333
 49
0.0
 49
0.0
 49
0.0
 49
0.0
 49
0.0208333333333333
 49
0.0
 49
0.0
 49
0.0
 49
0.0
 49
1.0
 49
0.0
 49
0.0
 49
0.0
 49
0.0
 49
1.0
140
1.0
141
1.0
175
0
  7

176
1
177
1
178
1
142
0.0208333333333333
142
0.0
142
0.0
142
0.0
142
0.0
142
0.0208333333333333
142
0.0
142
0.0
142
0.0
142
0.0
142
1.0
142
0.0
142
0.0
142
0.0
142
0.0
142
1.0
143
1.0
179
0
  8

270
1
271
1
272
1
144
0.0208333333333333
144
0.0
144
0.0
144
0.0
144
0.0
144
0.0208333333333333
144
0.0
144
0.0
144
0.0
144
0.0
144
1.0
144
0.0
144
0.0
144
0.0
144
0.0
144
1.0
145
1.0
146
1.0
273
1
  9

274
1
275
1
276
1
147
0.0208333333333333
147
0.0
147
0.0
147
0.0
147
0.0
147
0.0208333333333333
147
0.0
147
0.0
147
0.0
147
0.0
147
1.0
147
0.0
147
0.0
147
0.0
147
0.0
147
1.0
 42
1.0
 72
1
  3

 73
1
 74
1
 75
1
 94
63
  0
MATERIAL
  5
33
102
{ACAD_XDICTIONARY
360
34
102
}
102
{ACAD_REACTORS
330
B
102
}
330
B
100
AcDbMaterial
  1
ByLayer
  2

 70
0
 40
1.0
 71
0
 41
1.0
 91
-1023410177
 42
1.0
 72
0
  3

 73
1
 74
1
 75
1
 43
0.0208333333333333
 43
0.0
 43
0.0
 43
0.0
 43
0.0
 43
0.0208333333333333
 43
0.0
 43
0.0
 43
0.0
 43
0.0
 43
1.0
 43
0.0
 43
0.0
 43
0.0
 43
0.0
 43
1.0
 44
0.5
 73
0
 45
1.0
 46
1.0
 77
0
  4

 78
1
 79
1
170
1
 47
0.0208333333333333
 47
0.0
 47
0.0
 47
0.0
 47
0.0
 47
0.0208333333333333
 47
0.0
 47
0.0
 47
0.0
 47
0.0
 47
1.0
 47
0.0
 47
0.0
 47
0.0
 47
0.0
 47
1.0
 48
1.0
171
0
  6

172
1
173
1
174
1
 49
0.0208333333333333
 49
0.0
 49
0.0
 49
0.0
 49
0.0
 49
0.0208333333333333
 49
0.0
 49
0.0
 49
0.0
 49
0.0
 49
1.0
 49
0.0
 49
0.0
 49
0.0
 49
0.0
 49
1.0
140
1.0
141
1.0
175
0
  7

176
1
177
1
178
1
142
0.0208333333333333
142
0.0
142
0.0
142
0.0
142
0.0
142
0.0208333333333333
142
0.0
142
0.0
142
0.0
142
0.0
142
1.0
142
0.0
142
0.0
142
0.0
142
0.0
142
1.0
143
1.0
179
0
  8

270
1
271
1
272
1
144
0.0208333333333333
144
0.0
144
0.0
144
0.0
144
0.0
144
0.0208333333333333
144
0.0
144
0.0
144
0.0
144
0.0
144
1.0
144
0.0
144
0.0
144
0.0
144
0.0
144
1.0
145
1.0
146
1.0
273
1
  9

274
1
275
1
276
1
147
0.0208333333333333
147
0.0
147
0.0
147
0.0
147
0.0
147
0.0208333333333333
147
0.0
147
0.0
147
0.0
147
0.0
147
1.0
147
0.0
147
0.0
147
0.0
147
0.0
147
1.0
 42
1.0
 72
1
  3

 73
1
 74
1
 75
1
 94
63
  0
MATERIAL
  5
A
102
{ACAD_XDICTIONARY
360
C
102
}
102
{ACAD_REACTORS
330
B
102
}
330
B
100
AcDbMaterial
  1
Global
  2

 70
0
 40
1.0
 71
0
 41
1.0
 91
-1023410177
 42
1.0
 72
0
  3

 73
1
 74
1
 75
1
 43
0.0208333333333333
 43
0.0
 43
0.0
 43
0.0
 43
0.0
 43
0.0208333333333333
 43
0.0
 43
0.0
 43
0.0
 43
0.0
 43
1.0
 43
0.0
 43
0.0
 43
0.0
 43
0.0
 43
1.0
 44
0.5
 73
0
 45
1.0
 46
1.0
 77
0
  4

 78
1
 79
1
170
1
 47
0.0208333333333333
 47
0.0
 47
0.0
 47
0.0
 47
0.0
 47
0.0208333333333333
 47
0.0
 47
0.0
 47
0.0
 47
0.0
 47
1.0
 47
0.0
 47
0.0
 47
0.0
 47
0.0
 47
1.0
 48
1.0
171
0
  6

172
1
173
1
174
1
 49
0.0208333333333333
 49
0.0
 49
0.0
 49
0.0
 49
0.0
 49
0.0208333333333333
 49
0.0
 49
0.0
 49
0.0
 49
0.0
 49
1.0
 49
0.0
 49
0.0
 49
0.0
 49
0.0
 49
1.0
140
1.0
141
1.0
175
0
  7

176
1
177
1
178
1
142
0.0208333333333333
142
0.0
142
0.0
142
0.0
142
0.0
142
0.0208333333333333
142
0.0
142
0.0
142
0.0
142
0.0
142
1.0
142
0.0
142
0.0
142
0.0
142
0.0
142
1.0
143
1.0
179
0
  8

270
1
271
1
272
1
144
0.0208333333333333
144
0.0
144
0.0
144
0.0
144
0.0
144
0.0208333333333333
144
0.0
144
0.0
144
0.0
144
0.0
144
1.0
144
0.0
144
0.0
144
0.0
144
0.0
144
1.0
145
1.0
146
1.0
273
1
  9

274
1
275
1
276
1
147
0.0208333333333333
147
0.0
147
0.0
147
0.0
147
0.0
147
0.0208333333333333
147
0.0
147
0.0
147
0.0
147
0.0
147
1.0
147
0.0
147
0.0
147
0.0
147
0.0
147
1.0
 42
1.0
 72
1
  3

 73
1
 74
1
 75
1
 94
63
  0
MLEADERSTYLE
  5
108
102
{ACAD_REACTORS
330
46
102
}
330
46
100
AcDbMLeaderStyle
179
2
170
2
171
1
172
0
 90
2
 40
0.0
 41
0.0
173
1
 91
-1056964608
340
22
 92
-2
290
1
 42
0.09
291
1
 43
0.36
  3
Standard
 44
0.18
300

342
1F
174
1
175
1
176
0
178
6
 93
-1056964608
 45
0.18
292
0
297
0
 46
0.18
293
1
 94
-1056964608
 47
1.0
 49
1.0
140
1.0
294
1
141
0.0
177
0
142
1.0
295
0
296
0
143
0.125
271
0
272
9
273
9
298
1
  0
MLINESTYLE
  5
52
102
{ACAD_REACTORS
330
31
102
}
330
31
100
AcDbMlineStyle
  2
STANDARD
 70
0
  3

 62
256
 51
90.0
 52
90.0
 71
2
 49
0.5
 62
256
  6
BYLAYER
 49
-0.5
 62
256
  6
BYLAYER
  0
ACDBPLACEHOLDER
  5
7
102
{ACAD_REACTORS
330
8
102
}
330
8
  0
SCALE
  5
56
102
{ACAD_REACTORS
330
44
102
}
330
44
100
AcDbScale
 70
0
300
1:1
140
1.0
141
1.0
290
1
  0
SCALE
  5
57
102
{ACAD_REACTORS
330
44
102
}
330
44
100
AcDbScale
 70
0
300
1/128" = 1'-0"
140
0.0078125
141
12.0
290
0
  0
SCALE
  5
58
102
{ACAD_REACTORS
330
44
102
}
330
44
100
AcDbScale
 70
0
300
1/64" = 1'-0"
140
0.015625
141
12.0
290
0
  0
SCALE
  5
59
102
{ACAD_REACTORS
330
44
102
}
330
44
100
AcDbScale
 70
0
300
1/32" = 1'-0"
140
0.03125
141
12.0
290
0
  0
SCALE
  5
5A
102
{ACAD_REACTORS
330
44
102
}
330
44
100
AcDbScale
 70
0
300
1/16" = 1'-0"
140
0.0625
141
12.0
290
0
  0
SCALE
  5
5B
102
{ACAD_REACTORS
330
44
102
}
330
44
100
AcDbScale
 70
0
300
3/32" = 1'-0"
140
0.09375
141
12.0
290
0
  0
SCALE
  5
5C
102
{ACAD_REACTORS
330
44
102
}
330
44
100
AcDbScale
 70
0
300
1/8" = 1'-0"
140
0.125
141
12.0
290
0
  0
SCALE
  5
5D
102
{ACAD_REACTORS
330
44
102
}
330
44
100
AcDbScale
 70
0
300
3/16" = 1'-0"
140
0.1875
141
12.0
290
0
  0
SCALE
  5
5E
102
{ACAD_REACTORS
330
44
102
}
330
44
100
AcDbScale
 70
0
300
1/4" = 1'-0"
140
0.25
141
12.0
290
0
  0
SCALE
  5
5F
102
{ACAD_REACTORS
330
44
102
}
330
44
100
AcDbScale
 70
0
300
3/8" = 1'-0"
140
0.375
141
12.0
290
0
  0
SCALE
  5
60
102
{ACAD_REACTORS
330
44
102
}
330
44
100
AcDbScale
 70
0
300
1/2" = 1'-0"
140
0.5
141
12.0
290
0
  0
SCALE
  5
61
102
{ACAD_REACTORS
330
44
102
}
330
44
100
AcDbScale
 70
0
300
3/4" = 1'-0"
140
0.75
141
12.0
290
0
  0
SCALE
  5
62
102
{ACAD_REACTORS
330
44
102
}
330
44
100
AcDbScale
 70
0
300
1" = 1'-0"
140
1.0
141
12.0
290
0
  0
SCALE
  5
63
102
{ACAD_REACTORS
330
44
102
}
330
44
100
AcDbScale
 70
0
300
1-1/2" = 1'-0"
140
1.5
141
12.0
290
0
  0
SCALE
  5
64
102
{ACAD_REACTORS
330
44
102
}
330
44
100
AcDbScale
 70
0
300
3" = 1'-0"
140
3.0
141
12.0
290
0
  0
SCALE
  5
65
102
{ACAD_REACTORS
330
44
102
}
330
44
100
AcDbScale
 70
0
300
6" = 1'-0"
140
6.0
141
12.0
290
0
  0
SCALE
  5
66
102
{ACAD_REACTORS
330
44
102
}
330
44
100
AcDbScale
 70
0
300
1'-0" = 1'-0"
140
12.0
141
12.0
290
0
  0
ACDBSECTIONVIEWSTYLE
  5
10A
102
{ACAD_REACTORS
330
109
102
}
330
109
100
AcDbModelDocViewStyle
 70
0
  3
Imperial24
290
0
300
Imperial24
 90
0
100
AcDbSectionViewStyle
 70
0
 71
0
 90
78
 71
1
340
1F
 62
256
 40
0.24
340
0
340
0
 62
256
 40
0.24
300
I, O, Q, S, X, Z
 40
0.48
 90
3
 40
0.18
 90
1
 71
2
340
13
 90
25
 62
256
340
13
 90
50
 62
256
 40
0.24
 40
0.0
 40
0.24
 71
3
340
1F
 62
256
 40
0.24
 90
1
 40
0.75
 90
1
300
%<\AcVar ViewType \f "%tc1">% %<\AcVar ViewSectionStartId>%-%<\AcVar ViewSectionEndId>%\PSCALE %<\AcVar ViewScale \f "%sn">%
 71
4
 62
256
 62
257
300
ANSI31
 40
1.0
 90
0
290
0
290
0
 90
6
 40
0.0
 40
1.570796326794896
 40
0.2617993877991494
 40
1.308996938995747
 40
-0.2617993877991494
 40
1.832595714594045
  0
TABLESTYLE
  5
53
102
{ACAD_XDICTIONARY
360
EE
102
}
102
{ACAD_REACTORS
330
45
102
}
330
45
100
AcDbTableStyle
280
0
  3
Standard
 70
0
 71
0
 40
0.06
 41
0.06
280
0
281
0
  7
STANDARD
140
0.18
170
2
 62
0
 63
7
283
0
 90
512
 91
0
  1

274
-2
284
1
 64
0
275
-2
285
1
 65
0
276
-2
286
1
 66
0
277
-2
287
1
 67
0
278
-2
288
1
 68
0
279
-2
289
1
 69
0
  7
STANDARD
140
0.25
170
5
 62
0
 63
7
283
0
 90
512
 91
0
  1

274
-2
284
1
 64
0
275
-2
285
1
 65
0
276
-2
286
1
 66
0
277
-2
287
1
 67
0
278
-2
288
1
 68
0
279
-2
289
1
 69
0
  7
STANDARD
140
0.18
170
5
 62
0
 63
7
283
0
 90
512
 91
0
  1

274
-2
284
1
 64
0
275
-2
285
1
 65
0
276
-2
286
1
 66
0
277
-2
287
1
 67
0
278
-2
288
1
 68
0
279
-2
289
1
 69
0
  0
VISUALSTYLE
  5
28
102
{ACAD_REACTORS
330
29
102
}
330
29
100
AcDbVisualStyle
  2
2dWireframe
 70
4
177
3
291
0
 70
58
 90
0
176
1
 90
2
176
1
 90
0
176
1
 90
0
176
1
 40
0.6
176
1
 40
30.0
176
1
 62
7
420
16777215
176
1
 90
1
176
1
 90
4
176
1
 62
7
176
1
 62
257
176
1
 90
1
176
1
 90
1
176
1
 40
1.0
176
1
 90
0
176
1
 62
257
176
1
 40
1.0
176
1
 90
1
176
1
 90
6
176
1
 90
2
176
1
 62
7
176
1
 90
5
176
1
 90
0
176
1
 90
0
176
1
290
0
176
1
 90
1
176
1
 40
0.0
176
1
 90
0
176
1
290
1
176
1
290
1
176
1
290
0
176
1
290
0
176
1
290
0
176
1
290
0
176
1
290
0
176
1
290
0
176
1
290
0
176
1
 90
50
176
1
 40
0.0
176
1
 40
1.0
176
1
 90
0
176
1
 62
18
176
1
 90
50
176
1
 90
3
176
1
 62
5
420
255
176
1
290
0
176
1
 90
50
176
1
 90
50
176
1
 90
50
176
1
290
0
176
1
 90
50
176
1
 62
256
176
0
 40
1.0
176
0
 90
2
176
1
  1
strokes_ogs.tif
176
1
290
0
176
1
 40
1.0
176
1
 40
1.0
176
1
  0
VISUALSTYLE
  5
F8
102
{ACAD_REACTORS
330
29
102
}
330
29
100
AcDbVisualStyle
  2
Basic
 70
7
177
3
291
1
 70
58
 90
1
176
1
 90
0
176
1
 90
1
176
1
 90
0
176
1
 40
0.6
176
1
 40
30.0
176
1
 62
7
420
16777215
176
1
 90
0
176
1
 90
4
176
1
 62
7
176
1
 62
257
176
1
 90
1
176
1
 90
1
176
1
 40
1.0
176
1
 90
8
176
1
 62
7
176
1
 40
1.0
176
1
 90
1
176
1
 90
6
176
1
 90
2
176
1
 62
7
176
1
 90
5
176
1
 90
0
176
1
 90
0
176
1
290
0
176
1
 90
1
176
1
 40
0.0
176
1
 90
0
176
1
290
0
176
1
290
1
176
1
290
1
176
1
290
0
176
1
290
0
176
1
290
0
176
1
290
0
176
1
290
0
176
1
290
0
176
1
 90
50
176
1
 40
0.0
176
1
 40
1.0
176
1
 90
0
176
1
 62
18
176
1
 90
50
176
1
 90
3
176
1
 62
5
420
255
176
1
290
0
176
1
 90
50
176
1
 90
50
176
1
 90
50
176
1
290
0
176
1
 90
50
176
1
 62
256
176
0
 40
1.0
176
0
 90
2
176
1
  1
strokes_ogs.tif
176
1
290
0
176
1
 40
1.0
176
1
 40
1.0
176
1
  0
VISUALSTYLE
  5
FC
102
{ACAD_REACTORS
330
29
102
}
330
29
100
AcDbVisualStyle
  2
Brighten
 70
12
177
3
291
1
 70
58
 90
2
176
1
 90
2
176
1
 90
0
176
1
 90
0
176
1
 40
0.6
176
1
 40
30.0
176
1
 62
7
420
16777215
176
1
 90
1
176
1
 90
4
176
1
 62
7
176
1
 62
257
176
1
 90
1
176
1
 90
1
176
1
 40
1.0
176
1
 90
8
176
1
 62
7
176
1
 40
1.0
176
1
 90
1
176
1
 90
6
176
1
 90
2
176
1
 62
7
176
1
 90
5
176
1
 90
0
176
1
 90
0
176
1
290
0
176
1
 90
1
176
1
 40
50.0
176
1
 90
0
176
1
290
0
176
1
290
1
176
1
290
1
176
1
290
0
176
1
290
0
176
1
290
0
176
1
290
0
176
1
290
0
176
1
290
0
176
1
 90
50
176
1
 40
0.0
176
1
 40
1.0
176
1
 90
0
176
1
 62
18
176
1
 90
50
176
1
 90
3
176
1
 62
5
420
255
176
1
290
0
176
1
 90
50
176
1
 90
50
176
1
 90
50
176
1
290
0
176
1
 90
50
176
1
 62
256
176
0
 40
1.0
176
0
 90
2
176
1
  1
strokes_ogs.tif
176
1
290
0
176
1
 40
1.0
176
1
 40
1.0
176
1
  0
VISUALSTYLE
  5
100
102
{ACAD_REACTORS
330
29
102
}
330
29
100
AcDbVisualStyle
  2
ColorChange
 70
16
177
3
291
1
 70
58
 90
2
176
1
 90
2
176
1
 90
3
176
1
 90
0
176
1
 40
0.6
176
1
 40
30.0
176
1
 62
8
420
8421504
176
1
 90
1
176
1
 90
4
176
1
 62
7
176
1
 62
257
176
1
 90
1
176
1
 90
1
176
1
 40
1.0
176
1
 90
8
176
1
 62
8
420
8421504
176
1
 40
1.0
176
1
 90
1
176
1
 90
6
176
1
 90
2
176
1
 62
7
176
1
 90
5
176
1
 90
0
176
1
 90
0
176
1
290
0
176
1
 90
1
176
1
 40
0.0
176
1
 90
0
176
1
290
0
176
1
290
1
176
1
290
1
176
1
290
0
176
1
290
0
176
1
290
0
176
1
290
0
176
1
290
0
176
1
290
0
176
1
 90
50
176
1
 40
0.0
176
1
 40
1.0
176
1
 90
0
176
1
 62
18
176
1
 90
50
176
1
 90
3
176
1
 62
5
420
255
176
1
290
0
176
1
 90
50
176
1
 90
50
176
1
 90
50
176
1
290
0
176
1
 90
50
176
1
 62
256
176
0
 40
1.0
176
0
 90
2
176
1
  1
strokes_ogs.tif
176
1
290
0
176
1
 40
1.0
176
1
 40
1.0
176
1
  0
VISUALSTYLE
  5
FA
102
{ACAD_REACTORS
330
29
102
}
330
29
100
AcDbVisualStyle
  2
Conceptual
 70
9
177
3
291
0
 70
58
 90
3
176
1
 90
2
176
1
 90
0
176
1
 90
0
176
1
 40
0.6
176
1
 40
30.0
176
1
 62
7
420
16777215
176
1
 90
2
176
1
 90
2
176
1
 62
7
176
1
 62
257
176
1
 90
1
176
1
 90
1
176
1
 40
179.0
176
1
 90
8
176
1
 62
7
176
1
 40
1.0
176
1
 90
1
176
1
 90
6
176
1
 90
2
176
1
 62
7
176
1
 90
3
176
1
 90
0
176
1
 90
0
176
1
290
0
176
1
 90
1
176
1
 40
0.0
176
1
 90
0
176
1
290
0
176
1
290
1
176
1
290
1
176
1
290
0
176
1
290
0
176
1
290
0
176
1
290
0
176
1
290
0
176
1
290
0
176
1
 90
50
176
1
 40
0.0
176
1
 40
1.0
176
1
 90
0
176
1
 62
18
176
1
 90
50
176
1
 90
3
176
1
 62
5
420
255
176
1
290
0
176
1
 90
50
176
1
 90
50
176
1
 90
50
176
1
290
0
176
1
 90
50
176
1
 62
256
176
0
 40
1.0
176
0
 90
2
176
1
  1
strokes_ogs.tif
176
1
290
0
176
1
 40
1.0
176
1
 40
1.0
176
1
  0
VISUALSTYLE
  5
FB
102
{ACAD_REACTORS
330
29
102
}
330
29
100
AcDbVisualStyle
  2
Dim
 70
11
177
3
291
1
 70
58
 90
2
176
1
 90
2
176
1
 90
0
176
1
 90
0
176
1
 40
0.6
176
1
 40
30.0
176
1
 62
7
420
16777215
176
1
 90
1
176
1
 90
4
176
1
 62
7
176
1
 62
257
176
1
 90
1
176
1
 90
1
176
1
 40
1.0
176
1
 90
8
176
1
 62
7
176
1
 40
1.0
176
1
 90
1
176
1
 90
6
176
1
 90
2
176
1
 62
7
176
1
 90
5
176
1
 90
0
176
1
 90
0
176
1
290
0
176
1
 90
1
176
1
 40
-50.0
176
1
 90
0
176
1
290
0
176
1
290
1
176
1
290
1
176
1
290
0
176
1
290
0
176
1
290
0
176
1
290
0
176
1
290
0
176
1
290
0
176
1
 90
50
176
1
 40
0.0
176
1
 40
1.0
176
1
 90
0
176
1
 62
18
176
1
 90
50
176
1
 90
3
176
1
 62
5
420
255
176
1
290
0
176
1
 90
50
176
1
 90
50
176
1
 90
50
176
1
290
0
176
1
 90
50
176
1
 62
256
176
0
 40
1.0
176
0
 90
2
176
1
  1
strokes_ogs.tif
176
1
290
0
176
1
 40
1.0
176
1
 40
1.0
176
1
  0
VISUALSTYLE
  5
70
102
{ACAD_REACTORS
330
29
102
}
330
29
100
AcDbVisualStyle
  2
EdgeColorOff
 70
22
177
3
291
1
 70
58
 90
2
176
0
 90
2
176
0
 90
0
176
0
 90
0
176
0
 40
0.6
176
0
 40
30.0
176
0
 62
7
420
16777215
176
0
 90
1
176
0
 90
4
176
0
 62
7
176
0
 62
257
176
0
 90
1
176
0
 90
1
176
0
 40
1.0
176
0
 90
8
176
2
 62
7
176
0
 40
1.0
176
0
 90
1
176
0
 90
6
176
0
 90
2
176
0
 62
7
176
0
 90
5
176
0
 90
0
176
0
 90
0
176
0
290
0
176
0
 90
1
176
0
 40
0.0
176
0
 90
0
176
0
290
0
176
1
290
1
176
1
290
1
176
1
290
0
176
1
290
0
176
1
290
0
176
1
290
0
176
1
290
0
176
1
290
0
176
1
 90
50
176
0
 40
0.0
176
0
 40
1.0
176
0
 90
0
176
0
 62
18
176
0
 90
50
176
0
 90
3
176
0
 62
5
420
255
176
0
290
0
176
1
 90
50
176
0
 90
50
176
0
 90
50
176
0
290
0
176
1
 90
50
176
0
 62
256
176
0
 40
1.0
176
0
 90
2
176
0
  1
strokes_ogs.tif
176
0
290
0
176
1
 40
1.0
176
0
 40
1.0
176
0
  0
VISUALSTYLE
  5
FF
102
{ACAD_REACTORS
330
29
102
}
330
29
100
AcDbVisualStyle
  2
Facepattern
 70
15
177
3
291
1
 70
58
 90
2
176
1
 90
2
176
1
 90
0
176
1
 90
0
176
1
 40
0.6
176
1
 40
30.0
176
1
 62
7
420
16777215
176
1
 90
1
176
1
 90
4
176
1
 62
7
176
1
 62
257
176
1
 90
1
176
1
 90
1
176
1
 40
1.0
176
1
 90
8
176
1
 62
7
176
1
 40
1.0
176
1
 90
1
176
1
 90
6
176
1
 90
2
176
1
 62
7
176
1
 90
5
176
1
 90
0
176
1
 90
0
176
1
290
0
176
1
 90
1
176
1
 40
0.0
176
1
 90
0
176
1
290
0
176
1
290
1
176
1
290
1
176
1
290
0
176
1
290
0
176
1
290
0
176
1
290
0
176
1
290
0
176
1
290
0
176
1
 90
50
176
1
 40
0.0
176
1
 40
1.0
176
1
 90
0
176
1
 62
18
176
1
 90
50
176
1
 90
3
176
1
 62
5
420
255
176
1
290
0
176
1
 90
50
176
1
 90
50
176
1
 90
50
176
1
290
0
176
1
 90
50
176
1
 62
256
176
0
 40
1.0
176
0
 90
2
176
1
  1
strokes_ogs.tif
176
1
290
0
176
1
 40
1.0
176
1
 40
1.0
176
1
  0
VISUALSTYLE
  5
F4
102
{ACAD_REACTORS
330
29
102
}
330
29
100
AcDbVisualStyle
  2
Flat
 70
0
177
3
291
1
 70
58
 90
2
176
1
 90
1
176
1
 90
1
176
1
 90
2
176
1
 40
0.6
176
1
 40
30.0
176
1
 62
7
420
16777215
176
1
 90
0
176
1
 90
0
176
1
 62
7
176
1
 62
257
176
1
 90
1
176
1
 90
1
176
1
 40
1.0
176
1
 90
8
176
1
 62
7
176
1
 40
1.0
176
1
 90
1
176
1
 90
6
176
1
 90
2
176
1
 62
7
176
1
 90
5
176
1
 90
0
176
1
 90
0
176
1
290
0
176
1
 90
13
176
1
 40
0.0
176
1
 90
0
176
1
290
0
176
1
290
1
176
1
290
1
176
1
290
0
176
1
290
0
176
1
290
0
176
1
290
0
176
1
290
0
176
1
290
0
176
1
 90
50
176
1
 40
0.0
176
1
 40
1.0
176
1
 90
0
176
1
 62
18
176
1
 90
50
176
1
 90
3
176
1
 62
5
420
255
176
1
290
0
176
1
 90
50
176
1
 90
50
176
1
 90
50
176
1
290
0
176
1
 90
50
176
1
 62
256
176
0
 40
1.0
176
0
 90
2
176
1
  1
strokes_ogs.tif
176
1
290
0
176
1
 40
1.0
176
1
 40
1.0
176
1
  0
VISUALSTYLE
  5
F5
102
{ACAD_REACTORS
330
29
102
}
330
29
100
AcDbVisualStyle
  2
FlatWithEdges
 70
1
177
3
291
1
 70
58
 90
2
176
1
 90
1
176
1
 90
1
176
1
 90
2
176
1
 40
0.6
176
1
 40
30.0
176
1
 62
7
420
16777215
176
1
 90
1
176
1
 90
0
176
1
 62
7
176
1
 62
257
176
1
 90
1
176
1
 90
1
176
1
 40
1.0
176
1
 90
0
176
1
 62
257
176
1
 40
1.0
176
1
 90
1
176
1
 90
6
176
1
 90
2
176
1
 62
7
176
1
 90
5
176
1
 90
0
176
1
 90
0
176
1
290
0
176
1
 90
13
176
1
 40
0.0
176
1
 90
0
176
1
290
0
176
1
290
1
176
1
290
1
176
1
290
0
176
1
290
0
176
1
290
0
176
1
290
0
176
1
290
0
176
1
290
0
176
1
 90
50
176
1
 40
0.0
176
1
 40
1.0
176
1
 90
0
176
1
 62
18
176
1
 90
50
176
1
 90
3
176
1
 62
5
420
255
176
1
290
0
176
1
 90
50
176
1
 90
50
176
1
 90
50
176
1
290
0
176
1
 90
50
176
1
 62
256
176
0
 40
1.0
176
0
 90
2
176
1
  1
strokes_ogs.tif
176
1
290
0
176
1
 40
1.0
176
1
 40
1.0
176
1
  0
VISUALSTYLE
  5
F6
102
{ACAD_REACTORS
330
29
102
}
330
29
100
AcDbVisualStyle
  2
Gouraud
 70
2
177
3
291
1
 70
58
 90
2
176
1
 90
2
176
1
 90
1
176
1
 90
2
176
1
 40
0.6
176
1
 40
30.0
176
1
 62
7
420
16777215
176
1
 90
0
176
1
 90
0
176
1
 62
7
176
1
 62
257
176
1
 90
1
176
1
 90
1
176
1
 40
1.0
176
1
 90
0
176
1
 62
7
176
1
 40
1.0
176
1
 90
1
176
1
 90
6
176
1
 90
2
176
1
 62
7
176
1
 90
5
176
1
 90
0
176
1
 90
0
176
1
290
0
176
1
 90
13
176
1
 40
0.0
176
1
 90
0
176
1
290
0
176
1
290
1
176
1
290
1
176
1
290
0
176
1
290
0
176
1
290
0
176
1
290
0
176
1
290
0
176
1
290
0
176
1
 90
50
176
1
 40
0.0
176
1
 40
1.0
176
1
 90
0
176
1
 62
18
176
1
 90
50
176
1
 90
3
176
1
 62
5
420
255
176
1
290
0
176
1
 90
50
176
1
 90
50
176
1
 90
50
176
1
290
0
176
1
 90
50
176
1
 62
256
176
0
 40
1.0
176
0
 90
2
176
1
  1
strokes_ogs.tif
176
1
290
0
176
1
 40
1.0
176
1
 40
1.0
176
1
  0
VISUALSTYLE
  5
F7
102
{ACAD_REACTORS
330
29
102
}
330
29
100
AcDbVisualStyle
  2
GouraudWithEdges
 70
3
177
3
291
1
 70
58
 90
2
176
1
 90
2
176
1
 90
1
176
1
 90
2
176
1
 40
0.6
176
1
 40
30.0
176
1
 62
7
420
16777215
176
1
 90
1
176
1
 90
0
176
1
 62
7
176
1
 62
257
176
1
 90
1
176
1
 90
1
176
1
 40
1.0
176
1
 90
0
176
1
 62
257
176
1
 40
1.0
176
1
 90
1
176
1
 90
6
176
1
 90
2
176
1
 62
7
176
1
 90
5
176
1
 90
0
176
1
 90
0
176
1
290
0
176
1
 90
13
176
1
 40
0.0
176
1
 90
0
176
1
290
0
176
1
290
1
176
1
290
1
176
1
290
0
176
1
290
0
176
1
290
0
176
1
290
0
176
1
290
0
176
1
290
0
176
1
 90
50
176
1
 40
0.0
176
1
 40
1.0
176
1
 90
0
176
1
 62
18
176
1
 90
50
176
1
 90
3
176
1
 62
5
420
255
176
1
290
0
176
1
 90
50
176
1
 90
50
176
1
 90
50
176
1
290
0
176
1
 90
50
176
1
 62
256
176
0
 40
1.0
176
0
 90
2
176
1
  1
strokes_ogs.tif
176
1
290
0
176
1
 40
1.0
176
1
 40
1.0
176
1
  0
VISUALSTYLE
  5
F9
102
{ACAD_REACTORS
330
29
102
}
330
29
100
AcDbVisualStyle
  2
Hidden
 70
6
177
3
291
0
 70
58
 90
1
176
1
 90
2
176
1
 90
2
176
1
 90
0
176
1
 40
0.6
176
1
 40
30.0
176
1
 62
7
420
16777215
176
1
 90
2
176
1
 90
2
176
1
 62
7
176
1
 62
257
176
1
 90
2
176
1
 90
1
176
1
 40
40.0
176
1
 90
0
176
1
 62
257
176
1
 40
1.0
176
1
 90
1
176
1
 90
6
176
1
 90
2
176
1
 62
7
176
1
 90
3
176
1
 90
0
176
1
 90
0
176
1
290
0
176
1
 90
1
176
1
 40
0.0
176
1
 90
0
176
1
290
0
176
1
290
1
176
1
290
1
176
1
290
0
176
1
290
0
176
1
290
0
176
1
290
0
176
1
290
0
176
1
290
0
176
1
 90
50
176
1
 40
0.0
176
1
 40
1.0
176
1
 90
0
176
1
 62
18
176
1
 90
50
176
1
 90
3
176
1
 62
5
420
255
176
1
290
0
176
1
 90
50
176
1
 90
50
176
1
 90
50
176
1
290
0
176
1
 90
50
176
1
 62
256
176
0
 40
1.0
176
0
 90
2
176
1
  1
strokes_ogs.tif
176
1
290
0
176
1
 40
1.0
176
1
 40
1.0
176
1
  0
VISUALSTYLE
  5
106
102
{ACAD_REACTORS
330
29
102
}
330
29
100
AcDbVisualStyle
  2
JitterOff
 70
20
177
3
291
1
 70
58
 90
2
176
0
 90
2
176
0
 90
0
176
0
 90
0
176
0
 40
0.6
176
0
 40
30.0
176
0
 62
7
420
16777215
176
0
 90
1
176
0
 90
4
176
0
 62
7
176
0
 62
257
176
0
 90
1
176
0
 90
1
176
0
 40
1.0
176
0
 90
10
176
2
 62
7
176
0
 40
1.0
176
0
 90
1
176
0
 90
6
176
0
 90
2
176
0
 62
7
176
0
 90
5
176
0
 90
0
176
0
 90
0
176
0
290
0
176
0
 90
1
176
0
 40
0.0
176
0
 90
0
176
0
290
0
176
0
290
1
176
0
290
1
176
0
290
0
176
0
290
0
176
0
290
0
176
0
290
0
176
0
290
0
176
0
290
0
176
0
 90
50
176
0
 40
0.0
176
0
 40
1.0
176
0
 90
0
176
0
 62
18
176
0
 90
50
176
0
 90
3
176
0
 62
5
420
255
176
0
290
0
176
0
 90
50
176
0
 90
50
176
0
 90
50
176
0
290
0
176
0
 90
50
176
0
 62
256
176
0
 40
1.0
176
0
 90
2
176
0
  1
strokes_ogs.tif
176
0
290
0
176
0
 40
1.0
176
0
 40
1.0
176
0
  0
VISUALSTYLE
  5
FE
102
{ACAD_REACTORS
330
29
102
}
330
29
100
AcDbVisualStyle
  2
Linepattern
 70
14
177
3
291
1
 70
58
 90
2
176
1
 90
2
176
1
 90
0
176
1
 90
0
176
1
 40
0.6
176
1
 40
30.0
176
1
 62
7
420
16777215
176
1
 90
1
176
1
 90
4
176
1
 62
7
176
1
 62
257
176
1
 90
7
176
1
 90
7
176
1
 40
1.0
176
1
 90
8
176
1
 62
7
176
1
 40
1.0
176
1
 90
1
176
1
 90
6
176
1
 90
2
176
1
 62
7
176
1
 90
5
176
1
 90
0
176
1
 90
0
176
1
290
0
176
1
 90
1
176
1
 40
0.0
176
1
 90
0
176
1
290
0
176
1
290
1
176
1
290
1
176
1
290
0
176
1
290
0
176
1
290
0
176
1
290
0
176
1
290
0
176
1
290
0
176
1
 90
50
176
1
 40
0.0
176
1
 40
1.0
176
1
 90
0
176
1
 62
18
176
1
 90
50
176
1
 90
3
176
1
 62
5
420
255
176
1
290
0
176
1
 90
50
176
1
 90
50
176
1
 90
50
176
1
290
0
176
1
 90
50
176
1
 62
256
176
0
 40
1.0
176
0
 90
2
176
1
  1
strokes_ogs.tif
176
1
290
0
176
1
 40
1.0
176
1
 40
1.0
176
1
  0
VISUALSTYLE
  5
107
102
{ACAD_REACTORS
330
29
102
}
330
29
100
AcDbVisualStyle
  2
OverhangOff
 70
21
177
3
291
1
 70
58
 90
2
176
0
 90
2
176
0
 90
0
176
0
 90
0
176
0
 40
0.6
176
0
 40
30.0
176
0
 62
7
420
16777215
176
0
 90
1
176
0
 90
4
176
0
 62
7
176
0
 62
257
176
0
 90
1
176
0
 90
1
176
0
 40
1.0
176
0
 90
9
176
2
 62
7
176
0
 40
1.0
176
0
 90
1
176
0
 90
6
176
0
 90
2
176
0
 62
7
176
0
 90
5
176
0
 90
0
176
0
 90
0
176
0
290
0
176
0
 90
1
176
0
 40
0.0
176
0
 90
0
176
0
290
0
176
0
290
1
176
0
290
1
176
0
290
0
176
0
290
0
176
0
290
0
176
0
290
0
176
0
290
0
176
0
290
0
176
0
 90
50
176
0
 40
0.0
176
0
 40
1.0
176
0
 90
0
176
0
 62
18
176
0
 90
50
176
0
 90
3
176
0
 62
5
420
255
176
0
290
0
176
0
 90
50
176
0
 90
50
176
0
 90
50
176
0
290
0
176
0
 90
50
176
0
 62
256
176
0
 40
1.0
176
0
 90
2
176
0
  1
strokes_ogs.tif
176
0
290
0
176
0
 40
1.0
176
0
 40
1.0
176
0
  0
VISUALSTYLE
  5
54
102
{ACAD_REACTORS
330
29
102
}
330
29
100
AcDbVisualStyle
  2
Realistic
 70
8
177
3
291
0
 70
58
 90
2
176
1
 90
3
176
1
 90
0
176
1
 90
2
176
1
 40
0.6
176
1
 40
30.0
176
1
 62
7
420
16777215
176
1
 90
0
176
1
 90
0
176
1
 62
7
176
1
 62
257
176
1
 90
1
176
1
 90
1
176
1
 40
1.0
176
1
 90
8
176
1
 62
257
176
1
 40
1.0
176
1
 90
1
176
1
 90
6
176
1
 90
2
176
1
 62
7
176
1
 90
3
176
1
 90
0
176
1
 90
0
176
1
290
0
176
1
 90
13
176
1
 40
0.0
176
1
 90
0
176
1
290
0
176
1
290
1
176
1
290
1
176
1
290
0
176
1
290
0
176
1
290
0
176
1
290
0
176
1
290
0
176
1
290
0
176
1
 90
50
176
1
 40
0.0
176
1
 40
1.0
176
1
 90
0
176
1
 62
18
176
1
 90
50
176
1
 90
3
176
1
 62
5
420
255
176
1
290
0
176
1
 90
50
176
1
 90
50
176
1
 90
50
176
1
290
0
176
1
 90
50
176
1
 62
256
176
0
 40
1.0
176
0
 90
2
176
1
  1
strokes_ogs.tif
176
1
290
0
176
1
 40
1.0
176
1
 40
1.0
176
1
  0
VISUALSTYLE
  5
105
102
{ACAD_REACTORS
330
29
102
}
330
29
100
AcDbVisualStyle
  2
Shaded
 70
27
177
3
291
0
 70
58
 90
2
176
1
 90
2
176
1
 90
1
176
1
 90
2
176
1
 40
0.6
176
1
 40
30.0
176
1
 62
7
420
16777215
176
1
 90
0
176
1
 90
4
176
1
 62
7
176
1
 62
257
176
1
 90
1
176
1
 90
1
176
1
 40
1.0
176
1
 90
8
176
1
 62
257
176
1
 40
1.0
176
1
 90
1
176
1
 90
6
176
1
 90
2
176
1
 62
8
420
7895160
176
1
 90
3
176
1
 90
0
176
1
 90
0
176
1
290
0
176
1
 90
5
176
1
 40
0.0
176
1
 90
0
176
1
290
0
176
1
290
1
176
1
290
1
176
1
290
0
176
1
290
0
176
1
290
0
176
1
290
0
176
1
290
0
176
1
290
0
176
1
 90
50
176
1
 40
0.0
176
1
 40
1.0
176
1
 90
0
176
1
 62
18
176
1
 90
50
176
1
 90
3
176
1
 62
5
420
255
176
1
290
0
176
1
 90
50
176
1
 90
50
176
1
 90
50
176
1
290
0
176
1
 90
50
176
1
 62
256
176
0
 40
1.0
176
0
 90
2
176
1
  1
strokes_ogs.tif
176
1
290
0
176
1
 40
1.0
176
1
 40
1.0
176
1
  0
VISUALSTYLE
  5
104
102
{ACAD_REACTORS
330
29
102
}
330
29
100
AcDbVisualStyle
  2
Shaded with edges
 70
26
177
3
291
0
 70
58
 90
2
176
1
 90
2
176
1
 90
1
176
1
 90
2
176
1
 40
0.6
176
1
 40
30.0
176
1
 62
7
420
16777215
176
1
 90
1
176
1
 90
2
176
1
 62
7
176
1
 62
257
176
1
 90
2
176
1
 90
1
176
1
 40
1.0
176
1
 90
8
176
1
 62
257
176
1
 40
1.0
176
1
 90
1
176
1
 90
6
176
1
 90
2
176
1
 62
7
176
1
 90
3
176
1
 90
0
176
1
 90
0
176
1
290
0
176
1
 90
5
176
1
 40
0.0
176
1
 90
0
176
1
290
0
176
1
290
1
176
1
290
1
176
1
290
0
176
1
290
0
176
1
290
0
176
1
290
0
176
1
290
0
176
1
290
0
176
1
 90
50
176
1
 40
0.0
176
1
 40
1.0
176
1
 90
0
176
1
 62
18
176
1
 90
50
176
1
 90
3
176
1
 62
5
420
255
176
1
290
0
176
1
 90
50
176
1
 90
50
176
1
 90
50
176
1
290
0
176
1
 90
50
176
1
 62
256
176
0
 40
1.0
176
0
 90
2
176
1
  1
strokes_ogs.tif
176
1
290
0
176
1
 40
1.0
176
1
 40
1.0
176
1
  0
VISUALSTYLE
  5
101
102
{ACAD_REACTORS
330
29
102
}
330
29
100
AcDbVisualStyle
  2
Shades of Gray
 70
23
177
3
291
0
 70
58
 90
2
176
1
 90
2
176
1
 90
3
176
1
 90
0
176
1
 40
0.6
176
1
 40
30.0
176
1
 62
7
420
16777215
176
1
 90
2
176
1
 90
2
176
1
 62
7
176
1
 62
7
176
1
 90
1
176
1
 90
1
176
1
 40
40.0
176
1
 90
8
176
1
 62
7
176
1
 40
1.0
176
1
 90
1
176
1
 90
6
176
1
 90
2
176
1
 62
7
176
1
 90
3
176
1
 90
0
176
1
 90
0
176
1
290
0
176
1
 90
1
176
1
 40
0.0
176
1
 90
0
176
1
290
0
176
1
290
1
176
1
290
1
176
1
290
0
176
1
290
0
176
1
290
0
176
1
290
0
176
1
290
0
176
1
290
0
176
1
 90
50
176
1
 40
0.0
176
1
 40
1.0
176
1
 90
0
176
1
 62
18
176
1
 90
50
176
1
 90
3
176
1
 62
5
420
255
176
1
290
0
176
1
 90
50
176
1
 90
50
176
1
 90
50
176
1
290
0
176
1
 90
50
176
1
 62
256
176
0
 40
1.0
176
0
 90
2
176
1
  1
strokes_ogs.tif
176
1
290
0
176
1
 40
1.0
176
1
 40
1.0
176
1
  0
VISUALSTYLE
  5
102
102
{ACAD_REACTORS
330
29
102
}
330
29
100
AcDbVisualStyle
  2
Sketchy
 70
24
177
3
291
0
 70
58
 90
1
176
1
 90
2
176
1
 90
2
176
1
 90
0
176
1
 40
0.6
176
1
 40
30.0
176
1
 62
7
420
16777215
176
1
 90
2
176
1
 90
2
176
1
 62
7
176
1
 62
7
176
1
 90
1
176
1
 90
1
176
1
 40
40.0
176
1
 90
11
176
1
 62
7
176
1
 40
1.0
176
1
 90
1
176
1
 90
6
176
1
 90
2
176
1
 62
7
176
1
 90
6
176
1
 90
0
176
1
 90
0
176
1
290
0
176
1
 90
1
176
1
 40
0.0
176
1
 90
0
176
1
290
0
176
1
290
1
176
1
290
1
176
1
290
0
176
1
290
0
176
1
290
0
176
1
290
0
176
1
290
0
176
1
290
0
176
1
 90
50
176
1
 40
0.0
176
1
 40
1.0
176
1
 90
0
176
1
 62
18
176
1
 90
50
176
1
 90
3
176
1
 62
5
420
255
176
1
290
0
176
1
 90
50
176
1
 90
50
176
1
 90
50
176
1
290
0
176
1
 90
50
176
1
 62
256
176
0
 40
1.0
176
0
 90
2
176
1
  1
strokes_ogs.tif
176
1
290
0
176
1
 40
1.0
176
1
 40
1.0
176
1
  0
VISUALSTYLE
  5
FD
102
{ACAD_REACTORS
330
29
102
}
330
29
100
AcDbVisualStyle
  2
Thicken
 70
13
177
3
291
1
 70
58
 90
2
176
1
 90
2
176
1
 90
0
176
1
 90
0
176
1
 40
0.6
176
1
 40
30.0
176
1
 62
7
420
16777215
176
1
 90
1
176
1
 90
4
176
1
 62
7
176
1
 62
257
176
1
 90
1
176
1
 90
1
176
1
 40
1.0
176
1
 90
12
176
1
 62
7
176
1
 40
1.0
176
1
 90
1
176
1
 90
6
176
1
 90
2
176
1
 62
7
176
1
 90
5
176
1
 90
0
176
1
 90
0
176
1
290
0
176
1
 90
1
176
1
 40
0.0
176
1
 90
0
176
1
290
0
176
1
290
1
176
1
290
1
176
1
290
0
176
1
290
0
176
1
290
0
176
1
290
0
176
1
290
0
176
1
290
0
176
1
 90
50
176
1
 40
0.0
176
1
 40
1.0
176
1
 90
0
176
1
 62
18
176
1
 90
50
176
1
 90
3
176
1
 62
5
420
255
176
1
290
0
176
1
 90
50
176
1
 90
50
176
1
 90
50
176
1
290
0
176
1
 90
50
176
1
 62
256
176
0
 40
1.0
176
0
 90
2
176
1
  1
strokes_ogs.tif
176
1
290
0
176
1
 40
1.0
176
1
 40
1.0
176
1
  0
VISUALSTYLE
  5
55
102
{ACAD_REACTORS
330
29
102
}
330
29
100
AcDbVisualStyle
  2
Wireframe
 70
5
177
3
291
0
 70
58
 90
0
176
1
 90
2
176
1
 90
0
176
1
 90
0
176
1
 40
0.6
176
1
 40
30.0
176
1
 62
7
420
16777215
176
1
 90
1
176
1
 90
4
176
1
 62
7
176
1
 62
257
176
1
 90
1
176
1
 90
1
176
1
 40
1.0
176
1
 90
0
176
1
 62
257
176
1
 40
1.0
176
1
 90
1
176
1
 90
6
176
1
 90
2
176
1
 62
7
176
1
 90
3
176
1
 90
0
176
1
 90
0
176
1
290
0
176
1
 90
1
176
1
 40
0.0
176
1
 90
0
176
1
290
0
176
1
290
1
176
1
290
1
176
1
290
0
176
1
290
0
176
1
290
0
176
1
290
0
176
1
290
0
176
1
290
0
176
1
 90
50
176
1
 40
0.0
176
1
 40
1.0
176
1
 90
0
176
1
 62
18
176
1
 90
50
176
1
 90
3
176
1
 62
5
420
255
176
1
290
0
176
1
 90
50
176
1
 90
50
176
1
 90
50
176
1
290
0
176
1
 90
50
176
1
 62
256
176
0
 40
1.0
176
0
 90
2
176
1
  1
strokes_ogs.tif
176
1
290
0
176
1
 40
1.0
176
1
 40
1.0
176
1
  0
VISUALSTYLE
  5
103
102
{ACAD_REACTORS
330
29
102
}
330
29
100
AcDbVisualStyle
  2
X-Ray
 70
25
177
3
291
0
 70
58
 90
2
176
1
 90
2
176
1
 90
1
176
1
 90
1
176
1
 40
0.5
176
1
 40
30.0
176
1
 62
7
420
16777215
176
1
 90
1
176
1
 90
0
176
1
 62
7
176
1
 62
257
176
1
 90
1
176
1
 90
1
176
1
 40
1.0
176
1
 90
8
176
1
 62
7
176
1
 40
1.0
176
1
 90
1
176
1
 90
6
176
1
 90
2
176
1
 62
7
176
1
 90
3
176
1
 90
0
176
1
 90
0
176
1
290
0
176
1
 90
13
176
1
 40
0.0
176
1
 90
0
176
1
290
0
176
1
290
1
176
1
290
1
176
1
290
0
176
1
290
0
176
1
290
0
176
1
290
0
176
1
290
0
176
1
290
0
176
1
 90
50
176
1
 40
0.0
176
1
 40
1.0
176
1
 90
0
176
1
 62
18
176
1
 90
50
176
1
 90
3
176
1
 62
5
420
255
176
1
290
0
176
1
 90
50
176
1
 90
50
176
1
 90
50
176
1
290
0
176
1
 90
50
176
1
 62
256
176
0
 40
1.0
176
0
 90
2
176
1
  1
strokes_ogs.tif
176
1
290
0
176
1
 40
1.0
176
1
 40
1.0
176
1
  0
DICTIONARYVAR
  5
48
102
{ACAD_REACTORS
330
47
102
}
330
47
100
DictionaryVariables
280
0
  1
1:1
  0
DICTIONARYVAR
  5
49
102
{ACAD_REACTORS
330
47
102
}
330
47
100
DictionaryVariables
280
0
  1
STANDARD
  0
DICTIONARYVAR
  5
4A
102
{ACAD_REACTORS
330
47
102
}
330
47
100
DictionaryVariables
280
0
  1
STANDARD
  0
DICTIONARYVAR
  5
4B
102
{ACAD_REACTORS
330
47
102
}
330
47
100
DictionaryVariables
280
0
  1
Imperial24
  0
DICTIONARYVAR
  5
4C
102
{ACAD_REACTORS
330
47
102
}
330
47
100
DictionaryVariables
280
0
  1
Imperial24
  0
DICTIONARYVAR
  5
4D
102
{ACAD_REACTORS
330
47
102
}
330
47
100
DictionaryVariables
280
0
  1
1
  0
DICTIONARYVAR
  5
4E
102
{ACAD_REACTORS
330
47
102
}
330
47
100
DictionaryVariables
280
0
  1
15
  0
DICTIONARYVAR
  5
4F
102
{ACAD_REACTORS
330
47
102
}
330
47
100
DictionaryVariables
280
0
  1
0
  0
DICTIONARYVAR
  5
50
102
{ACAD_REACTORS
330
47
102
}
330
47
100
DictionaryVariables
280
0
  1
0
  0
DICTIONARYVAR
  5
51
102
{ACAD_REACTORS
330
47
102
}
330
47
100
DictionaryVariables
280
0
  1
0
  0
DICTIONARY
  5
3C
330
3B
100
AcDbDictionary
280
1
281
1
  3
BUMPTILE
360
3D
  3
DIFFUSETILE
360
3E
  3
OPACITYTILE
360
3F
  3
REFLECTIONTILE
360
40
  3
REFRACTIONTILE
360
41
  3
SPECULARTILE
360
42
  0
DICTIONARY
  5
34
330
33
100
AcDbDictionary
280
1
281
1
  3
BUMPTILE
360
35
  3
DIFFUSETILE
360
36
  3
OPACITYTILE
360
37
  3
REFLECTIONTILE
360
38
  3
REFRACTIONTILE
360
39
  3
SPECULARTILE
360
3A
  0
DICTIONARY
  5
C
330
A
100
AcDbDictionary
280
1
281
1
  3
BUMPTILE
360
D
  3
DIFFUSETILE
360
E
  3
OPACITYTILE
360
F
  3
REFLECTIONTILE
360
10
  3
REFRACTIONTILE
360
11
  3
SPECULARTILE
360
12
  0
DICTIONARY
  5
EE
330
53
100
AcDbDictionary
280
1
281
1
  3
ACAD_ROUNDTRIP_2008_TABLESTYLE_CELLSTYLEMAP
360
FAE
  0
XRECORD
  5
3D
102
{ACAD_REACTORS
330
3C
102
}
330
3C
100
AcDbXrecord
280
1
270
1
271
1
  0
XRECORD
  5
3E
102
{ACAD_REACTORS
330
3C
102
}
330
3C
100
AcDbXrecord
280
1
270
1
271
1
  0
XRECORD
  5
3F
102
{ACAD_REACTORS
330
3C
102
}
330
3C
100
AcDbXrecord
280
1
270
1
271
1
  0
XRECORD
  5
40
102
{ACAD_REACTORS
330
3C
102
}
330
3C
100
AcDbXrecord
280
1
270
1
271
1
  0
XRECORD
  5
41
102
{ACAD_REACTORS
330
3C
102
}
330
3C
100
AcDbXrecord
280
1
270
1
271
1
  0
XRECORD
  5
42
102
{ACAD_REACTORS
330
3C
102
}
330
3C
100
AcDbXrecord
280
1
270
1
271
1
  0
XRECORD
  5
35
102
{ACAD_REACTORS
330
34
102
}
330
34
100
AcDbXrecord
280
1
270
1
271
1
  0
XRECORD
  5
36
102
{ACAD_REACTORS
330
34
102
}
330
34
100
AcDbXrecord
280
1
270
1
271
1
  0
XRECORD
  5
37
102
{ACAD_REACTORS
330
34
102
}
330
34
100
AcDbXrecord
280
1
270
1
271
1
  0
XRECORD
  5
38
102
{ACAD_REACTORS
330
34
102
}
330
34
100
AcDbXrecord
280
1
270
1
271
1
  0
XRECORD
  5
39
102
{ACAD_REACTORS
330
34
102
}
330
34
100
AcDbXrecord
280
1
270
1
271
1
  0
XRECORD
  5
3A
102
{ACAD_REACTORS
330
34
102
}
330
34
100
AcDbXrecord
280
1
270
1
271
1
  0
XRECORD
  5
D
102
{ACAD_REACTORS
330
C
102
}
330
C
100
AcDbXrecord
280
1
270
1
271
1
  0
XRECORD
  5
E
102
{ACAD_REACTORS
330
C
102
}
330
C
100
AcDbXrecord
280
1
270
1
271
1
  0
XRECORD
  5
F
102
{ACAD_REACTORS
330
C
102
}
330
C
100
AcDbXrecord
280
1
270
1
271
1
  0
XRECORD
  5
10
102
{ACAD_REACTORS
330
C
102
}
330
C
100
AcDbXrecord
280
1
270
1
271
1
  0
XRECORD
  5
11
102
{ACAD_REACTORS
330
C
102
}
330
C
100
AcDbXrecord
280
1
270
1
271
1
  0
XRECORD
  5
12
102
{ACAD_REACTORS
330
C
102
}
330
C
100
AcDbXrecord
280
1
270
1
271
1
  0
CELLSTYLEMAP
  5
FAE
102
{ACAD_REACTORS
330
EE
102
}
330
EE
100
AcDbCellStyleMap
 90
3
300
CELLSTYLE
  1
TABLEFORMAT_BEGIN
 90
5
170
1
 91
0
 92
32768
 62
257
 93
1
300
CONTENTFORMAT
  1
CONTENTFORMAT_BEGIN
 90
0
 91
0
 92
512
 93
0
300

 40
0.0
140
1.0
 94
5
 62
0
340
1F
144
0.25
309
CONTENTFORMAT_END
171
1
301
MARGIN
  1
CELLMARGIN_BEGIN
 40
0.06
 40
0.06
 40
0.06
 40
0.06
 40
0.18
 40
0.18
309
CELLMARGIN_END
 94
6
 95
1
302
GRIDFORMAT
  1
GRIDFORMAT_BEGIN
 90
0
 91
1
 62
0
 92
-2
340
0
 93
0
 40
0.045
309
GRIDFORMAT_END
 95
2
302
GRIDFORMAT
  1
GRIDFORMAT_BEGIN
 90
0
 91
1
 62
0
 92
-2
340
0
 93
0
 40
0.045
309
GRIDFORMAT_END
 95
4
302
GRIDFORMAT
  1
GRIDFORMAT_BEGIN
 90
0
 91
1
 62
0
 92
-2
340
0
 93
0
 40
0.045
309
GRIDFORMAT_END
 95
8
302
GRIDFORMAT
  1
GRIDFORMAT_BEGIN
 90
0
 91
1
 62
0
 92
-2
340
0
 93
0
 40
0.045
309
GRIDFORMAT_END
 95
16
302
GRIDFORMAT
  1
GRIDFORMAT_BEGIN
 90
0
 91
1
 62
0
 92
-2
340
0
 93
0
 40
0.045
309
GRIDFORMAT_END
 95
32
302
GRIDFORMAT
  1
GRIDFORMAT_BEGIN
 90
0
 91
1
 62
0
 92
-2
340
0
 93
0
 40
0.045
309
GRIDFORMAT_END
309
TABLEFORMAT_END
  1
CELLSTYLE_BEGIN
 90
1
 91
1
300
_TITLE
309
CELLSTYLE_END
300
CELLSTYLE
  1
TABLEFORMAT_BEGIN
 90
5
170
1
 91
0
 92
0
 62
257
 93
1
300
CONTENTFORMAT
  1
CONTENTFORMAT_BEGIN
 90
0
 91
0
 92
512
 93
0
300

 40
0.0
140
1.0
 94
5
 62
0
340
1F
144
0.18
309
CONTENTFORMAT_END
171
1
301
MARGIN
  1
CELLMARGIN_BEGIN
 40
0.06
 40
0.06
 40
0.06
 40
0.06
 40
0.18
 40
0.18
309
CELLMARGIN_END
 94
6
 95
1
302
GRIDFORMAT
  1
GRIDFORMAT_BEGIN
 90
0
 91
1
 62
0
 92
-2
340
0
 93
0
 40
0.045
309
GRIDFORMAT_END
 95
2
302
GRIDFORMAT
  1
GRIDFORMAT_BEGIN
 90
0
 91
1
 62
0
 92
-2
340
0
 93
0
 40
0.045
309
GRIDFORMAT_END
 95
4
302
GRIDFORMAT
  1
GRIDFORMAT_BEGIN
 90
0
 91
1
 62
0
 92
-2
340
0
 93
0
 40
0.045
309
GRIDFORMAT_END
 95
8
302
GRIDFORMAT
  1
GRIDFORMAT_BEGIN
 90
0
 91
1
 62
0
 92
-2
340
0
 93
0
 40
0.045
309
GRIDFORMAT_END
 95
16
302
GRIDFORMAT
  1
GRIDFORMAT_BEGIN
 90
0
 91
1
 62
0
 92
-2
340
0
 93
0
 40
0.045
309
GRIDFORMAT_END
 95
32
302
GRIDFORMAT
  1
GRIDFORMAT_BEGIN
 90
0
 91
1
 62
0
 92
-2
340
0
 93
0
 40
0.045
309
GRIDFORMAT_END
309
TABLEFORMAT_END
  1
CELLSTYLE_BEGIN
 90
2
 91
1
300
_HEADER
309
CELLSTYLE_END
300
CELLSTYLE
  1
TABLEFORMAT_BEGIN
 90
5
170
1
 91
0
 92
0
 62
257
 93
1
300
CONTENTFORMAT
  1
CONTENTFORMAT_BEGIN
 90
0
 91
0
 92
512
 93
0
300

 40
0.0
140
1.0
 94
2
 62
0
340
1F
144
0.18
309
CONTENTFORMAT_END
171
1
301
MARGIN
  1
CELLMARGIN_BEGIN
 40
0.06
 40
0.06
 40
0.06
 40
0.06
 40
0.18
 40
0.18
309
CELLMARGIN_END
 94
6
 95
1
302
GRIDFORMAT
  1
GRIDFORMAT_BEGIN
 90
0
 91
1
 62
0
 92
-2
340
0
 93
0
 40
0.045
309
GRIDFORMAT_END
 95
2
302
GRIDFORMAT
  1
GRIDFORMAT_BEGIN
 90
0
 91
1
 62
0
 92
-2
340
0
 93
0
 40
0.045
309
GRIDFORMAT_END
 95
4
302
GRIDFORMAT
  1
GRIDFORMAT_BEGIN
 90
0
 91
1
 62
0
 92
-2
340
0
 93
0
 40
0.045
309
GRIDFORMAT_END
 95
8
302
GRIDFORMAT
  1
GRIDFORMAT_BEGIN
 90
0
 91
1
 62
0
 92
-2
340
0
 93
0
 40
0.045
309
GRIDFORMAT_END
 95
16
302
GRIDFORMAT
  1
GRIDFORMAT_BEGIN
 90
0
 91
1
 62
0
 92
-2
340
0
 93
0
 40
0.045
309
GRIDFORMAT_END
 95
32
302
GRIDFORMAT
  1
GRIDFORMAT_BEGIN
 90
0
 91
1
 62
0
 92
-2
340
0
 93
0
 40
0.045
309
GRIDFORMAT_END
309
TABLEFORMAT_END
  1
CELLSTYLE_BEGIN
 90
3
 91
2
300
_DATA
309
CELLSTYLE_END
  0
DICTIONARY
  5
FB9
330
9
100
AcDbDictionary
280
1
281
1
  3
WRITTEN_BY_EZDXF
350
FBA
  0
DICTIONARYVAR
  5
FBA
330
FB9
100
DictionaryVariables
280
0
  1
1.4.4 @ 2026-08-22T11:09:01.667286+00:00
  0
ENDSEC
  0
SECTION
  2
ACDSDATA
 70
2
 71
8
  0
ACDSSCHEMA
 90
0
  1
AcDb_Thumbnail_Schema
  2
AcDbDs::ID
280
10
 91
8
  2
Thumbnail_Data
280
15
 91
0
101
ACDSRECORD
 95
0
 90
2
  2
AcDbDs::TreatedAsObjectData
280
1
291
1
101
ACDSRECORD
 95
0
 90
3
  2
AcDbDs::Legacy
280
1
291
1
101
ACDSRECORD
  1
AcDbDs::ID
 90
4
  2
AcDs:Indexable
280
1
291
1
101
ACDSRECORD
  1
AcDbDs::ID
 90
5
  2
AcDbDs::HandleAttribute
280
7
282
1
  0
ACDSSCHEMA
 90
1
  1
AcDb3DSolid_ASM_Data
  2
AcDbDs::ID
280
10
 91
8
  2
ASM_Data
280
15
 91
0
101
ACDSRECORD
 95
1
 90
2
  2
AcDbDs::TreatedAsObjectData
280
1
291
1
101
ACDSRECORD
 95
1
 90
3
  2
AcDbDs::Legacy
280
1
291
1
101
ACDSRECORD
  1
AcDbDs::ID
 90
4
  2
AcDs:Indexable
280
1
291
1
101
ACDSRECORD
  1
AcDbDs::ID
 90
5
  2
AcDbDs::HandleAttribute
280
7
282
1
  0
ACDSSCHEMA
 90
2
  1
AcDbDs::TreatedAsObjectDataSchema
  2
AcDbDs::TreatedAsObjectData
280
1
 91
0
  0
ACDSSCHEMA
 90
3
  1
AcDbDs::LegacySchema
  2
AcDbDs::Legacy
280
1
 91
0
  0
ACDSSCHEMA
 90
4
  1
AcDbDs::IndexedPropertySchema
  2
AcDs:Indexable
280
1
 91
0
  0
ACDSSCHEMA
 90
5
  1
AcDbDs::HandleAttributeSchema
  2
AcDbDs::HandleAttribute
280
7
 91
1
284
1
  0
ACDSRECORD
 90
0
  2
AcDbDs::ID
280
10
320
15
  2
Thumbnail_Data
280
15
 94
1187
310
89504E470D0A1A0A0000000D4948445200000100000000600803000000C52F5CBA00000300504C5445212830FFFFFF2128300000000000000000000000000000000000000000000000000000330000660000990000CC0000FF0033000033330033660033990033CC0033FF0066000066330066660066990066CC0066FF0099
310
000099330099660099990099CC0099FF00CC0000CC3300CC6600CC9900CCCC00CCFF00FF0000FF3300FF6600FF9900FFCC00FFFF3300003300333300663300993300CC3300FF3333003333333333663333993333CC3333FF3366003366333366663366993366CC3366FF3399003399333399663399993399CC3399FF33CC00
310
33CC3333CC6633CC9933CCCC33CCFF33FF0033FF3333FF6633FF9933FFCC33FFFF6600006600336600666600996600CC6600FF6633006633336633666633996633CC6633FF6666006666336666666666996666CC6666FF6699006699336699666699996699CC6699FF66CC0066CC3366CC6666CC9966CCCC66CCFF66FF0066
310
FF3366FF6666FF9966FFCC66FFFF9900009900339900669900999900CC9900FF9933009933339933669933999933CC9933FF9966009966339966669966999966CC9966FF9999009999339999669999999999CC9999FF99CC0099CC3399CC6699CC9999CCCC99CCFF99FF0099FF3399FF6699FF9999FFCC99FFFFCC0000CC00
310
33CC0066CC0099CC00CCCC00FFCC3300CC3333CC3366CC3399CC33CCCC33FFCC6600CC6633CC6666CC6699CC66CCCC66FFCC9900CC9933CC9966CC9999CC99CCCC99FFCCCC00CCCC33CCCC66CCCC99CCCCCCCCCCFFCCFF00CCFF33CCFF66CCFF99CCFFCCCCFFFFFF0000FF0033FF0066FF0099FF00CCFF00FFFF3300FF3333
310
FF3366FF3399FF33CCFF33FFFF6600FF6633FF6666FF6699FF66CCFF66FFFF9900FF9933FF9966FF9999FF99CCFF99FFFFCC00FFCC33FFCC66FFCC99FFCCCCFFCCFFFFFF00FFFF33FFFF66FFFF99FFFFCCFFFFFF0000000D0D0D1A1A1A2828283535354343435050505D5D5D6B6B6B787878868686939393A1A1A1AEAEAEBB
310
BBBBC9C9C9D6D6D6E4E4E4F1F1F1FFFFFF0000000000000000000000000000000000000000000000000000000000002E4550F1000000B64944415478DAEDDC311640301445C1EC7F73594DFA547A7E14BC3FB7A630C839418C2149922449922449EFB6AAC50054D962CE7FFDC2E97BFECFF7051000D0FD1630066403AC87DB
310
1804010000000000000000000000000000000000FE065079BE9504507ACD110550391C0000000000000000000000CC0502A6C3CD67839E0700000000000000000000000000000000006EEDD11360CD934F0A22AE80791DBF45530641000100DD174FB75F3EEF070A922449FA641BFCDE23A987EBB29E0000000049454E44AE
310
426082AE426082ECBC2214C3331E1018C0B7EE0000000000003FB3DE3616D4AB9A79B572EEF11FB0CDD2F6196AB0370BFB0368072E0ADB05FA97CD9D02DAFF7FB53E39ADE0DC00F6E1DDC8909653C5F118FAFB10D857813241AEDFF96703E2D43D407783C49B07D433406000AF10586E2BE716AF0A0C03E8593A3F80567ADB
310
86406C00ADF416DC03BC5E46050039000094413C600200179C693FD30B32732A0000000049454E44AE426082
  0
ENDSEC
  0
EOF
